STARTFONT 2.3
FONT -FontForge-Source Code Pro-Book-R-Normal--16-160-72-72-M-100-ISO10646-1
SIZE 16 72 72  2
FONTBOUNDINGBOX 16 24 -3 -7
COMMENT "Generated by fontforge, http://fontforge.sourceforge.net"
COMMENT "Copyright 2010, 2012 Adobe Systems Incorporated (http://www.adobe.com/), with Reserved Font Name `Source'."
STARTPROPERTIES 41
FOUNDRY "FontForge"
FAMILY_NAME "Source Code Pro"
WEIGHT_NAME "Book"
SLANT "R"
SETWIDTH_NAME "Normal"
ADD_STYLE_NAME ""
PIXEL_SIZE 16
POINT_SIZE 160
RESOLUTION_X 72
RESOLUTION_Y 72
SPACING "M"
AVERAGE_WIDTH 100
CHARSET_REGISTRY "ISO10646"
CHARSET_ENCODING "1"
FONTNAME_REGISTRY ""
CHARSET_COLLECTIONS "ASCII ISOLatin1Encoding ISO8859-2 ISO8859-5 ISO8859-7 ISO8859-9 ISO8859-4 ISO10646-1"
BITS_PER_PIXEL 2
FONT_NAME "SourceCodePro-Regular"
FACE_NAME "Source Code Pro"
COPYRIGHT "Copyright 2010, 2012 Adobe Systems Incorporated (http://www.adobe.com/), with Reserved Font Name `Source'."
FONT_VERSION "2.030;PS 1.000;hotconv 16.6.51;makeotf.lib2.5.65220"
FONT_ASCENT 12
FONT_DESCENT 4
UNDERLINE_POSITION -2
UNDERLINE_THICKNESS 1
X_HEIGHT 7
CAP_HEIGHT 9
RAW_ASCENT 750
RAW_DESCENT 250
NORM_SPACE 10
RELATIVE_WEIGHT 40
RELATIVE_SETWIDTH 50
SUPERSCRIPT_X 0
SUPERSCRIPT_Y 5
SUPERSCRIPT_SIZE 9
SUBSCRIPT_X 0
SUBSCRIPT_Y 1
SUBSCRIPT_SIZE 9
FIGURE_WIDTH 10
AVG_LOWERCASE_WIDTH 100
AVG_UPPERCASE_WIDTH 100
ENDPROPERTIES
CHARS 1564
STARTCHAR space
ENCODING 32
SWIDTH 600 0
DWIDTH 10 0
BBX 1 1 0 0
BITMAP
00
ENDCHAR
STARTCHAR exclam
ENCODING 33
SWIDTH 600 0
DWIDTH 10 0
BBX 3 10 3 0
BITMAP
34
24
24
24
24
24
24
00
78
78
ENDCHAR
STARTCHAR quotedbl
ENCODING 34
SWIDTH 600 0
DWIDTH 10 0
BBX 6 5 2 6
BITMAP
F1E0
E1D0
A0D0
A0D0
90C0
ENDCHAR
STARTCHAR numbersign
ENCODING 35
SWIDTH 600 0
DWIDTH 10 0
BBX 8 10 1 0
BITMAP
0924
0924
7C24
0D79
0820
1960
BEFC
1450
2490
2490
ENDCHAR
STARTCHAR dollar
ENCODING 36
SWIDTH 600 0
DWIDTH 10 0
BBX 7 13 1 -1
BITMAP
0240
0240
1BE4
3818
3400
2D00
06E0
0068
001C
642C
1BE0
0240
0240
ENDCHAR
STARTCHAR percent
ENCODING 37
SWIDTH 600 0
DWIDTH 10 0
BBX 9 10 0 0
BITMAP
2E0080
618240
90C900
618400
2E0000
011F40
0931C0
2460C0
6031C0
001F40
ENDCHAR
STARTCHAR ampersand
ENCODING 38
SWIDTH 600 0
DWIDTH 10 0
BBX 9 10 0 0
BITMAP
07E000
0D3400
0C3000
09A000
0B8080
1F8180
34E340
703E00
382F40
1BE180
ENDCHAR
STARTCHAR quotesingle
ENCODING 39
SWIDTH 600 0
DWIDTH 10 0
BBX 2 5 4 6
BITMAP
E0
E0
E0
90
90
ENDCHAR
STARTCHAR parenleft
ENCODING 40
SWIDTH 600 0
DWIDTH 10 0
BBX 5 15 3 -3
BITMAP
0240
0A00
1C00
2400
3000
6000
A000
A000
A000
6000
7000
2400
1C00
0A00
0240
ENDCHAR
STARTCHAR parenright
ENCODING 41
SWIDTH 600 0
DWIDTH 10 0
BBX 5 15 2 -3
BITMAP
9000
7400
1800
0900
0600
0300
0300
0340
0300
0300
0600
0900
1800
7400
9000
ENDCHAR
STARTCHAR asterisk
ENCODING 42
SWIDTH 600 0
DWIDTH 10 0
BBX 7 7 1 2
BITMAP
0240
0240
6658
1BE4
06C0
0C60
2420
ENDCHAR
STARTCHAR plus
ENCODING 43
SWIDTH 600 0
DWIDTH 10 0
BBX 8 7 1 2
BITMAP
0240
0240
0240
BFFD
0240
0240
0240
ENDCHAR
STARTCHAR comma
ENCODING 44
SWIDTH 600 0
DWIDTH 10 0
BBX 4 6 3 -4
BITMAP
78
7D
0D
1C
74
40
ENDCHAR
STARTCHAR hyphen
ENCODING 45
SWIDTH 600 0
DWIDTH 10 0
BBX 8 1 1 5
BITMAP
BFFD
ENDCHAR
STARTCHAR period
ENCODING 46
SWIDTH 600 0
DWIDTH 10 0
BBX 3 3 3 0
BITMAP
78
7C
78
ENDCHAR
STARTCHAR slash
ENCODING 47
SWIDTH 600 0
DWIDTH 10 0
BBX 7 14 1 -3
BITMAP
0018
0024
0030
0060
00D0
01C0
0280
0340
0600
0900
0C00
1800
3400
7000
ENDCHAR
STARTCHAR zero
ENCODING 48
SWIDTH 600 0
DWIDTH 10 0
BBX 8 10 1 0
BITMAP
1BE0
3868
A01C
900D
D389
D389
A00D
601C
3878
1BE0
ENDCHAR
STARTCHAR one
ENCODING 49
SWIDTH 600 0
DWIDTH 10 0
BBX 8 10 1 0
BITMAP
1780
1A80
0280
0280
0280
0280
0280
0280
0280
7FFD
ENDCHAR
STARTCHAR two
ENCODING 50
SWIDTH 600 0
DWIDTH 10 0
BBX 8 10 1 0
BITMAP
2F90
A074
0028
0028
0034
00A0
0280
0A00
2800
BFFD
ENDCHAR
STARTCHAR three
ENCODING 51
SWIDTH 600 0
DWIDTH 10 0
BBX 8 10 1 0
BITMAP
1FE0
6468
001C
0074
0BD0
0078
001C
000D
E068
2FE0
ENDCHAR
STARTCHAR four
ENCODING 52
SWIDTH 600 0
DWIDTH 10 0
BBX 9 10 0 0
BITMAP
002C00
00AC00
018C00
070C00
0D0C00
240C00
7FFF80
000C00
000C00
000C00
ENDCHAR
STARTCHAR five
ENCODING 53
SWIDTH 600 0
DWIDTH 10 0
BBX 8 10 1 0
BITMAP
3FFC
3400
3000
7000
7FE0
002C
000D
000D
E068
6FE0
ENDCHAR
STARTCHAR six
ENCODING 54
SWIDTH 600 0
DWIDTH 10 0
BBX 8 10 1 0
BITMAP
07F8
2918
7000
A000
A7E4
B41D
A009
7009
381C
0BE0
ENDCHAR
STARTCHAR seven
ENCODING 55
SWIDTH 600 0
DWIDTH 10 0
BBX 8 10 1 0
BITMAP
FFFD
0018
0030
00A0
01C0
0280
0340
0340
0700
0700
ENDCHAR
STARTCHAR eight
ENCODING 56
SWIDTH 600 0
DWIDTH 10 0
BBX 8 10 1 0
BITMAP
1BE0
3428
300C
1928
1FF0
74A4
900D
900D
741D
1BE4
ENDCHAR
STARTCHAR nine
ENCODING 57
SWIDTH 600 0
DWIDTH 10 0
BBX 8 10 1 0
BITMAP
1BD0
7478
D01C
D00D
B46D
2F9D
000D
001C
5074
6F90
ENDCHAR
STARTCHAR colon
ENCODING 58
SWIDTH 600 0
DWIDTH 10 0
BBX 3 9 3 0
BITMAP
78
7C
78
00
00
00
78
7C
78
ENDCHAR
STARTCHAR semicolon
ENCODING 59
SWIDTH 600 0
DWIDTH 10 0
BBX 4 13 3 -4
BITMAP
78
7C
78
00
00
00
00
78
7D
0D
1C
74
40
ENDCHAR
STARTCHAR less
ENCODING 60
SWIDTH 600 0
DWIDTH 10 0
BBX 6 9 2 1
BITMAP
0020
01D0
0A00
7400
D000
7400
0A00
01D0
0020
ENDCHAR
STARTCHAR equal
ENCODING 61
SWIDTH 600 0
DWIDTH 10 0
BBX 8 5 1 3
BITMAP
BFFD
0000
0000
0000
BFFD
ENDCHAR
STARTCHAR greater
ENCODING 62
SWIDTH 600 0
DWIDTH 10 0
BBX 7 9 1 1
BITMAP
5000
2800
0740
00A0
0028
00A0
0740
2800
5000
ENDCHAR
STARTCHAR question
ENCODING 63
SWIDTH 600 0
DWIDTH 10 0
BBX 6 11 2 0
BITMAP
6F40
91D0
00A0
00A0
01C0
0740
0D00
0C00
0000
1E00
1E00
ENDCHAR
STARTCHAR at
ENCODING 64
SWIDTH 600 0
DWIDTH 10 0
BBX 9 12 0 -2
BITMAP
02F900
0A0700
180180
340180
302B80
60E580
618180
31C280
34B980
180000
0A4200
01F900
ENDCHAR
STARTCHAR A
ENCODING 65
SWIDTH 600 0
DWIDTH 10 0
BBX 9 10 0 0
BITMAP
00E000
01B000
036400
071800
0A0C00
0D0900
1FFF00
280340
340280
7001C0
ENDCHAR
STARTCHAR B
ENCODING 66
SWIDTH 600 0
DWIDTH 10 0
BBX 8 10 1 0
BITMAP
7FE4
702C
701C
7028
7FE4
701D
700A
700A
701D
7FE4
ENDCHAR
STARTCHAR C
ENCODING 67
SWIDTH 600 0
DWIDTH 10 0
BBX 8 10 1 0
BITMAP
07F8
2D09
7000
A000
D000
D000
A000
7000
2D0A
0BF8
ENDCHAR
STARTCHAR D
ENCODING 68
SWIDTH 600 0
DWIDTH 10 0
BBX 8 10 1 0
BITMAP
BF90
A078
A01D
A00A
A00A
A00A
A00A
A01D
A078
BF90
ENDCHAR
STARTCHAR E
ENCODING 69
SWIDTH 600 0
DWIDTH 10 0
BBX 8 10 1 0
BITMAP
7FFD
7400
7400
7400
7FF8
7400
7400
7400
7400
7FFD
ENDCHAR
STARTCHAR F
ENCODING 70
SWIDTH 600 0
DWIDTH 10 0
BBX 7 10 2 0
BITMAP
FFF8
D000
D000
D000
D000
FFE0
D000
D000
D000
D000
ENDCHAR
STARTCHAR G
ENCODING 71
SWIDTH 600 0
DWIDTH 10 0
BBX 8 10 1 0
BITMAP
0BF8
3918
B000
D000
D000
D0BE
D00A
B00A
381E
0BF8
ENDCHAR
STARTCHAR H
ENCODING 72
SWIDTH 600 0
DWIDTH 10 0
BBX 8 10 1 0
BITMAP
A00D
A00D
A00D
A00D
BFFD
A00D
A00D
A00D
A00D
A00D
ENDCHAR
STARTCHAR I
ENCODING 73
SWIDTH 600 0
DWIDTH 10 0
BBX 7 10 1 0
BITMAP
7FFC
0340
0340
0340
0340
0340
0340
0340
0340
7FFC
ENDCHAR
STARTCHAR J
ENCODING 74
SWIDTH 600 0
DWIDTH 10 0
BBX 7 10 1 0
BITMAP
3FFC
001C
001C
001C
001C
001C
001C
0028
6474
2FD0
ENDCHAR
STARTCHAR K
ENCODING 75
SWIDTH 600 0
DWIDTH 10 0
BBX 8 10 1 0
BITMAP
700D
7038
70A0
7280
7BC0
7CA0
7474
7028
700D
700B
ENDCHAR
STARTCHAR L
ENCODING 76
SWIDTH 600 0
DWIDTH 10 0
BBX 7 10 2 0
BITMAP
D000
D000
D000
D000
D000
D000
D000
D000
D000
FFF8
ENDCHAR
STARTCHAR M
ENCODING 77
SWIDTH 600 0
DWIDTH 10 0
BBX 8 10 1 0
BITMAP
F01D
F42D
E839
DC69
D999
D6C9
D389
D109
D009
D009
ENDCHAR
STARTCHAR N
ENCODING 78
SWIDTH 600 0
DWIDTH 10 0
BBX 8 10 1 0
BITMAP
B00D
B80D
AC0D
AA0D
A34D
A28D
A0DD
A0AD
A03D
A01D
ENDCHAR
STARTCHAR O
ENCODING 79
SWIDTH 600 0
DWIDTH 10 0
BBX 9 10 0 0
BITMAP
06F800
1D0A00
280340
340280
740280
740280
340280
280340
1D0A00
06F800
ENDCHAR
STARTCHAR P
ENCODING 80
SWIDTH 600 0
DWIDTH 10 0
BBX 8 10 1 0
BITMAP
7FE4
701D
700A
700A
701D
7FE4
7000
7000
7000
7000
ENDCHAR
STARTCHAR Q
ENCODING 81
SWIDTH 600 0
DWIDTH 10 0
BBX 9 13 0 -3
BITMAP
06F800
1D0A00
280340
340280
740280
340280
340280
280340
1D0A00
06F800
00A000
003800
001B80
ENDCHAR
STARTCHAR R
ENCODING 82
SWIDTH 600 0
DWIDTH 10 0
BBX 8 10 1 0
BITMAP
7FE4
701D
700D
700D
702C
7FE4
70E0
7074
702C
700E
ENDCHAR
STARTCHAR S
ENCODING 83
SWIDTH 600 0
DWIDTH 10 0
BBX 8 10 1 0
BITMAP
1BE4
3418
7000
7800
1F90
01B8
001D
000A
B41D
2BE4
ENDCHAR
STARTCHAR T
ENCODING 84
SWIDTH 600 0
DWIDTH 10 0
BBX 9 10 0 0
BITMAP
7FFFC0
00D000
00D000
00D000
00D000
00D000
00D000
00D000
00D000
00D000
ENDCHAR
STARTCHAR U
ENCODING 85
SWIDTH 600 0
DWIDTH 10 0
BBX 8 10 1 0
BITMAP
A00D
A00D
A00D
A00D
A00D
A00D
A00D
A01D
7428
1BE0
ENDCHAR
STARTCHAR V
ENCODING 86
SWIDTH 600 0
DWIDTH 10 0
BBX 8 10 1 0
BITMAP
D00A
A00D
701C
3028
2424
1830
0C60
0990
06C0
0380
ENDCHAR
STARTCHAR W
ENCODING 87
SWIDTH 600 0
DWIDTH 10 0
BBX 10 10 0 0
BITMAP
A000D0
B001D0
7051C0
70E1C0
35F280
36B680
276A40
2B1B40
1E0F00
1E0F00
ENDCHAR
STARTCHAR X
ENCODING 88
SWIDTH 600 0
DWIDTH 10 0
BBX 8 10 1 0
BITMAP
A01D
3428
1C70
0A90
0780
07C0
0DA0
2874
7028
A00D
ENDCHAR
STARTCHAR Y
ENCODING 89
SWIDTH 600 0
DWIDTH 10 0
BBX 8 10 1 0
BITMAP
D00A
A00D
3428
1C70
0DA0
07C0
0380
0340
0340
0340
ENDCHAR
STARTCHAR Z
ENCODING 90
SWIDTH 600 0
DWIDTH 10 0
BBX 8 10 1 0
BITMAP
7FFE
001C
0074
00A0
0280
0740
0D00
2800
7000
FFFE
ENDCHAR
STARTCHAR bracketleft
ENCODING 91
SWIDTH 600 0
DWIDTH 10 0
BBX 5 14 3 -3
BITMAP
7FC0
6000
6000
6000
6000
6000
6000
6000
6000
6000
6000
6000
6000
7FC0
ENDCHAR
STARTCHAR backslash
ENCODING 92
SWIDTH 600 0
DWIDTH 10 0
BBX 7 14 1 -3
BITMAP
7000
3400
1800
0C00
0900
0600
0340
0280
01C0
00D0
0060
0030
0024
0018
ENDCHAR
STARTCHAR bracketright
ENCODING 93
SWIDTH 600 0
DWIDTH 10 0
BBX 5 14 1 -3
BITMAP
7FC0
00C0
00C0
00C0
00C0
00C0
00C0
00C0
00C0
00C0
00C0
00C0
00C0
7FC0
ENDCHAR
STARTCHAR asciicircum
ENCODING 94
SWIDTH 600 0
DWIDTH 10 0
BBX 6 6 2 4
BITMAP
0E00
1B00
2640
7180
A0D0
C0A0
ENDCHAR
STARTCHAR underscore
ENCODING 95
SWIDTH 600 0
DWIDTH 10 0
BBX 8 1 1 -2
BITMAP
FFFE
ENDCHAR
STARTCHAR grave
ENCODING 96
SWIDTH 600 0
DWIDTH 10 0
BBX 3 3 3 9
BITMAP
80
B0
18
ENDCHAR
STARTCHAR a
ENCODING 97
SWIDTH 600 0
DWIDTH 10 0
BBX 8 8 1 0
BITMAP
1BE0
2428
001C
06FD
790D
A00D
B06D
2F8D
ENDCHAR
STARTCHAR b
ENCODING 98
SWIDTH 600 0
DWIDTH 10 0
BBX 8 11 1 0
BITMAP
A000
A000
A000
A7E4
B82C
A00D
A00A
A00A
A00D
B428
A7E0
ENDCHAR
STARTCHAR c
ENCODING 99
SWIDTH 600 0
DWIDTH 10 0
BBX 8 8 1 0
BITMAP
07F8
2918
7000
A000
A000
7000
2909
0BF8
ENDCHAR
STARTCHAR d
ENCODING 100
SWIDTH 600 0
DWIDTH 10 0
BBX 7 11 1 0
BITMAP
001C
001C
001C
1B9C
746C
A01C
D01C
D01C
A01C
746C
1F8C
ENDCHAR
STARTCHAR e
ENCODING 101
SWIDTH 600 0
DWIDTH 10 0
BBX 8 8 1 0
BITMAP
0BE4
341C
A009
FFFE
E000
B000
3918
0BE8
ENDCHAR
STARTCHAR f
ENCODING 102
SWIDTH 600 0
DWIDTH 10 0
BBX 8 11 1 0
BITMAP
01BE
0381
0340
7FFD
0340
0340
0340
0340
0340
0340
0340
ENDCHAR
STARTCHAR g
ENCODING 103
SWIDTH 600 0
DWIDTH 10 0
BBX 8 11 1 -3
BITMAP
1BFF
3474
7028
7434
2EE0
7100
7000
3FFD
A007
A01A
2FE4
ENDCHAR
STARTCHAR h
ENCODING 104
SWIDTH 600 0
DWIDTH 10 0
BBX 8 11 1 0
BITMAP
A000
A000
A000
A2F4
B92C
B00D
A00D
A00D
A00D
A00D
A00D
ENDCHAR
STARTCHAR i
ENCODING 105
SWIDTH 600 0
DWIDTH 10 0
BBX 6 11 1 0
BITMAP
01D0
01D0
0000
BFD0
00D0
00D0
00D0
00D0
00D0
00D0
00D0
ENDCHAR
STARTCHAR j
ENCODING 106
SWIDTH 600 0
DWIDTH 10 0
BBX 6 14 1 -3
BITMAP
01D0
01D0
0000
BFD0
00D0
00D0
00D0
00D0
00D0
00D0
00D0
00D0
42C0
BE40
ENDCHAR
STARTCHAR k
ENCODING 107
SWIDTH 600 0
DWIDTH 10 0
BBX 8 11 1 0
BITMAP
7000
7000
7000
701D
7074
70E0
73C0
7ED0
7874
701C
700A
ENDCHAR
STARTCHAR l
ENCODING 108
SWIDTH 600 0
DWIDTH 10 0
BBX 8 11 1 0
BITMAP
BF40
0340
0340
0340
0340
0340
0340
0340
0340
0280
01BD
ENDCHAR
STARTCHAR m
ENCODING 109
SWIDTH 600 0
DWIDTH 10 0
BBX 8 8 1 0
BITMAP
DE6D
E3CA
D287
D287
D287
D287
D287
D287
ENDCHAR
STARTCHAR n
ENCODING 110
SWIDTH 600 0
DWIDTH 10 0
BBX 8 8 1 0
BITMAP
A2F4
B92C
B00D
A00D
A00D
A00D
A00D
A00D
ENDCHAR
STARTCHAR o
ENCODING 111
SWIDTH 600 0
DWIDTH 10 0
BBX 8 8 1 0
BITMAP
1BE0
7428
A00D
D00A
D00A
A00D
7428
1BE0
ENDCHAR
STARTCHAR p
ENCODING 112
SWIDTH 600 0
DWIDTH 10 0
BBX 8 11 1 -3
BITMAP
A7E4
B82C
A00D
A00A
A00A
A00D
B428
A7E0
A000
A000
A000
ENDCHAR
STARTCHAR q
ENCODING 113
SWIDTH 600 0
DWIDTH 10 0
BBX 7 11 1 -3
BITMAP
1B9C
746C
A01C
D01C
D01C
A01C
746C
1F9C
001C
001C
001C
ENDCHAR
STARTCHAR r
ENCODING 114
SWIDTH 600 0
DWIDTH 10 0
BBX 7 8 2 0
BITMAP
92F4
A900
B000
A000
A000
A000
A000
A000
ENDCHAR
STARTCHAR s
ENCODING 115
SWIDTH 600 0
DWIDTH 10 0
BBX 8 8 1 0
BITMAP
1BE4
7414
7400
2E90
01B8
000D
A41D
1BE4
ENDCHAR
STARTCHAR t
ENCODING 116
SWIDTH 600 0
DWIDTH 10 0
BBX 8 11 1 0
BITMAP
0A00
0A00
0A00
FFFD
0A00
0A00
0A00
0A00
0A00
0740
02FD
ENDCHAR
STARTCHAR u
ENCODING 117
SWIDTH 600 0
DWIDTH 10 0
BBX 7 8 1 0
BITMAP
A01C
A01C
A01C
A01C
A01C
A01C
746C
2F8C
ENDCHAR
STARTCHAR v
ENCODING 118
SWIDTH 600 0
DWIDTH 10 0
BBX 8 8 1 0
BITMAP
D00A
A00D
3018
2834
1C70
0DA0
0AC0
0380
ENDCHAR
STARTCHAR w
ENCODING 119
SWIDTH 600 0
DWIDTH 10 0
BBX 10 8 0 0
BITMAP
A050D0
A0E0C0
71B1C0
32B580
366680
2B1A40
1B1F00
1E0F00
ENDCHAR
STARTCHAR x
ENCODING 120
SWIDTH 600 0
DWIDTH 10 0
BBX 8 8 1 0
BITMAP
701C
2834
0DA0
07C0
07C0
1DA0
3434
A01D
ENDCHAR
STARTCHAR y
ENCODING 121
SWIDTH 600 0
DWIDTH 10 0
BBX 8 11 1 -3
BITMAP
D00A
600D
3418
2824
0C70
0AA0
03C0
0280
0340
0A00
B800
ENDCHAR
STARTCHAR z
ENCODING 122
SWIDTH 600 0
DWIDTH 10 0
BBX 8 8 1 0
BITMAP
7FFD
0038
00A0
02C0
0700
1D00
7400
BFFE
ENDCHAR
STARTCHAR braceleft
ENCODING 123
SWIDTH 600 0
DWIDTH 10 0
BBX 6 14 2 -3
BITMAP
06F0
0A00
0D00
0D00
0900
1D00
F400
1C00
0900
0900
0D00
0D00
0A00
06F0
ENDCHAR
STARTCHAR bar
ENCODING 124
SWIDTH 600 0
DWIDTH 10 0
BBX 2 16 4 -4
BITMAP
90
90
90
90
90
90
90
90
90
90
90
90
90
90
90
90
ENDCHAR
STARTCHAR braceright
ENCODING 125
SWIDTH 600 0
DWIDTH 10 0
BBX 7 14 1 -3
BITMAP
7E00
0340
0240
0240
0240
0280
00B8
0280
0240
0240
0240
0240
0340
7E00
ENDCHAR
STARTCHAR asciitilde
ENCODING 126
SWIDTH 600 0
DWIDTH 10 0
BBX 7 2 1 4
BITMAP
2E48
91F4
ENDCHAR
STARTCHAR uni00A0
ENCODING 160
SWIDTH 600 0
DWIDTH 10 0
BBX 1 1 0 0
BITMAP
00
ENDCHAR
STARTCHAR exclamdown
ENCODING 161
SWIDTH 600 0
DWIDTH 10 0
BBX 3 11 3 -3
BITMAP
78
78
00
24
24
24
24
24
24
24
34
ENDCHAR
STARTCHAR cent
ENCODING 162
SWIDTH 600 0
DWIDTH 10 0
BBX 6 12 2 -1
BITMAP
0200
0200
1BD0
7650
D200
C200
C200
D200
7650
1FD0
0200
0200
ENDCHAR
STARTCHAR sterling
ENCODING 163
SWIDTH 600 0
DWIDTH 10 0
BBX 8 10 1 0
BITMAP
07F8
1D18
2800
1C00
BFF0
0900
0900
0C00
2800
BFFE
ENDCHAR
STARTCHAR currency
ENCODING 164
SWIDTH 600 0
DWIDTH 10 0
BBX 8 8 1 1
BITMAP
8005
7BEC
3878
7018
7018
3878
7BEC
8005
ENDCHAR
STARTCHAR yen
ENCODING 165
SWIDTH 600 0
DWIDTH 10 0
BBX 8 10 1 0
BITMAP
D009
7018
2834
0CA0
0AD0
BFFD
0340
BFFD
0340
0340
ENDCHAR
STARTCHAR brokenbar
ENCODING 166
SWIDTH 600 0
DWIDTH 10 0
BBX 2 16 4 -4
BITMAP
90
90
90
90
90
90
90
00
00
90
90
90
90
90
90
90
ENDCHAR
STARTCHAR section
ENCODING 167
SWIDTH 600 0
DWIDTH 10 0
BBX 7 12 1 -1
BITMAP
0BE0
1820
2800
1F40
75F4
A02C
740C
1E68
01F0
0070
2470
1FD0
ENDCHAR
STARTCHAR dieresis
ENCODING 168
SWIDTH 600 0
DWIDTH 10 0
BBX 5 2 2 9
BITMAP
71C0
71C0
ENDCHAR
STARTCHAR copyright
ENCODING 169
SWIDTH 600 0
DWIDTH 10 0
BBX 9 10 0 0
BITMAP
06F800
1D0700
305180
53A480
5A0080
5A0080
57A480
305180
1D0700
06F800
ENDCHAR
STARTCHAR ordfeminine
ENCODING 170
SWIDTH 600 0
DWIDTH 10 0
BBX 5 5 2 6
BITMAP
2F80
2BC0
74C0
61C0
2E80
ENDCHAR
STARTCHAR guillemotleft
ENCODING 171
SWIDTH 600 0
DWIDTH 10 0
BBX 7 6 1 1
BITMAP
0808
2874
A0D0
A0D0
2874
0808
ENDCHAR
STARTCHAR logicalnot
ENCODING 172
SWIDTH 600 0
DWIDTH 10 0
BBX 8 4 1 2
BITMAP
BFFD
0009
0009
0009
ENDCHAR
STARTCHAR uni00AD
ENCODING 173
SWIDTH 600 0
DWIDTH 10 0
BBX 8 1 1 5
BITMAP
BFFD
ENDCHAR
STARTCHAR registered
ENCODING 174
SWIDTH 600 0
DWIDTH 10 0
BBX 6 7 2 5
BITMAP
2F40
9090
9620
5E20
9620
9090
2F40
ENDCHAR
STARTCHAR macron
ENCODING 175
SWIDTH 600 0
DWIDTH 10 0
BBX 5 1 2 10
BITMAP
7FC0
ENDCHAR
STARTCHAR degree
ENCODING 176
SWIDTH 600 0
DWIDTH 10 0
BBX 4 4 3 7
BITMAP
79
86
86
79
ENDCHAR
STARTCHAR plusminus
ENCODING 177
SWIDTH 600 0
DWIDTH 10 0
BBX 8 9 1 0
BITMAP
0240
0240
0240
BFFD
0240
0240
0240
0000
BFFD
ENDCHAR
STARTCHAR two.sups
ENCODING 178
SWIDTH 600 0
DWIDTH 10 0
BBX 5 7 2 6
BITMAP
2E00
5280
0180
0240
0A00
2800
7FC0
ENDCHAR
STARTCHAR three.sups
ENCODING 179
SWIDTH 600 0
DWIDTH 10 0
BBX 5 7 2 6
BITMAP
2F40
5180
0180
0F40
01C0
51C0
2F40
ENDCHAR
STARTCHAR acute
ENCODING 180
SWIDTH 600 0
DWIDTH 10 0
BBX 3 3 4 9
BITMAP
18
74
80
ENDCHAR
STARTCHAR uni00B5
ENCODING 181
SWIDTH 600 0
DWIDTH 10 0
BBX 8 11 1 -3
BITMAP
A01C
A01C
A01C
A01C
A01C
A01C
B46C
AF8E
A000
A000
A000
ENDCHAR
STARTCHAR paragraph
ENCODING 182
SWIDTH 600 0
DWIDTH 10 0
BBX 7 12 1 -2
BITMAP
1BA8
7FA8
BFA8
BFA8
BFA8
7FA8
1AA8
0028
0028
0028
0028
0028
ENDCHAR
STARTCHAR periodcentered
ENCODING 183
SWIDTH 600 0
DWIDTH 10 0
BBX 3 3 3 4
BITMAP
78
7C
78
ENDCHAR
STARTCHAR cedilla
ENCODING 184
SWIDTH 600 0
DWIDTH 10 0
BBX 3 5 3 -5
BITMAP
20
38
1C
1C
A4
ENDCHAR
STARTCHAR one.sups
ENCODING 185
SWIDTH 600 0
DWIDTH 10 0
BBX 6 6 2 6
BITMAP
2A00
0600
0600
0600
0600
7FE0
ENDCHAR
STARTCHAR ordmasculine
ENCODING 186
SWIDTH 600 0
DWIDTH 10 0
BBX 6 5 2 6
BITMAP
2F40
61C0
9090
61C0
2F40
ENDCHAR
STARTCHAR guillemotright
ENCODING 187
SWIDTH 600 0
DWIDTH 10 0
BBX 8 6 1 1
BITMAP
6090
2834
0A1D
0A1D
2834
6090
ENDCHAR
STARTCHAR onequarter
ENCODING 188
SWIDTH 600 0
DWIDTH 10 0
BBX 10 10 0 0
BITMAP
2D0080
090240
090900
090400
090000
010900
091940
242640
603FD0
000240
ENDCHAR
STARTCHAR onehalf
ENCODING 189
SWIDTH 600 0
DWIDTH 10 0
BBX 9 10 0 0
BITMAP
2D0080
090240
090900
090400
090000
011F40
091180
240240
600900
002FC0
ENDCHAR
STARTCHAR threequarters
ENCODING 190
SWIDTH 600 0
DWIDTH 10 0
BBX 10 10 0 0
BITMAP
2E0090
130180
0E0600
524400
2E0000
010900
061940
182640
203FD0
000240
ENDCHAR
STARTCHAR questiondown
ENCODING 191
SWIDTH 600 0
DWIDTH 10 0
BBX 6 11 2 -3
BITMAP
0F00
0F00
0000
0600
0A00
2C00
7000
D000
D000
A090
2F80
ENDCHAR
STARTCHAR Agrave
ENCODING 192
SWIDTH 600 0
DWIDTH 10 0
BBX 9 14 0 0
BITMAP
020000
02C000
006000
000000
00E000
01B000
036400
071800
0A0C00
0D0900
1FFF00
280340
340280
7001C0
ENDCHAR
STARTCHAR Aacute
ENCODING 193
SWIDTH 600 0
DWIDTH 10 0
BBX 9 14 0 0
BITMAP
001400
007400
008000
000000
00E000
01B000
036400
071800
0A0C00
0D0900
1FFF00
280340
340280
7001C0
ENDCHAR
STARTCHAR Acircumflex
ENCODING 194
SWIDTH 600 0
DWIDTH 10 0
BBX 9 13 0 0
BITMAP
01F000
061800
000000
00E000
01B000
036400
071800
0A0C00
0D0900
1FFF00
280340
340280
7001C0
ENDCHAR
STARTCHAR Atilde
ENCODING 195
SWIDTH 600 0
DWIDTH 10 0
BBX 9 13 0 0
BITMAP
079500
087C00
000000
00E000
01B000
036400
071800
0A0C00
0D0900
1FFF00
280340
340280
7001C0
ENDCHAR
STARTCHAR Adieresis
ENCODING 196
SWIDTH 600 0
DWIDTH 10 0
BBX 9 13 0 0
BITMAP
071C00
071C00
000000
00E000
01B000
036400
071800
0A0C00
0D0900
1FFF00
280340
340280
7001C0
ENDCHAR
STARTCHAR Aring
ENCODING 197
SWIDTH 600 0
DWIDTH 10 0
BBX 9 15 0 0
BITMAP
01E000
026400
026400
01E000
000000
00E000
01B000
036400
071800
0A0C00
0D0900
1FFF00
280340
340280
7001C0
ENDCHAR
STARTCHAR AE
ENCODING 198
SWIDTH 600 0
DWIDTH 10 0
BBX 10 10 0 0
BITMAP
00FFD0
01B400
037400
073400
0A3F80
0C3400
2FF400
343400
703400
A03FD0
ENDCHAR
STARTCHAR Ccedilla
ENCODING 199
SWIDTH 600 0
DWIDTH 10 0
BBX 8 15 1 -5
BITMAP
07F8
2D09
7000
A000
D000
D000
A000
7000
2D0A
0BF8
0080
01D0
0060
00A0
0280
ENDCHAR
STARTCHAR Egrave
ENCODING 200
SWIDTH 600 0
DWIDTH 10 0
BBX 8 14 1 0
BITMAP
0600
0780
0080
0000
7FFD
7400
7400
7400
7FF8
7400
7400
7400
7400
7FFD
ENDCHAR
STARTCHAR Eacute
ENCODING 201
SWIDTH 600 0
DWIDTH 10 0
BBX 8 14 1 0
BITMAP
0020
00E0
0140
0000
7FFD
7400
7400
7400
7FF8
7400
7400
7400
7400
7FFD
ENDCHAR
STARTCHAR Ecircumflex
ENCODING 202
SWIDTH 600 0
DWIDTH 10 0
BBX 8 13 1 0
BITMAP
02E0
0924
0000
7FFD
7400
7400
7400
7FF8
7400
7400
7400
7400
7FFD
ENDCHAR
STARTCHAR Edieresis
ENCODING 203
SWIDTH 600 0
DWIDTH 10 0
BBX 8 13 1 0
BITMAP
0934
0934
0000
7FFD
7400
7400
7400
7FF8
7400
7400
7400
7400
7FFD
ENDCHAR
STARTCHAR Igrave
ENCODING 204
SWIDTH 600 0
DWIDTH 10 0
BBX 7 14 1 0
BITMAP
0800
0B00
0180
0000
7FFC
0340
0340
0340
0340
0340
0340
0340
0340
7FFC
ENDCHAR
STARTCHAR Iacute
ENCODING 205
SWIDTH 600 0
DWIDTH 10 0
BBX 7 14 1 0
BITMAP
0050
01D0
0200
0000
7FFC
0340
0340
0340
0340
0340
0340
0340
0340
7FFC
ENDCHAR
STARTCHAR Icircumflex
ENCODING 206
SWIDTH 600 0
DWIDTH 10 0
BBX 7 13 1 0
BITMAP
07C0
1860
0000
7FFC
0340
0340
0340
0340
0340
0340
0340
0340
7FFC
ENDCHAR
STARTCHAR Idieresis
ENCODING 207
SWIDTH 600 0
DWIDTH 10 0
BBX 7 13 1 0
BITMAP
1C70
1C70
0000
7FFC
0340
0340
0340
0340
0340
0340
0340
0340
7FFC
ENDCHAR
STARTCHAR Eth
ENCODING 208
SWIDTH 600 0
DWIDTH 10 0
BBX 9 10 0 0
BITMAP
2FE400
281E00
280740
280280
BFC280
280280
280280
280740
281E00
2FE400
ENDCHAR
STARTCHAR Ntilde
ENCODING 209
SWIDTH 600 0
DWIDTH 10 0
BBX 8 13 1 0
BITMAP
1E58
25F4
0000
B00D
B80D
AC0D
AA0D
A34D
A28D
A0DD
A0AD
A03D
A01D
ENDCHAR
STARTCHAR Ograve
ENCODING 210
SWIDTH 600 0
DWIDTH 10 0
BBX 9 14 0 0
BITMAP
020000
02C000
006000
000000
06F800
1D0A00
280340
340280
740280
740280
340280
280340
1D0A00
06F800
ENDCHAR
STARTCHAR Oacute
ENCODING 211
SWIDTH 600 0
DWIDTH 10 0
BBX 9 14 0 0
BITMAP
001400
007400
008000
000000
06F800
1D0A00
280340
340280
740280
740280
340280
280340
1D0A00
06F800
ENDCHAR
STARTCHAR Ocircumflex
ENCODING 212
SWIDTH 600 0
DWIDTH 10 0
BBX 9 13 0 0
BITMAP
01F000
061800
000000
06F800
1D0A00
280340
340280
740280
740280
340280
280340
1D0A00
06F800
ENDCHAR
STARTCHAR Otilde
ENCODING 213
SWIDTH 600 0
DWIDTH 10 0
BBX 9 13 0 0
BITMAP
079500
087C00
000000
06F800
1D0A00
280340
340280
740280
740280
340280
280340
1D0A00
06F800
ENDCHAR
STARTCHAR Odieresis
ENCODING 214
SWIDTH 600 0
DWIDTH 10 0
BBX 9 13 0 0
BITMAP
071C00
071C00
000000
06F800
1D0A00
280340
340280
740280
740280
340280
280340
1D0A00
06F800
ENDCHAR
STARTCHAR multiply
ENCODING 215
SWIDTH 600 0
DWIDTH 10 0
BBX 6 7 2 2
BITMAP
4060
A0D0
3B40
0E00
2B40
A0D0
8060
ENDCHAR
STARTCHAR Oslash
ENCODING 216
SWIDTH 600 0
DWIDTH 10 0
BBX 9 10 0 0
BITMAP
06FA80
1D1B00
280F40
342A80
74A280
75C280
374280
2E0340
2E0A00
76F800
ENDCHAR
STARTCHAR Ugrave
ENCODING 217
SWIDTH 600 0
DWIDTH 10 0
BBX 8 14 1 0
BITMAP
0800
0B00
0180
0000
A00D
A00D
A00D
A00D
A00D
A00D
A00D
A01D
7428
1BE0
ENDCHAR
STARTCHAR Uacute
ENCODING 218
SWIDTH 600 0
DWIDTH 10 0
BBX 8 14 1 0
BITMAP
0050
01D0
0200
0000
A00D
A00D
A00D
A00D
A00D
A00D
A00D
A01D
7428
1BE0
ENDCHAR
STARTCHAR Ucircumflex
ENCODING 219
SWIDTH 600 0
DWIDTH 10 0
BBX 8 13 1 0
BITMAP
07C0
1860
0000
A00D
A00D
A00D
A00D
A00D
A00D
A00D
A01D
7428
1BE0
ENDCHAR
STARTCHAR Udieresis
ENCODING 220
SWIDTH 600 0
DWIDTH 10 0
BBX 8 13 1 0
BITMAP
1C70
1C70
0000
A00D
A00D
A00D
A00D
A00D
A00D
A00D
A01D
7428
1BE0
ENDCHAR
STARTCHAR Yacute
ENCODING 221
SWIDTH 600 0
DWIDTH 10 0
BBX 8 14 1 0
BITMAP
0050
01D0
0200
0000
D00A
A00D
3428
1C70
0DA0
07C0
0380
0340
0340
0340
ENDCHAR
STARTCHAR Thorn
ENCODING 222
SWIDTH 600 0
DWIDTH 10 0
BBX 8 10 1 0
BITMAP
7000
7FE4
701D
700A
700A
700A
702C
7FE4
7000
7000
ENDCHAR
STARTCHAR germandbls
ENCODING 223
SWIDTH 600 0
DWIDTH 10 0
BBX 8 11 1 0
BITMAP
1BD0
7470
7030
A0A0
A1C0
A1C0
A0E4
A01E
A007
A14B
A1F9
ENDCHAR
STARTCHAR agrave
ENCODING 224
SWIDTH 600 0
DWIDTH 10 0
BBX 8 12 1 0
BITMAP
0900
0740
0180
0000
1BE0
2428
001C
06FD
790D
A00D
B06D
2F8D
ENDCHAR
STARTCHAR aacute
ENCODING 225
SWIDTH 600 0
DWIDTH 10 0
BBX 8 12 1 0
BITMAP
0060
00D0
0240
0000
1BE0
2428
001C
06FD
790D
A00D
B06D
2F8D
ENDCHAR
STARTCHAR acircumflex
ENCODING 226
SWIDTH 600 0
DWIDTH 10 0
BBX 8 12 1 0
BITMAP
03D0
0A70
0814
0000
1BE0
2428
001C
06FD
790D
A00D
B06D
2F8D
ENDCHAR
STARTCHAR atilde
ENCODING 227
SWIDTH 600 0
DWIDTH 10 0
BBX 8 12 1 0
BITMAP
0504
1F58
24B4
0000
1BE0
2428
001C
06FD
790D
A00D
B06D
2F8D
ENDCHAR
STARTCHAR adieresis
ENCODING 228
SWIDTH 600 0
DWIDTH 10 0
BBX 8 11 1 0
BITMAP
0D34
0D34
0000
1BE0
2428
001C
06FD
790D
A00D
B06D
2F8D
ENDCHAR
STARTCHAR aring
ENCODING 229
SWIDTH 600 0
DWIDTH 10 0
BBX 8 13 1 0
BITMAP
03D0
0960
0960
03D0
0000
1BE0
2428
001C
06FD
790D
A00D
B06D
2F8D
ENDCHAR
STARTCHAR ae
ENCODING 230
SWIDTH 600 0
DWIDTH 10 0
BBX 10 8 0 0
BITMAP
2F5F40
11E0D0
009090
1BFFE0
789000
A0A000
A1B440
2E1F80
ENDCHAR
STARTCHAR ccedilla
ENCODING 231
SWIDTH 600 0
DWIDTH 10 0
BBX 8 13 1 -5
BITMAP
07F8
2918
7000
A000
A000
7000
2909
0BF8
0080
01D0
00A0
00A0
0380
ENDCHAR
STARTCHAR egrave
ENCODING 232
SWIDTH 600 0
DWIDTH 10 0
BBX 8 12 1 0
BITMAP
0900
0740
0180
0000
0BE4
341C
A009
FFFE
E000
B000
3918
0BE8
ENDCHAR
STARTCHAR eacute
ENCODING 233
SWIDTH 600 0
DWIDTH 10 0
BBX 8 12 1 0
BITMAP
0060
01D0
0240
0000
0BE4
341C
A009
FFFE
E000
B000
3918
0BE8
ENDCHAR
STARTCHAR ecircumflex
ENCODING 234
SWIDTH 600 0
DWIDTH 10 0
BBX 8 12 1 0
BITMAP
03C0
0A60
1824
0000
0BE4
341C
A009
FFFE
E000
B000
3918
0BE8
ENDCHAR
STARTCHAR edieresis
ENCODING 235
SWIDTH 600 0
DWIDTH 10 0
BBX 8 11 1 0
BITMAP
1D34
1D34
0000
0BE4
341C
A009
FFFE
E000
B000
3918
0BE8
ENDCHAR
STARTCHAR igrave
ENCODING 236
SWIDTH 600 0
DWIDTH 10 0
BBX 6 12 1 0
BITMAP
0600
0280
0090
0000
BFD0
00D0
00D0
00D0
00D0
00D0
00D0
00D0
ENDCHAR
STARTCHAR iacute
ENCODING 237
SWIDTH 600 0
DWIDTH 10 0
BBX 7 12 1 0
BITMAP
0024
00A0
0180
0000
BFD0
00D0
00D0
00D0
00D0
00D0
00D0
00D0
ENDCHAR
STARTCHAR icircumflex
ENCODING 238
SWIDTH 600 0
DWIDTH 10 0
BBX 7 12 1 0
BITMAP
01E0
0774
0908
0000
BFD0
00D0
00D0
00D0
00D0
00D0
00D0
00D0
ENDCHAR
STARTCHAR idieresis
ENCODING 239
SWIDTH 600 0
DWIDTH 10 0
BBX 7 11 1 0
BITMAP
0A28
0A28
0000
BFD0
00D0
00D0
00D0
00D0
00D0
00D0
00D0
ENDCHAR
STARTCHAR eth
ENCODING 240
SWIDTH 600 0
DWIDTH 10 0
BBX 8 11 1 0
BITMAP
0918
07E4
1AB0
0428
1B9C
742D
D00A
D00A
D00D
7428
1BE0
ENDCHAR
STARTCHAR ntilde
ENCODING 241
SWIDTH 600 0
DWIDTH 10 0
BBX 8 12 1 0
BITMAP
0504
1B58
24B4
0000
A2F4
B92C
B00D
A00D
A00D
A00D
A00D
A00D
ENDCHAR
STARTCHAR ograve
ENCODING 242
SWIDTH 600 0
DWIDTH 10 0
BBX 8 12 1 0
BITMAP
0800
0B00
0180
0000
1BE0
7428
A00D
D00A
D00A
A00D
7428
1BE0
ENDCHAR
STARTCHAR oacute
ENCODING 243
SWIDTH 600 0
DWIDTH 10 0
BBX 8 12 1 0
BITMAP
0060
01D0
0200
0000
1BE0
7428
A00D
D00A
D00A
A00D
7428
1BE0
ENDCHAR
STARTCHAR ocircumflex
ENCODING 244
SWIDTH 600 0
DWIDTH 10 0
BBX 8 12 1 0
BITMAP
0780
0DA0
1420
0000
1BE0
7428
A00D
D00A
D00A
A00D
7428
1BE0
ENDCHAR
STARTCHAR otilde
ENCODING 245
SWIDTH 600 0
DWIDTH 10 0
BBX 8 12 1 0
BITMAP
0400
2B64
21E0
0000
1BE0
7428
A00D
D00A
D00A
A00D
7428
1BE0
ENDCHAR
STARTCHAR odieresis
ENCODING 246
SWIDTH 600 0
DWIDTH 10 0
BBX 8 11 1 0
BITMAP
1C70
1C70
0000
1BE0
7428
A00D
D00A
D00A
A00D
7428
1BE0
ENDCHAR
STARTCHAR divide
ENCODING 247
SWIDTH 600 0
DWIDTH 10 0
BBX 8 9 1 1
BITMAP
0340
0240
0000
0000
BFFD
0000
0000
0340
0240
ENDCHAR
STARTCHAR oslash
ENCODING 248
SWIDTH 600 0
DWIDTH 10 0
BBX 8 8 1 0
BITMAP
1BE9
743C
A0AD
D1CA
D70A
AD0D
7828
ABE0
ENDCHAR
STARTCHAR ugrave
ENCODING 249
SWIDTH 600 0
DWIDTH 10 0
BBX 7 12 1 0
BITMAP
0800
0A00
0140
0000
A01C
A01C
A01C
A01C
A01C
A01C
746C
2F8C
ENDCHAR
STARTCHAR uacute
ENCODING 250
SWIDTH 600 0
DWIDTH 10 0
BBX 7 12 1 0
BITMAP
0060
01D0
0200
0000
A01C
A01C
A01C
A01C
A01C
A01C
746C
2F8C
ENDCHAR
STARTCHAR ucircumflex
ENCODING 251
SWIDTH 600 0
DWIDTH 10 0
BBX 7 12 1 0
BITMAP
0780
0DA0
2420
0000
A01C
A01C
A01C
A01C
A01C
A01C
746C
2F8C
ENDCHAR
STARTCHAR udieresis
ENCODING 252
SWIDTH 600 0
DWIDTH 10 0
BBX 7 11 1 0
BITMAP
1870
1870
0000
A01C
A01C
A01C
A01C
A01C
A01C
746C
2F8C
ENDCHAR
STARTCHAR yacute
ENCODING 253
SWIDTH 600 0
DWIDTH 10 0
BBX 8 15 1 -3
BITMAP
0060
01D0
0240
0000
D00A
600D
3418
2824
0C70
0AA0
03C0
0280
0340
0A00
B800
ENDCHAR
STARTCHAR thorn
ENCODING 254
SWIDTH 600 0
DWIDTH 10 0
BBX 8 14 1 -3
BITMAP
A000
A000
A000
A7E4
B82C
A00D
A00A
A00A
A00D
B428
A7E0
A000
A000
A000
ENDCHAR
STARTCHAR ydieresis
ENCODING 255
SWIDTH 600 0
DWIDTH 10 0
BBX 8 14 1 -3
BITMAP
1C70
1C70
0000
D00A
600D
3418
2824
0C70
0AA0
03C0
0280
0340
0A00
B800
ENDCHAR
STARTCHAR Amacron
ENCODING 256
SWIDTH 600 0
DWIDTH 10 0
BBX 9 13 0 0
BITMAP
07FC00
000000
000000
00E000
01B000
036400
071800
0A0C00
0D0900
1FFF00
280340
340280
7001C0
ENDCHAR
STARTCHAR amacron
ENCODING 257
SWIDTH 600 0
DWIDTH 10 0
BBX 8 11 1 0
BITMAP
0FF4
0000
0000
1BE0
2428
001C
06FD
790D
A00D
B06D
2F8D
ENDCHAR
STARTCHAR Abreve
ENCODING 258
SWIDTH 600 0
DWIDTH 10 0
BBX 9 13 0 0
BITMAP
060800
02F400
000000
00E000
01B000
036400
071800
0A0C00
0D0900
1FFF00
280340
340280
7001C0
ENDCHAR
STARTCHAR abreve
ENCODING 259
SWIDTH 600 0
DWIDTH 10 0
BBX 8 12 1 0
BITMAP
1818
0D34
07D0
0000
1BE0
2428
001C
06FD
790D
A00D
B06D
2F8D
ENDCHAR
STARTCHAR Aogonek
ENCODING 260
SWIDTH 600 0
DWIDTH 10 0
BBX 10 14 0 -4
BITMAP
00E000
01B000
036400
071800
0A0C00
0D0900
1FFF00
280340
340280
7001C0
000240
000600
000600
0002D0
ENDCHAR
STARTCHAR aogonek
ENCODING 261
SWIDTH 600 0
DWIDTH 10 0
BBX 8 12 1 -4
BITMAP
1BE0
2428
001C
06FD
790D
A00D
B06D
2F9D
0014
0020
0060
002D
ENDCHAR
STARTCHAR Cacute
ENCODING 262
SWIDTH 600 0
DWIDTH 10 0
BBX 8 14 1 0
BITMAP
0024
00A0
0180
0000
07F8
2D09
7000
A000
D000
D000
A000
7000
2D0A
0BF8
ENDCHAR
STARTCHAR cacute
ENCODING 263
SWIDTH 600 0
DWIDTH 10 0
BBX 8 12 1 0
BITMAP
0024
00A0
0180
0000
07F8
2918
7000
A000
A000
7000
2909
0BF8
ENDCHAR
STARTCHAR Ccircumflex
ENCODING 264
SWIDTH 600 0
DWIDTH 10 0
BBX 8 13 1 0
BITMAP
02A0
0518
0000
07F8
2D09
7000
A000
D000
D000
A000
7000
2D0A
0BF8
ENDCHAR
STARTCHAR ccircumflex
ENCODING 265
SWIDTH 600 0
DWIDTH 10 0
BBX 8 12 1 0
BITMAP
02E0
0774
0908
0000
07F8
2918
7000
A000
A000
7000
2909
0BF8
ENDCHAR
STARTCHAR Cdotaccent
ENCODING 266
SWIDTH 600 0
DWIDTH 10 0
BBX 8 13 1 0
BITMAP
01D0
01D0
0000
07F8
2D09
7000
A000
D000
D000
A000
7000
2D0A
0BF8
ENDCHAR
STARTCHAR cdotaccent
ENCODING 267
SWIDTH 600 0
DWIDTH 10 0
BBX 8 11 1 0
BITMAP
01D0
01D0
0000
07F8
2918
7000
A000
A000
7000
2909
0BF8
ENDCHAR
STARTCHAR Ccaron
ENCODING 268
SWIDTH 600 0
DWIDTH 10 0
BBX 8 13 1 0
BITMAP
0518
02E0
0000
07F8
2D09
7000
A000
D000
D000
A000
7000
2D0A
0BF8
ENDCHAR
STARTCHAR ccaron
ENCODING 269
SWIDTH 600 0
DWIDTH 10 0
BBX 8 12 1 0
BITMAP
0808
0774
02E0
0000
07F8
2918
7000
A000
A000
7000
2909
0BF8
ENDCHAR
STARTCHAR Dcaron
ENCODING 270
SWIDTH 600 0
DWIDTH 10 0
BBX 8 13 1 0
BITMAP
1860
07C0
0000
BF90
A078
A01D
A00A
A00A
A00A
A00A
A01D
A078
BF90
ENDCHAR
STARTCHAR dcaron
ENCODING 271
SWIDTH 600 0
DWIDTH 10 0
BBX 9 13 1 0
BITMAP
0001C0
0001C0
002980
002980
002800
1FA800
747800
D02800
D02800
D02800
D02800
B47800
2F9800
ENDCHAR
STARTCHAR Dcroat
ENCODING 272
SWIDTH 600 0
DWIDTH 10 0
BBX 9 10 0 0
BITMAP
2FE400
281E00
280740
280280
BFC280
280280
280280
280740
281E00
2FE400
ENDCHAR
STARTCHAR dcroat
ENCODING 273
SWIDTH 600 0
DWIDTH 10 0
BBX 9 11 1 0
BITMAP
001C00
03FF40
001C00
1B9C00
746C00
A01C00
D01C00
D01C00
A01C00
746C00
1F8C00
ENDCHAR
STARTCHAR Emacron
ENCODING 274
SWIDTH 600 0
DWIDTH 10 0
BBX 8 13 1 0
BITMAP
0FF4
0000
0000
7FFD
7400
7400
7400
7FF8
7400
7400
7400
7400
7FFD
ENDCHAR
STARTCHAR emacron
ENCODING 275
SWIDTH 600 0
DWIDTH 10 0
BBX 8 11 1 0
BITMAP
0FF4
0000
0000
0BE4
341C
A009
FFFE
E000
B000
3918
0BE8
ENDCHAR
STARTCHAR Ebreve
ENCODING 276
SWIDTH 600 0
DWIDTH 10 0
BBX 8 13 1 0
BITMAP
0924
07E0
0000
7FFD
7400
7400
7400
7FF8
7400
7400
7400
7400
7FFD
ENDCHAR
STARTCHAR ebreve
ENCODING 277
SWIDTH 600 0
DWIDTH 10 0
BBX 8 12 1 0
BITMAP
1814
0D34
07D0
0000
0BE4
341C
A009
FFFE
E000
B000
3918
0BE8
ENDCHAR
STARTCHAR Edotaccent
ENCODING 278
SWIDTH 600 0
DWIDTH 10 0
BBX 8 13 1 0
BITMAP
01C0
01C0
0000
7FFD
7400
7400
7400
7FF8
7400
7400
7400
7400
7FFD
ENDCHAR
STARTCHAR edotaccent
ENCODING 279
SWIDTH 600 0
DWIDTH 10 0
BBX 8 11 1 0
BITMAP
02C0
02C0
0000
0BE4
341C
A009
FFFE
E000
B000
3918
0BE8
ENDCHAR
STARTCHAR Eogonek
ENCODING 280
SWIDTH 600 0
DWIDTH 10 0
BBX 7 14 2 -4
BITMAP
FFF4
D000
D000
D000
FFE0
D000
D000
D000
D000
FFF4
0060
00C0
01C0
00B8
ENDCHAR
STARTCHAR eogonek
ENCODING 281
SWIDTH 600 0
DWIDTH 10 0
BBX 8 12 1 -4
BITMAP
0BE4
341C
A009
FFFE
E000
B000
3918
0BF8
0060
0090
00D0
0078
ENDCHAR
STARTCHAR Ecaron
ENCODING 282
SWIDTH 600 0
DWIDTH 10 0
BBX 8 13 1 0
BITMAP
0924
02E0
0000
7FFD
7400
7400
7400
7FF8
7400
7400
7400
7400
7FFD
ENDCHAR
STARTCHAR ecaron
ENCODING 283
SWIDTH 600 0
DWIDTH 10 0
BBX 8 12 1 0
BITMAP
1824
0A60
03C0
0000
0BE4
341C
A009
FFFE
E000
B000
3918
0BE8
ENDCHAR
STARTCHAR Gcircumflex
ENCODING 284
SWIDTH 600 0
DWIDTH 10 0
BBX 8 13 1 0
BITMAP
02D0
0924
0000
0BF8
3918
B000
D000
D000
D0BE
D00A
B00A
381E
0BF8
ENDCHAR
STARTCHAR gcircumflex
ENCODING 285
SWIDTH 600 0
DWIDTH 10 0
BBX 8 15 1 -3
BITMAP
03C0
09A0
1424
0000
1BFF
3474
7028
7434
2EE0
7100
7000
3FFD
A007
A01A
2FE4
ENDCHAR
STARTCHAR Gbreve
ENCODING 286
SWIDTH 600 0
DWIDTH 10 0
BBX 8 13 1 0
BITMAP
0924
07E0
0000
0BF8
3918
B000
D000
D000
D0BE
D00A
B00A
381E
0BF8
ENDCHAR
STARTCHAR gbreve
ENCODING 287
SWIDTH 600 0
DWIDTH 10 0
BBX 8 15 1 -3
BITMAP
2424
1C70
07D0
0000
1BFF
3474
7028
7434
2EE0
7100
7000
3FFD
A007
A01A
2FE4
ENDCHAR
STARTCHAR Gdotaccent
ENCODING 288
SWIDTH 600 0
DWIDTH 10 0
BBX 8 13 1 0
BITMAP
01C0
01C0
0000
0BF8
3918
B000
D000
D000
D0BE
D00A
B00A
381E
0BF8
ENDCHAR
STARTCHAR gdotaccent
ENCODING 289
SWIDTH 600 0
DWIDTH 10 0
BBX 8 14 1 -3
BITMAP
0380
0380
0000
1BFF
3474
7028
7434
2EE0
7100
7000
3FFD
A007
A01A
2FE4
ENDCHAR
STARTCHAR uni0122
ENCODING 290
SWIDTH 600 0
DWIDTH 10 0
BBX 8 14 1 -4
BITMAP
0BF8
3918
B000
D000
D000
D0BE
D00A
B00A
381E
0BF8
0000
0190
0090
0780
ENDCHAR
STARTCHAR uni0123
ENCODING 291
SWIDTH 600 0
DWIDTH 10 0
BBX 8 15 1 -3
BITMAP
02D0
0700
0280
0000
1BFF
3474
7028
7434
2EE0
7100
7000
3FFD
A007
A01A
2FE4
ENDCHAR
STARTCHAR Hcircumflex
ENCODING 292
SWIDTH 600 0
DWIDTH 10 0
BBX 8 13 1 0
BITMAP
07C0
1860
0000
A00D
A00D
A00D
A00D
BFFD
A00D
A00D
A00D
A00D
A00D
ENDCHAR
STARTCHAR hcircumflex
ENCODING 293
SWIDTH 600 0
DWIDTH 10 0
BBX 9 14 0 0
BITMAP
7D0000
824000
000000
280000
280000
280000
28BD00
2E4B00
2C0340
280340
280340
280340
280340
280340
ENDCHAR
STARTCHAR Hbar
ENCODING 294
SWIDTH 600 0
DWIDTH 10 0
BBX 10 10 0 0
BITMAP
280340
BFFFD0
280340
280340
2FFF40
280340
280340
280340
280340
280340
ENDCHAR
STARTCHAR hbar
ENCODING 295
SWIDTH 600 0
DWIDTH 10 0
BBX 9 11 0 0
BITMAP
280000
BFF400
280000
28BD00
2E4B00
2C0340
280340
280340
280340
280340
280340
ENDCHAR
STARTCHAR Itilde
ENCODING 296
SWIDTH 600 0
DWIDTH 10 0
BBX 7 13 1 0
BITMAP
1E54
21F0
0000
7FFC
0340
0340
0340
0340
0340
0340
0340
0340
7FFC
ENDCHAR
STARTCHAR itilde
ENCODING 297
SWIDTH 600 0
DWIDTH 10 0
BBX 8 12 1 0
BITMAP
0104
0E89
0878
0000
BFD0
00D0
00D0
00D0
00D0
00D0
00D0
00D0
ENDCHAR
STARTCHAR Imacron
ENCODING 298
SWIDTH 600 0
DWIDTH 10 0
BBX 7 13 1 0
BITMAP
1FF0
0000
0000
7FFC
0340
0340
0340
0340
0340
0340
0340
0340
7FFC
ENDCHAR
STARTCHAR imacron
ENCODING 299
SWIDTH 600 0
DWIDTH 10 0
BBX 7 11 1 0
BITMAP
0BF8
0000
0000
BFD0
00D0
00D0
00D0
00D0
00D0
00D0
00D0
ENDCHAR
STARTCHAR Ibreve
ENCODING 300
SWIDTH 600 0
DWIDTH 10 0
BBX 7 13 1 0
BITMAP
1820
0BD0
0000
7FFC
0340
0340
0340
0340
0340
0340
0340
0340
7FFC
ENDCHAR
STARTCHAR ibreve
ENCODING 301
SWIDTH 600 0
DWIDTH 10 0
BBX 7 12 1 0
BITMAP
0C0C
0A18
02E0
0000
BFD0
00D0
00D0
00D0
00D0
00D0
00D0
00D0
ENDCHAR
STARTCHAR Iogonek
ENCODING 302
SWIDTH 600 0
DWIDTH 10 0
BBX 7 14 1 -4
BITMAP
7FFC
0340
0340
0340
0340
0340
0340
0340
0340
7FFC
0200
0500
0A00
07D0
ENDCHAR
STARTCHAR iogonek
ENCODING 303
SWIDTH 600 0
DWIDTH 10 0
BBX 6 15 1 -4
BITMAP
01D0
01D0
0000
BFD0
00D0
00D0
00D0
00D0
00D0
00D0
00D0
0180
0200
0340
02E0
ENDCHAR
STARTCHAR Idotaccent
ENCODING 304
SWIDTH 600 0
DWIDTH 10 0
BBX 7 13 1 0
BITMAP
0380
0380
0000
7FFC
0340
0340
0340
0340
0340
0340
0340
0340
7FFC
ENDCHAR
STARTCHAR dotlessi
ENCODING 305
SWIDTH 600 0
DWIDTH 10 0
BBX 6 8 1 0
BITMAP
BFD0
00D0
00D0
00D0
00D0
00D0
00D0
00D0
ENDCHAR
STARTCHAR IJ
ENCODING 306
SWIDTH 600 0
DWIDTH 10 0
BBX 7 13 1 -3
BITMAP
7028
7028
7028
7028
7028
7028
7028
7028
7028
7028
0028
0028
01E0
ENDCHAR
STARTCHAR ij
ENCODING 307
SWIDTH 600 0
DWIDTH 10 0
BBX 8 14 1 -3
BITMAP
741D
741D
0000
701C
701C
701C
701C
701C
701C
701C
701C
001C
001C
00F4
ENDCHAR
STARTCHAR Jcircumflex
ENCODING 308
SWIDTH 600 0
DWIDTH 10 0
BBX 7 13 1 0
BITMAP
03D0
0924
0000
3FFC
001C
001C
001C
001C
001C
001C
0028
6474
2FD0
ENDCHAR
STARTCHAR jcircumflex
ENCODING 309
SWIDTH 600 0
DWIDTH 10 0
BBX 7 15 1 -3
BITMAP
01E0
0774
0908
0000
BFD0
00D0
00D0
00D0
00D0
00D0
00D0
00D0
00D0
42C0
BE40
ENDCHAR
STARTCHAR uni0136
ENCODING 310
SWIDTH 600 0
DWIDTH 10 0
BBX 8 14 1 -4
BITMAP
700D
7038
70A0
7280
7BC0
7CA0
7474
7028
700D
700B
0000
01D0
00A0
0380
ENDCHAR
STARTCHAR uni0137
ENCODING 311
SWIDTH 600 0
DWIDTH 10 0
BBX 8 15 1 -4
BITMAP
7000
7000
7000
701D
7074
70E0
73C0
7ED0
7874
701C
700A
0000
0190
00A0
0380
ENDCHAR
STARTCHAR kgreenlandic
ENCODING 312
SWIDTH 600 0
DWIDTH 10 0
BBX 8 8 1 0
BITMAP
701D
7074
71D0
77C0
7DA0
7434
701C
700A
ENDCHAR
STARTCHAR Lacute
ENCODING 313
SWIDTH 600 0
DWIDTH 10 0
BBX 7 14 2 0
BITMAP
1800
7400
9000
0000
D000
D000
D000
D000
D000
D000
D000
D000
D000
FFF8
ENDCHAR
STARTCHAR lacute
ENCODING 314
SWIDTH 600 0
DWIDTH 10 0
BBX 8 15 1 0
BITMAP
0090
0280
0600
0000
BF40
0340
0340
0340
0340
0340
0340
0340
0340
0280
01BD
ENDCHAR
STARTCHAR uni013B
ENCODING 315
SWIDTH 600 0
DWIDTH 10 0
BBX 7 14 2 -4
BITMAP
D000
D000
D000
D000
D000
D000
D000
D000
D000
FFF8
0000
0740
0180
0A40
ENDCHAR
STARTCHAR uni013C
ENCODING 316
SWIDTH 600 0
DWIDTH 10 0
BBX 8 15 1 -4
BITMAP
BF40
0340
0340
0340
0340
0340
0340
0340
0340
0280
01BD
0000
00A0
0024
01E0
ENDCHAR
STARTCHAR Lcaron
ENCODING 317
SWIDTH 600 0
DWIDTH 10 0
BBX 7 12 2 0
BITMAP
00D0
00D0
D0C0
D0C0
D000
D000
D000
D000
D000
D000
D000
FFF8
ENDCHAR
STARTCHAR lcaron
ENCODING 318
SWIDTH 600 0
DWIDTH 10 0
BBX 8 13 1 0
BITMAP
0028
0028
BF68
0364
0340
0340
0340
0340
0340
0340
0340
0280
01BD
ENDCHAR
STARTCHAR Ldot
ENCODING 319
SWIDTH 600 0
DWIDTH 10 0
BBX 7 10 2 0
BITMAP
D000
D000
D000
D000
D074
D074
D000
D000
D000
FFF8
ENDCHAR
STARTCHAR ldot
ENCODING 320
SWIDTH 600 0
DWIDTH 10 0
BBX 10 11 0 0
BITMAP
7F8000
028000
028000
028000
028000
0280B0
0280B0
028000
028000
01C100
00BE00
ENDCHAR
STARTCHAR Lslash
ENCODING 321
SWIDTH 600 0
DWIDTH 10 0
BBX 9 10 0 0
BITMAP
0D0000
0D0000
0D0000
0D0800
0EB400
1F4000
AD0000
0D0000
0D0000
0FFF80
ENDCHAR
STARTCHAR lslash
ENCODING 322
SWIDTH 600 0
DWIDTH 10 0
BBX 8 11 1 0
BITMAP
BF40
0340
0340
0368
03E0
2F40
1340
0340
0340
0280
01BD
ENDCHAR
STARTCHAR Nacute
ENCODING 323
SWIDTH 600 0
DWIDTH 10 0
BBX 8 14 1 0
BITMAP
0060
01D0
0240
0000
B00D
B80D
AC0D
AA0D
A34D
A28D
A0DD
A0AD
A03D
A01D
ENDCHAR
STARTCHAR nacute
ENCODING 324
SWIDTH 600 0
DWIDTH 10 0
BBX 8 12 1 0
BITMAP
0060
00D0
0240
0000
A2F4
B92C
B00D
A00D
A00D
A00D
A00D
A00D
ENDCHAR
STARTCHAR uni0145
ENCODING 325
SWIDTH 600 0
DWIDTH 10 0
BBX 8 14 1 -4
BITMAP
B00D
B80D
AC0D
AA0D
A34D
A28D
A0DD
A0AD
A03D
A01D
0000
0380
01C0
0A40
ENDCHAR
STARTCHAR uni0146
ENCODING 326
SWIDTH 600 0
DWIDTH 10 0
BBX 8 12 1 -4
BITMAP
A2F4
B92C
B00D
A00D
A00D
A00D
A00D
A00D
0000
0280
01D0
0780
ENDCHAR
STARTCHAR Ncaron
ENCODING 327
SWIDTH 600 0
DWIDTH 10 0
BBX 8 13 1 0
BITMAP
0820
07D0
0000
B00D
B80D
AC0D
AA0D
A34D
A28D
A0DD
A0AD
A03D
A01D
ENDCHAR
STARTCHAR ncaron
ENCODING 328
SWIDTH 600 0
DWIDTH 10 0
BBX 8 12 1 0
BITMAP
1814
0A60
03C0
0000
A2F4
B92C
B00D
A00D
A00D
A00D
A00D
A00D
ENDCHAR
STARTCHAR napostrophe
ENCODING 329
SWIDTH 600 0
DWIDTH 10 0
BBX 10 11 0 0
BITMAP
F00000
F40000
240000
735F80
C3D1D0
0380D0
0340A0
0340A0
0340A0
0340A0
0340A0
ENDCHAR
STARTCHAR Eng
ENCODING 330
SWIDTH 600 0
DWIDTH 10 0
BBX 8 10 1 0
BITMAP
A7E4
B82C
A00D
A00A
A00A
A00A
A00A
A00A
A01D
A0F4
ENDCHAR
STARTCHAR eng
ENCODING 331
SWIDTH 600 0
DWIDTH 10 0
BBX 8 11 1 -3
BITMAP
A2F4
B92C
B00D
A00D
A00D
A00D
A00D
A00D
000D
001D
00F8
ENDCHAR
STARTCHAR Omacron
ENCODING 332
SWIDTH 600 0
DWIDTH 10 0
BBX 9 13 0 0
BITMAP
07FC00
000000
000000
06F800
1D0A00
280340
340280
740280
740280
340280
280340
1D0A00
06F800
ENDCHAR
STARTCHAR omacron
ENCODING 333
SWIDTH 600 0
DWIDTH 10 0
BBX 8 11 1 0
BITMAP
1FF0
0000
0000
1BE0
7428
A00D
D00A
D00A
A00D
7428
1BE0
ENDCHAR
STARTCHAR Obreve
ENCODING 334
SWIDTH 600 0
DWIDTH 10 0
BBX 9 13 0 0
BITMAP
060800
02F400
000000
06F800
1D0A00
280340
340280
740280
740280
340280
280340
1D0A00
06F800
ENDCHAR
STARTCHAR obreve
ENCODING 335
SWIDTH 600 0
DWIDTH 10 0
BBX 8 12 1 0
BITMAP
2424
1870
0BD0
0000
1BE0
7428
A00D
D00A
D00A
A00D
7428
1BE0
ENDCHAR
STARTCHAR Ohungarumlaut
ENCODING 336
SWIDTH 600 0
DWIDTH 10 0
BBX 9 14 0 0
BITMAP
008600
018900
021800
000000
06F800
1D0A00
280340
340280
740280
740280
340280
280340
1D0A00
06F800
ENDCHAR
STARTCHAR ohungarumlaut
ENCODING 337
SWIDTH 600 0
DWIDTH 10 0
BBX 8 12 1 0
BITMAP
0258
0624
0960
0000
1BE0
7428
A00D
D00A
D00A
A00D
7428
1BE0
ENDCHAR
STARTCHAR OE
ENCODING 338
SWIDTH 600 0
DWIDTH 10 0
BBX 10 10 0 0
BITMAP
06FFD0
1D3400
343400
703400
703F80
703400
703400
343400
1D3400
06FFD0
ENDCHAR
STARTCHAR oe
ENCODING 339
SWIDTH 600 0
DWIDTH 10 0
BBX 10 8 0 0
BITMAP
1F4B40
75A4D0
A0A090
90BFE0
90A000
A0A000
75E440
1F4B80
ENDCHAR
STARTCHAR Racute
ENCODING 340
SWIDTH 600 0
DWIDTH 10 0
BBX 8 14 1 0
BITMAP
0050
01D0
0200
0000
7FE4
701D
700D
700D
702C
7FE4
70E0
7074
702C
700E
ENDCHAR
STARTCHAR racute
ENCODING 341
SWIDTH 600 0
DWIDTH 10 0
BBX 7 12 2 0
BITMAP
0090
0280
0600
0000
92F4
A900
B000
A000
A000
A000
A000
A000
ENDCHAR
STARTCHAR uni0156
ENCODING 342
SWIDTH 600 0
DWIDTH 10 0
BBX 8 14 1 -4
BITMAP
7FE4
701D
700D
700D
702C
7FE4
70E0
7074
702C
700E
0000
0280
00D0
0780
ENDCHAR
STARTCHAR uni0157
ENCODING 343
SWIDTH 600 0
DWIDTH 10 0
BBX 8 12 1 -4
BITMAP
24BD
2A40
2C00
2800
2800
2800
2800
2800
0000
2800
0900
7800
ENDCHAR
STARTCHAR Rcaron
ENCODING 344
SWIDTH 600 0
DWIDTH 10 0
BBX 8 13 1 0
BITMAP
1860
07C0
0000
7FE4
701D
700D
700D
702C
7FE4
70E0
7074
702C
700E
ENDCHAR
STARTCHAR rcaron
ENCODING 345
SWIDTH 600 0
DWIDTH 10 0
BBX 7 12 2 0
BITMAP
2020
1DD0
0B80
0000
92F4
A900
B000
A000
A000
A000
A000
A000
ENDCHAR
STARTCHAR Sacute
ENCODING 346
SWIDTH 600 0
DWIDTH 10 0
BBX 8 14 1 0
BITMAP
0060
01D0
0240
0000
1BE4
3418
7000
7800
1F90
01B8
001D
000A
B41D
2BE4
ENDCHAR
STARTCHAR sacute
ENCODING 347
SWIDTH 600 0
DWIDTH 10 0
BBX 8 12 1 0
BITMAP
0060
01D0
0240
0000
1BE4
7414
7400
2E90
01B8
000D
A41D
1BE4
ENDCHAR
STARTCHAR Scircumflex
ENCODING 348
SWIDTH 600 0
DWIDTH 10 0
BBX 8 13 1 0
BITMAP
07D0
0820
0000
1BE4
3418
7000
7800
1F90
01B8
001D
000A
B41D
2BE4
ENDCHAR
STARTCHAR scircumflex
ENCODING 349
SWIDTH 600 0
DWIDTH 10 0
BBX 8 12 1 0
BITMAP
07C0
0DA0
1420
0000
1BE4
7414
7400
2E90
01B8
000D
A41D
1BE4
ENDCHAR
STARTCHAR uni015E
ENCODING 350
SWIDTH 600 0
DWIDTH 10 0
BBX 8 15 1 -5
BITMAP
1BE4
3418
7000
7800
1F90
01B8
001D
000A
B41D
2BE4
0140
0280
00D0
01D0
0740
ENDCHAR
STARTCHAR uni015F
ENCODING 351
SWIDTH 600 0
DWIDTH 10 0
BBX 8 13 1 -5
BITMAP
1BE4
7414
7400
2E90
01B8
000D
A41D
1BE4
0240
0280
00D0
01C0
0740
ENDCHAR
STARTCHAR Scaron
ENCODING 352
SWIDTH 600 0
DWIDTH 10 0
BBX 8 13 1 0
BITMAP
0820
07D0
0000
1BE4
3418
7000
7800
1F90
01B8
001D
000A
B41D
2BE4
ENDCHAR
STARTCHAR scaron
ENCODING 353
SWIDTH 600 0
DWIDTH 10 0
BBX 8 12 1 0
BITMAP
1420
0DA0
07C0
0000
1BE4
7414
7400
2E90
01B8
000D
A41D
1BE4
ENDCHAR
STARTCHAR uni0162
ENCODING 354
SWIDTH 600 0
DWIDTH 10 0
BBX 9 15 0 -5
BITMAP
7FFFC0
00D000
00D000
00D000
00D000
00D000
00D000
00D000
00D000
00D000
008000
00E000
007000
007000
029000
ENDCHAR
STARTCHAR uni0163
ENCODING 355
SWIDTH 600 0
DWIDTH 10 0
BBX 8 16 1 -5
BITMAP
0A00
0A00
0A00
FFFD
0A00
0A00
0A00
0A00
0A00
0740
02FD
0060
00B0
0024
0024
01E0
ENDCHAR
STARTCHAR Tcaron
ENCODING 356
SWIDTH 600 0
DWIDTH 10 0
BBX 9 13 0 0
BITMAP
061800
01F000
000000
7FFFC0
00D000
00D000
00D000
00D000
00D000
00D000
00D000
00D000
00D000
ENDCHAR
STARTCHAR tcaron
ENCODING 357
SWIDTH 600 0
DWIDTH 10 0
BBX 8 13 1 0
BITMAP
0028
0024
0A24
0A24
0A00
FFFD
0A00
0A00
0A00
0A00
0A00
0740
02FD
ENDCHAR
STARTCHAR Tbar
ENCODING 358
SWIDTH 600 0
DWIDTH 10 0
BBX 9 10 0 0
BITMAP
7FFFC0
00D000
00D000
00D000
0FFE00
00D000
00D000
00D000
00D000
00D000
ENDCHAR
STARTCHAR tbar
ENCODING 359
SWIDTH 600 0
DWIDTH 10 0
BBX 8 11 1 0
BITMAP
0500
0A00
0A00
FFFD
0A00
0A00
BFFC
0A00
0A00
0740
01FD
ENDCHAR
STARTCHAR Utilde
ENCODING 360
SWIDTH 600 0
DWIDTH 10 0
BBX 8 13 1 0
BITMAP
1E54
21F0
0000
A00D
A00D
A00D
A00D
A00D
A00D
A00D
A01D
7428
1BE0
ENDCHAR
STARTCHAR utilde
ENCODING 361
SWIDTH 600 0
DWIDTH 10 0
BBX 7 12 1 0
BITMAP
0400
2B64
21E0
0000
A01C
A01C
A01C
A01C
A01C
A01C
746C
2F8C
ENDCHAR
STARTCHAR Umacron
ENCODING 362
SWIDTH 600 0
DWIDTH 10 0
BBX 8 13 1 0
BITMAP
1FF0
0000
0000
A00D
A00D
A00D
A00D
A00D
A00D
A00D
A01D
7428
1BE0
ENDCHAR
STARTCHAR umacron
ENCODING 363
SWIDTH 600 0
DWIDTH 10 0
BBX 7 11 1 0
BITMAP
1FF0
0000
0000
A01C
A01C
A01C
A01C
A01C
A01C
746C
2F8C
ENDCHAR
STARTCHAR Ubreve
ENCODING 364
SWIDTH 600 0
DWIDTH 10 0
BBX 8 13 1 0
BITMAP
1820
0BD0
0000
A00D
A00D
A00D
A00D
A00D
A00D
A00D
A01D
7428
1BE0
ENDCHAR
STARTCHAR ubreve
ENCODING 365
SWIDTH 600 0
DWIDTH 10 0
BBX 7 12 1 0
BITMAP
2420
1870
0B90
0000
A01C
A01C
A01C
A01C
A01C
A01C
746C
2F8C
ENDCHAR
STARTCHAR Uring
ENCODING 366
SWIDTH 600 0
DWIDTH 10 0
BBX 8 15 1 0
BITMAP
0780
0990
0990
0780
0000
A00D
A00D
A00D
A00D
A00D
A00D
A00D
A01D
7428
1BE0
ENDCHAR
STARTCHAR uring
ENCODING 367
SWIDTH 600 0
DWIDTH 10 0
BBX 7 13 1 0
BITMAP
0780
0C90
0C90
0780
0000
A01C
A01C
A01C
A01C
A01C
A01C
746C
2F8C
ENDCHAR
STARTCHAR Uhungarumlaut
ENCODING 368
SWIDTH 600 0
DWIDTH 10 0
BBX 8 14 1 0
BITMAP
0218
0624
0860
0000
A00D
A00D
A00D
A00D
A00D
A00D
A00D
A01D
7428
1BE0
ENDCHAR
STARTCHAR uhungarumlaut
ENCODING 369
SWIDTH 600 0
DWIDTH 10 0
BBX 7 12 1 0
BITMAP
0258
0634
0860
0000
A01C
A01C
A01C
A01C
A01C
A01C
746C
2F8C
ENDCHAR
STARTCHAR Uogonek
ENCODING 370
SWIDTH 600 0
DWIDTH 10 0
BBX 8 14 1 -4
BITMAP
A00D
A00D
A00D
A00D
A00D
A00D
A00D
A01D
3428
1BE0
0240
0600
0A00
03D0
ENDCHAR
STARTCHAR uogonek
ENCODING 371
SWIDTH 600 0
DWIDTH 10 0
BBX 8 12 1 -4
BITMAP
A01C
A01C
A01C
A01C
A01C
A01C
746C
2F8C
0024
0060
0060
003D
ENDCHAR
STARTCHAR Wcircumflex
ENCODING 372
SWIDTH 600 0
DWIDTH 10 0
BBX 10 13 0 0
BITMAP
01F000
061800
000000
A000D0
B001D0
7051C0
70E1C0
35F280
36B680
276A40
2B1B40
1E0F00
1E0F00
ENDCHAR
STARTCHAR wcircumflex
ENCODING 373
SWIDTH 600 0
DWIDTH 10 0
BBX 10 12 0 0
BITMAP
01E000
036800
050800
000000
A050D0
A0E0C0
71B1C0
32B580
366680
2B1A40
1B1F00
1E0F00
ENDCHAR
STARTCHAR Ycircumflex
ENCODING 374
SWIDTH 600 0
DWIDTH 10 0
BBX 8 13 1 0
BITMAP
07C0
1860
0000
D00A
A00D
3428
1C70
0DA0
07C0
0380
0340
0340
0340
ENDCHAR
STARTCHAR ycircumflex
ENCODING 375
SWIDTH 600 0
DWIDTH 10 0
BBX 8 15 1 -3
BITMAP
07C0
0DA0
1420
0000
D00A
600D
3418
2824
0C70
0AA0
03C0
0280
0340
0A00
B800
ENDCHAR
STARTCHAR Ydieresis
ENCODING 376
SWIDTH 600 0
DWIDTH 10 0
BBX 8 13 1 0
BITMAP
1C70
1C70
0000
D00A
A00D
3428
1C70
0DA0
07C0
0380
0340
0340
0340
ENDCHAR
STARTCHAR Zacute
ENCODING 377
SWIDTH 600 0
DWIDTH 10 0
BBX 8 14 1 0
BITMAP
0060
01D0
0240
0000
7FFE
001C
0074
00A0
0280
0740
0D00
2800
7000
FFFE
ENDCHAR
STARTCHAR zacute
ENCODING 378
SWIDTH 600 0
DWIDTH 10 0
BBX 8 12 1 0
BITMAP
0020
00E0
0240
0000
7FFD
0038
00A0
02C0
0700
1D00
7400
BFFE
ENDCHAR
STARTCHAR Zdotaccent
ENCODING 379
SWIDTH 600 0
DWIDTH 10 0
BBX 8 13 1 0
BITMAP
0280
0280
0000
7FFE
001C
0074
00A0
0280
0740
0D00
2800
7000
FFFE
ENDCHAR
STARTCHAR zdotaccent
ENCODING 380
SWIDTH 600 0
DWIDTH 10 0
BBX 8 11 1 0
BITMAP
02C0
02C0
0000
7FFD
0038
00A0
02C0
0700
1D00
7400
BFFE
ENDCHAR
STARTCHAR Zcaron
ENCODING 381
SWIDTH 600 0
DWIDTH 10 0
BBX 8 13 1 0
BITMAP
0820
07D0
0000
7FFE
001C
0074
00A0
0280
0740
0D00
2800
7000
FFFE
ENDCHAR
STARTCHAR zcaron
ENCODING 382
SWIDTH 600 0
DWIDTH 10 0
BBX 8 12 1 0
BITMAP
0814
0A70
03D0
0000
7FFD
0038
00A0
02C0
0700
1D00
7400
BFFE
ENDCHAR
STARTCHAR longs
ENCODING 383
SWIDTH 600 0
DWIDTH 10 0
BBX 8 11 1 0
BITMAP
01BE
0381
0340
7F40
0340
0340
0340
0340
0340
0340
0340
ENDCHAR
STARTCHAR uni0180
ENCODING 384
SWIDTH 600 0
DWIDTH 10 0
BBX 9 11 0 0
BITMAP
280000
BFF400
280000
29F900
2E0B00
280340
280280
280280
280340
2E0A00
29F800
ENDCHAR
STARTCHAR uni018A
ENCODING 394
SWIDTH 600 0
DWIDTH 10 0
BBX 9 10 0 0
BITMAP
1BF800
369B00
A28380
A281C0
A281C0
3681C0
0281C0
028280
028B00
02F900
ENDCHAR
STARTCHAR uni018F
ENCODING 399
SWIDTH 600 0
DWIDTH 10 0
BBX 8 10 1 0
BITMAP
1BE0
2428
000D
000A
000A
FFFE
D00A
A00D
3428
1BE0
ENDCHAR
STARTCHAR uni0192
ENCODING 402
SWIDTH 600 0
DWIDTH 10 0
BBX 8 12 1 -2
BITMAP
00BD
01D0
0280
2FF8
0340
0340
0300
0700
0700
0A00
1D00
F800
ENDCHAR
STARTCHAR uni0193
ENCODING 403
SWIDTH 600 0
DWIDTH 10 0
BBX 9 13 1 0
BITMAP
000B40
001C00
001800
0BFC00
391800
B00000
D00000
D00000
D0BE00
D00A00
B00A00
381E00
0BF800
ENDCHAR
STARTCHAR Ohorn
ENCODING 416
SWIDTH 600 0
DWIDTH 10 0
BBX 9 12 0 0
BITMAP
000180
0001C0
06FA40
1D0A00
280340
340280
740280
740280
340280
280340
1D0A00
06F800
ENDCHAR
STARTCHAR ohorn
ENCODING 417
SWIDTH 600 0
DWIDTH 10 0
BBX 8 11 1 0
BITMAP
0006
0007
0006
1BE8
742C
A00D
D00A
D00A
A00D
7428
1BE0
ENDCHAR
STARTCHAR Uhorn
ENCODING 431
SWIDTH 600 0
DWIDTH 10 0
BBX 9 13 1 0
BITMAP
000080
0000C0
0001C0
A00F40
A00D00
A00D00
A00D00
A00D00
A00D00
A00D00
A01D00
742800
1BE000
ENDCHAR
STARTCHAR uhorn
ENCODING 432
SWIDTH 600 0
DWIDTH 10 0
BBX 9 11 1 0
BITMAP
000240
000280
000340
A01E00
A01C00
A01C00
A01C00
A01C00
A01C00
746C00
2F8C00
ENDCHAR
STARTCHAR uni01C2
ENCODING 450
SWIDTH 600 0
DWIDTH 10 0
BBX 8 14 1 -3
BITMAP
0340
0340
0340
0340
0340
BFFD
0340
0340
BFFD
0340
0340
0340
0340
0340
ENDCHAR
STARTCHAR uni01CD
ENCODING 461
SWIDTH 600 0
DWIDTH 10 0
BBX 9 13 0 0
BITMAP
061800
01F000
000000
00E000
01B000
036400
071800
0A0C00
0D0900
1FFF00
280340
340280
7001C0
ENDCHAR
STARTCHAR uni01CE
ENCODING 462
SWIDTH 600 0
DWIDTH 10 0
BBX 8 12 1 0
BITMAP
0814
0A70
03D0
0000
1BE0
2428
001C
06FD
790D
A00D
B06D
2F8D
ENDCHAR
STARTCHAR uni01CF
ENCODING 463
SWIDTH 600 0
DWIDTH 10 0
BBX 7 13 1 0
BITMAP
1860
07C0
0000
7FFC
0340
0340
0340
0340
0340
0340
0340
0340
7FFC
ENDCHAR
STARTCHAR uni01D0
ENCODING 464
SWIDTH 600 0
DWIDTH 10 0
BBX 7 12 1 0
BITMAP
0908
0774
01E0
0000
BFD0
00D0
00D0
00D0
00D0
00D0
00D0
00D0
ENDCHAR
STARTCHAR uni01D1
ENCODING 465
SWIDTH 600 0
DWIDTH 10 0
BBX 9 13 0 0
BITMAP
061800
01F000
000000
06F800
1D0A00
280340
340280
740280
740280
340280
280340
1D0A00
06F800
ENDCHAR
STARTCHAR uni01D2
ENCODING 466
SWIDTH 600 0
DWIDTH 10 0
BBX 8 12 1 0
BITMAP
1420
0DA0
0780
0000
1BE0
7428
A00D
D00A
D00A
A00D
7428
1BE0
ENDCHAR
STARTCHAR uni01D3
ENCODING 467
SWIDTH 600 0
DWIDTH 10 0
BBX 8 13 1 0
BITMAP
1860
07C0
0000
A00D
A00D
A00D
A00D
A00D
A00D
A00D
A01D
7428
1BE0
ENDCHAR
STARTCHAR uni01D4
ENCODING 468
SWIDTH 600 0
DWIDTH 10 0
BBX 7 12 1 0
BITMAP
2420
0DA0
0780
0000
A01C
A01C
A01C
A01C
A01C
A01C
746C
2F8C
ENDCHAR
STARTCHAR uni01D5
ENCODING 469
SWIDTH 600 0
DWIDTH 10 0
BBX 8 15 1 0
BITMAP
1FF0
0000
1830
0000
0000
A00D
A00D
A00D
A00D
A00D
A00D
A00D
A01D
7428
1BE0
ENDCHAR
STARTCHAR uni01D6
ENCODING 470
SWIDTH 600 0
DWIDTH 10 0
BBX 7 13 1 0
BITMAP
1FF0
0000
1860
0000
0000
A01C
A01C
A01C
A01C
A01C
A01C
746C
2F8C
ENDCHAR
STARTCHAR uni01D7
ENCODING 471
SWIDTH 600 0
DWIDTH 10 0
BBX 8 15 1 0
BITMAP
0090
0140
1830
0000
0000
A00D
A00D
A00D
A00D
A00D
A00D
A00D
A01D
7428
1BE0
ENDCHAR
STARTCHAR uni01D8
ENCODING 472
SWIDTH 600 0
DWIDTH 10 0
BBX 7 13 1 0
BITMAP
0080
0240
1860
0000
0000
A01C
A01C
A01C
A01C
A01C
A01C
746C
2F8C
ENDCHAR
STARTCHAR uni01D9
ENCODING 473
SWIDTH 600 0
DWIDTH 10 0
BBX 8 15 1 0
BITMAP
0860
0780
1830
0000
0000
A00D
A00D
A00D
A00D
A00D
A00D
A00D
A01D
7428
1BE0
ENDCHAR
STARTCHAR uni01DA
ENCODING 474
SWIDTH 600 0
DWIDTH 10 0
BBX 7 13 1 0
BITMAP
0850
0780
1860
0000
0000
A01C
A01C
A01C
A01C
A01C
A01C
746C
2F8C
ENDCHAR
STARTCHAR uni01DB
ENCODING 475
SWIDTH 600 0
DWIDTH 10 0
BBX 8 15 1 0
BITMAP
0900
0200
1830
0000
0000
A00D
A00D
A00D
A00D
A00D
A00D
A00D
A01D
7428
1BE0
ENDCHAR
STARTCHAR uni01DC
ENCODING 476
SWIDTH 600 0
DWIDTH 10 0
BBX 7 13 1 0
BITMAP
0500
0200
1860
0000
0000
A01C
A01C
A01C
A01C
A01C
A01C
746C
2F8C
ENDCHAR
STARTCHAR uni01E2
ENCODING 482
SWIDTH 600 0
DWIDTH 10 0
BBX 10 13 0 0
BITMAP
007FC0
000000
000000
00FFD0
01B400
037400
073400
0A3F80
0C3400
2FF400
343400
703400
A03FD0
ENDCHAR
STARTCHAR uni01E3
ENCODING 483
SWIDTH 600 0
DWIDTH 10 0
BBX 10 11 0 0
BITMAP
03FD00
000000
000000
2F5F40
11E0D0
009090
1BFFE0
789000
A0A000
A1B440
2E1F80
ENDCHAR
STARTCHAR Gcaron
ENCODING 486
SWIDTH 600 0
DWIDTH 10 0
BBX 8 13 1 0
BITMAP
0924
02D0
0000
0BF8
3918
B000
D000
D000
D0BE
D00A
B00A
381E
0BF8
ENDCHAR
STARTCHAR gcaron
ENCODING 487
SWIDTH 600 0
DWIDTH 10 0
BBX 8 15 1 -3
BITMAP
1424
0DA0
03C0
0000
1BFF
3474
7028
7434
2EE0
7100
7000
3FFD
A007
A01A
2FE4
ENDCHAR
STARTCHAR uni01EA
ENCODING 490
SWIDTH 600 0
DWIDTH 10 0
BBX 9 14 0 -4
BITMAP
06F800
1D0A00
280340
340280
740280
340280
340280
280340
1D0A00
06F800
009000
018000
028000
00F400
ENDCHAR
STARTCHAR uni01EB
ENCODING 491
SWIDTH 600 0
DWIDTH 10 0
BBX 8 12 1 -4
BITMAP
1BE0
7428
A00D
D00A
D00A
A00D
7428
1BE0
0240
0600
0600
02D0
ENDCHAR
STARTCHAR uni01F4
ENCODING 500
SWIDTH 600 0
DWIDTH 10 0
BBX 8 14 1 0
BITMAP
0020
00E0
0140
0000
0BF8
3918
B000
D000
D000
D0BE
D00A
B00A
381E
0BF8
ENDCHAR
STARTCHAR uni01F5
ENCODING 501
SWIDTH 600 0
DWIDTH 10 0
BBX 8 15 1 -3
BITMAP
0060
01D0
0240
0000
1BFF
3474
7028
7434
2EE0
7100
7000
3FFD
A007
A01A
2FE4
ENDCHAR
STARTCHAR uni01F8
ENCODING 504
SWIDTH 600 0
DWIDTH 10 0
BBX 8 14 1 0
BITMAP
0900
0740
0180
0000
B00D
B80D
AC0D
AA0D
A34D
A28D
A0DD
A0AD
A03D
A01D
ENDCHAR
STARTCHAR uni01F9
ENCODING 505
SWIDTH 600 0
DWIDTH 10 0
BBX 8 12 1 0
BITMAP
0900
0740
0180
0000
A2F4
B92C
B00D
A00D
A00D
A00D
A00D
A00D
ENDCHAR
STARTCHAR Aringacute
ENCODING 506
SWIDTH 600 0
DWIDTH 10 0
BBX 9 15 0 0
BITMAP
006400
015000
026400
01E000
000000
00E000
01B000
036400
071800
0A0C00
0D0900
1FFF00
280340
340280
7001C0
ENDCHAR
STARTCHAR aringacute
ENCODING 507
SWIDTH 600 0
DWIDTH 10 0
BBX 8 13 1 0
BITMAP
0090
0550
0920
07D0
0000
1BE0
2428
001C
06FD
780D
A00D
B06D
2F8D
ENDCHAR
STARTCHAR AEacute
ENCODING 508
SWIDTH 600 0
DWIDTH 10 0
BBX 10 14 0 0
BITMAP
000240
000B40
000800
000000
00FFD0
01B400
037400
073400
0A3F80
0C3400
2FF400
343400
703400
A03FD0
ENDCHAR
STARTCHAR aeacute
ENCODING 509
SWIDTH 600 0
DWIDTH 10 0
BBX 10 12 0 0
BITMAP
001800
007400
009000
000000
2F5F40
11E0D0
009090
1BFFE0
789000
A0A000
A1B440
2E1F80
ENDCHAR
STARTCHAR Oslashacute
ENCODING 510
SWIDTH 600 0
DWIDTH 10 0
BBX 9 14 0 0
BITMAP
001400
007400
008000
000000
06FA80
1D1B00
280F40
342A80
74A280
75C280
374280
2E0340
2E0A00
76F800
ENDCHAR
STARTCHAR oslashacute
ENCODING 511
SWIDTH 600 0
DWIDTH 10 0
BBX 8 12 1 0
BITMAP
0060
01D0
0200
0000
1BE9
743C
A0AD
D1CA
D70A
AD0D
7828
ABE0
ENDCHAR
STARTCHAR uni0218
ENCODING 536
SWIDTH 600 0
DWIDTH 10 0
BBX 8 14 1 -4
BITMAP
1BE4
3418
7000
7800
1F90
01B8
001D
000A
B41D
2BE4
0000
0280
01D0
0780
ENDCHAR
STARTCHAR uni0219
ENCODING 537
SWIDTH 600 0
DWIDTH 10 0
BBX 8 12 1 -4
BITMAP
1BE4
7414
7400
2E90
01B8
000D
A41D
1BE4
0000
0280
01C0
0B40
ENDCHAR
STARTCHAR uni021A
ENCODING 538
SWIDTH 600 0
DWIDTH 10 0
BBX 9 14 0 -4
BITMAP
7FFFC0
00D000
00D000
00D000
00D000
00D000
00D000
00D000
00D000
00D000
000000
00E000
007000
029000
ENDCHAR
STARTCHAR uni021B
ENCODING 539
SWIDTH 600 0
DWIDTH 10 0
BBX 8 15 1 -4
BITMAP
0A00
0A00
0A00
FFFD
0A00
0A00
0A00
0A00
0A00
0740
02FD
0000
00A0
0034
01E0
ENDCHAR
STARTCHAR uni0237
ENCODING 567
SWIDTH 600 0
DWIDTH 10 0
BBX 6 11 1 -3
BITMAP
BFD0
00D0
00D0
00D0
00D0
00D0
00D0
00D0
00D0
42C0
BE40
ENDCHAR
STARTCHAR uni0243
ENCODING 579
SWIDTH 600 0
DWIDTH 10 0
BBX 9 10 0 0
BITMAP
1FF800
1C0B00
1C0340
1C0300
1C0A00
1FFD00
1C0740
BFD280
1C0780
1FF900
ENDCHAR
STARTCHAR uni0250
ENCODING 592
SWIDTH 600 0
DWIDTH 10 0
BBX 8 8 1 0
BITMAP
A6F4
B91D
B00D
A16C
7E90
7000
3818
1BE4
ENDCHAR
STARTCHAR uni0251
ENCODING 593
SWIDTH 600 0
DWIDTH 10 0
BBX 7 8 1 0
BITMAP
1B9C
746C
A01C
D01C
D01C
A01C
746C
1F8C
ENDCHAR
STARTCHAR uni0252
ENCODING 594
SWIDTH 600 0
DWIDTH 10 0
BBX 8 8 1 0
BITMAP
A7E4
B82C
A00D
A00A
A00A
A00D
B428
A7E0
ENDCHAR
STARTCHAR uni0253
ENCODING 595
SWIDTH 600 0
DWIDTH 10 0
BBX 8 11 1 0
BITMAP
1F80
7400
6000
A7E4
B82C
A00D
A00A
A00A
A00D
B428
A7E0
ENDCHAR
STARTCHAR uni0254
ENCODING 596
SWIDTH 600 0
DWIDTH 10 0
BBX 8 8 1 0
BITMAP
6F90
5074
001C
000D
000D
001C
9074
6F90
ENDCHAR
STARTCHAR uni0255
ENCODING 597
SWIDTH 600 0
DWIDTH 10 0
BBX 8 9 1 -1
BITMAP
0BF8
2918
7000
A000
A0B8
774A
2E09
2EF8
2400
ENDCHAR
STARTCHAR uni0256
ENCODING 598
SWIDTH 600 0
DWIDTH 10 0
BBX 9 14 1 -3
BITMAP
001C00
001C00
001C00
1B9C00
746C00
A01C00
D01C00
D01C00
A01C00
746C00
1F9C00
001C00
000D00
000B80
ENDCHAR
STARTCHAR uni0257
ENCODING 599
SWIDTH 600 0
DWIDTH 10 0
BBX 9 11 1 0
BITMAP
000B80
000D00
001C00
1B9C00
746C00
A01C00
D01C00
D01C00
A01C00
746C00
1F9C00
ENDCHAR
STARTCHAR uni0258
ENCODING 600
SWIDTH 600 0
DWIDTH 10 0
BBX 8 8 1 0
BITMAP
1BD0
7428
D00D
FFFD
000D
001D
5078
6FD0
ENDCHAR
STARTCHAR uni0259
ENCODING 601
SWIDTH 600 0
DWIDTH 10 0
BBX 8 8 1 0
BITMAP
2FE0
2078
000D
000E
FFFE
900D
7428
1BE0
ENDCHAR
STARTCHAR uni025A
ENCODING 602
SWIDTH 600 0
DWIDTH 10 0
BBX 10 8 0 0
BITMAP
2F9000
10B100
003F40
06F9E0
692800
602400
347000
1B9000
ENDCHAR
STARTCHAR uni025B
ENCODING 603
SWIDTH 600 0
DWIDTH 10 0
BBX 8 8 1 0
BITMAP
1BF4
3418
3800
1FD0
7400
A000
7419
1BE8
ENDCHAR
STARTCHAR uni025C
ENCODING 604
SWIDTH 600 0
DWIDTH 10 0
BBX 7 8 1 0
BITMAP
2FE0
5028
0028
0FE0
002C
001C
902C
6FE0
ENDCHAR
STARTCHAR uni025E
ENCODING 606
SWIDTH 600 0
DWIDTH 10 0
BBX 8 8 1 0
BITMAP
0BE4
781C
A01C
D1F4
D01D
A00A
741D
1BE4
ENDCHAR
STARTCHAR uni025F
ENCODING 607
SWIDTH 600 0
DWIDTH 10 0
BBX 8 11 1 -3
BITMAP
BFD0
00D0
00D0
00D0
3FFF
00D0
00D0
00D0
00D0
41C0
BE40
ENDCHAR
STARTCHAR uni0260
ENCODING 608
SWIDTH 600 0
DWIDTH 10 0
BBX 9 13 1 -3
BITMAP
000780
000D00
1B9C00
746C00
A01C00
D01C00
D01C00
A01C00
79AC00
065C00
001C00
107800
2FE000
ENDCHAR
STARTCHAR uni0261
ENCODING 609
SWIDTH 600 0
DWIDTH 10 0
BBX 7 11 1 -3
BITMAP
1B9C
746C
A01C
D01C
D01C
A01C
746C
1F9C
001C
2068
2FE0
ENDCHAR
STARTCHAR uni0262
ENCODING 610
SWIDTH 600 0
DWIDTH 10 0
BBX 8 8 1 0
BITMAP
0BF4
2908
7000
A000
A0FD
7009
391D
0BF8
ENDCHAR
STARTCHAR uni0263
ENCODING 611
SWIDTH 600 0
DWIDTH 10 0
BBX 8 11 1 -3
BITMAP
D00A
600C
3428
2834
0C60
0AD0
07C0
06C0
0DA0
0DA0
07D0
ENDCHAR
STARTCHAR uni0264
ENCODING 612
SWIDTH 600 0
DWIDTH 10 0
BBX 8 8 1 0
BITMAP
B86D
0BD0
0BD0
1C70
3428
3028
3874
1BE0
ENDCHAR
STARTCHAR uni0265
ENCODING 613
SWIDTH 600 0
DWIDTH 10 0
BBX 7 11 1 -3
BITMAP
A01C
A01C
A01C
A01C
A01C
A01C
746C
2F9C
001C
001C
001C
ENDCHAR
STARTCHAR uni0266
ENCODING 614
SWIDTH 600 0
DWIDTH 10 0
BBX 8 11 1 0
BITMAP
1F80
7400
6000
A2F4
B92C
B00D
A00D
A00D
A00D
A00D
A00D
ENDCHAR
STARTCHAR uni0267
ENCODING 615
SWIDTH 600 0
DWIDTH 10 0
BBX 8 14 1 -3
BITMAP
1F80
7400
6000
A2F4
B92C
B00D
A00D
A00D
A00D
A00D
A00D
000D
001D
00F8
ENDCHAR
STARTCHAR uni0268
ENCODING 616
SWIDTH 600 0
DWIDTH 10 0
BBX 8 11 1 0
BITMAP
01D0
01D0
0000
BFD0
00D0
00D0
00D0
2FFF
00D0
00D0
00D0
ENDCHAR
STARTCHAR uni026A
ENCODING 618
SWIDTH 600 0
DWIDTH 10 0
BBX 8 8 1 0
BITMAP
BFFD
0340
0340
0340
0340
0340
0340
BFFD
ENDCHAR
STARTCHAR uni026B
ENCODING 619
SWIDTH 600 0
DWIDTH 10 0
BBX 8 11 1 0
BITMAP
BF40
0340
0340
1740
3B58
63F0
0340
0340
0340
0280
01BD
ENDCHAR
STARTCHAR uni026C
ENCODING 620
SWIDTH 600 0
DWIDTH 10 0
BBX 8 11 1 0
BITMAP
BF40
0340
0340
7B40
9740
6FF8
0340
0340
0340
0280
01BD
ENDCHAR
STARTCHAR uni026D
ENCODING 621
SWIDTH 600 0
DWIDTH 10 0
BBX 8 14 1 -3
BITMAP
BF40
0340
0340
0340
0340
0340
0340
0340
0340
0340
0340
0340
0280
01BD
ENDCHAR
STARTCHAR uni026E
ENCODING 622
SWIDTH 600 0
DWIDTH 10 0
BBX 8 14 1 -3
BITMAP
A000
A000
A000
BFFE
A01D
A038
A0A0
A1C0
A2F8
A00A
A007
0007
191E
0BF8
ENDCHAR
STARTCHAR uni026F
ENCODING 623
SWIDTH 600 0
DWIDTH 10 0
BBX 9 8 0 0
BITMAP
70D280
70D280
70D280
70D280
70D280
70D280
75D780
2E7980
ENDCHAR
STARTCHAR uni0270
ENCODING 624
SWIDTH 600 0
DWIDTH 10 0
BBX 9 11 0 -3
BITMAP
70D280
70D280
70D280
70D280
70D280
70D280
75D780
2E7A80
000280
000280
000280
ENDCHAR
STARTCHAR uni0271
ENCODING 625
SWIDTH 600 0
DWIDTH 10 0
BBX 8 11 1 -3
BITMAP
DE6D
E3CA
D287
D287
D287
D287
D287
D287
0007
000A
003D
ENDCHAR
STARTCHAR uni0272
ENCODING 626
SWIDTH 600 0
DWIDTH 10 0
BBX 9 11 0 -3
BITMAP
18BD00
1E4B00
1C0340
1C0340
1C0340
1C0340
1C0340
1C0340
1C0000
280000
F40000
ENDCHAR
STARTCHAR uni0273
ENCODING 627
SWIDTH 600 0
DWIDTH 10 0
BBX 9 11 1 -3
BITMAP
A6F400
B92C00
B00D00
A00D00
A00D00
A00D00
A00D00
A00D00
000D00
000D00
000780
ENDCHAR
STARTCHAR uni0274
ENCODING 628
SWIDTH 600 0
DWIDTH 10 0
BBX 7 8 1 0
BITMAP
701C
781C
691C
671C
629C
60AC
607C
602C
ENDCHAR
STARTCHAR uni0275
ENCODING 629
SWIDTH 600 0
DWIDTH 10 0
BBX 8 8 1 0
BITMAP
1BE0
742C
900D
FFFE
D00A
A00D
7428
1BE0
ENDCHAR
STARTCHAR uni0276
ENCODING 630
SWIDTH 600 0
DWIDTH 10 0
BBX 10 8 0 0
BITMAP
0BFFD0
283400
703400
703F80
703400
703400
283400
0BFFD0
ENDCHAR
STARTCHAR uni0278
ENCODING 632
SWIDTH 600 0
DWIDTH 10 0
BBX 9 14 0 -3
BITMAP
00D000
00D000
00D000
07F900
1DD700
34D280
70D2C0
70D2C0
34D280
1DD700
07F900
00D000
00D000
00D000
ENDCHAR
STARTCHAR uni0279
ENCODING 633
SWIDTH 600 0
DWIDTH 10 0
BBX 7 8 1 0
BITMAP
0034
0034
0034
0034
0034
0074
02B4
BD34
ENDCHAR
STARTCHAR uni027A
ENCODING 634
SWIDTH 600 0
DWIDTH 10 0
BBX 7 11 1 0
BITMAP
0034
0034
0034
0034
0034
0034
0034
0034
0074
02B4
BD34
ENDCHAR
STARTCHAR uni027B
ENCODING 635
SWIDTH 600 0
DWIDTH 10 0
BBX 7 11 1 -3
BITMAP
01C0
01C0
01C0
01C0
01C0
01C0
06C0
B9C0
00C0
00D0
007C
ENDCHAR
STARTCHAR uni027D
ENCODING 637
SWIDTH 600 0
DWIDTH 10 0
BBX 7 11 2 -3
BITMAP
92F4
A900
B000
A000
A000
A000
A000
A000
A000
7400
1FD0
ENDCHAR
STARTCHAR uni027E
ENCODING 638
SWIDTH 600 0
DWIDTH 10 0
BBX 7 8 2 0
BITMAP
0BF4
2900
7000
A000
A000
A000
A000
A000
ENDCHAR
STARTCHAR uni0280
ENCODING 640
SWIDTH 600 0
DWIDTH 10 0
BBX 8 8 1 0
BITMAP
7FF4
701C
700D
701C
7FF4
70A0
7028
701D
ENDCHAR
STARTCHAR uni0281
ENCODING 641
SWIDTH 600 0
DWIDTH 10 0
BBX 7 8 1 0
BITMAP
A01C
341C
1D1C
2FFC
B41C
A01C
B01C
2FFC
ENDCHAR
STARTCHAR uni0282
ENCODING 642
SWIDTH 600 0
DWIDTH 10 0
BBX 8 11 1 -3
BITMAP
1BE4
7414
7400
2E90
01B8
000D
A41D
EBE4
D000
A000
7C00
ENDCHAR
STARTCHAR uni0283
ENCODING 643
SWIDTH 600 0
DWIDTH 10 0
BBX 8 14 1 -3
BITMAP
00BD
0280
0240
0340
0340
0340
0340
0340
0340
0340
0340
0340
4740
BE00
ENDCHAR
STARTCHAR uni0284
ENCODING 644
SWIDTH 600 0
DWIDTH 10 0
BBX 8 15 1 -3
BITMAP
00BD
0280
0280
0340
0340
0340
0340
BFFD
0340
0340
0340
0340
0340
4740
BE00
ENDCHAR
STARTCHAR uni0287
ENCODING 647
SWIDTH 600 0
DWIDTH 10 0
BBX 8 11 1 -3
BITMAP
BE40
42C0
00D0
00D0
00D0
00D0
00D0
BFFD
00D0
00C0
00C0
ENDCHAR
STARTCHAR uni0288
ENCODING 648
SWIDTH 600 0
DWIDTH 10 0
BBX 8 14 1 -3
BITMAP
0A00
0A00
0A00
FFFD
0A00
0A00
0A00
0A00
0A00
0A00
0A00
0A00
0740
01FD
ENDCHAR
STARTCHAR uni0289
ENCODING 649
SWIDTH 600 0
DWIDTH 10 0
BBX 10 8 0 0
BITMAP
1C0A00
1C0A00
1C0A00
FFFFD0
1C0A00
1C0A00
1D1E00
0BE600
ENDCHAR
STARTCHAR uni028A
ENCODING 650
SWIDTH 600 0
DWIDTH 10 0
BBX 9 8 0 0
BITMAP
7F1F80
0D0A00
280300
340240
340280
280340
1D0B00
06F800
ENDCHAR
STARTCHAR uni028B
ENCODING 651
SWIDTH 600 0
DWIDTH 10 0
BBX 8 8 1 0
BITMAP
A0B8
A01D
A00A
A00A
A00D
A01D
7428
1BE0
ENDCHAR
STARTCHAR uni028C
ENCODING 652
SWIDTH 600 0
DWIDTH 10 0
BBX 8 8 1 0
BITMAP
0780
0AC0
0DA0
1C70
2434
7028
A00C
D00A
ENDCHAR
STARTCHAR uni028D
ENCODING 653
SWIDTH 600 0
DWIDTH 10 0
BBX 10 8 0 0
BITMAP
1E0F00
2B1B00
271B40
366680
32B280
71B1C0
A0E0C0
9050D0
ENDCHAR
STARTCHAR uni028E
ENCODING 654
SWIDTH 600 0
DWIDTH 10 0
BBX 8 11 1 0
BITMAP
006D
00D0
0280
0340
0780
0DC0
1CA0
2430
3028
A01C
D00A
ENDCHAR
STARTCHAR uni028F
ENCODING 655
SWIDTH 600 0
DWIDTH 10 0
BBX 8 8 1 0
BITMAP
A00D
7428
2874
0DA0
07C0
0340
0340
0340
ENDCHAR
STARTCHAR uni0290
ENCODING 656
SWIDTH 600 0
DWIDTH 10 0
BBX 9 11 1 -3
BITMAP
7FFD00
003800
00A000
028000
0B0000
1D0000
740000
BFFD00
000D00
000D00
000780
ENDCHAR
STARTCHAR uni0291
ENCODING 657
SWIDTH 600 0
DWIDTH 10 0
BBX 9 10 1 -2
BITMAP
7FFC00
003800
00E000
028000
0B0000
1D1F00
746340
BFFE00
00C000
008000
ENDCHAR
STARTCHAR uni0292
ENCODING 658
SWIDTH 600 0
DWIDTH 10 0
BBX 8 11 1 -3
BITMAP
7FFC
0074
01C0
0600
1FE0
006C
000D
000D
001D
A078
2FD0
ENDCHAR
STARTCHAR uni0294
ENCODING 660
SWIDTH 600 0
DWIDTH 10 0
BBX 7 11 1 0
BITMAP
2FE0
A068
001C
001C
0028
00B0
0380
0700
0700
0700
0700
ENDCHAR
STARTCHAR uni0295
ENCODING 661
SWIDTH 600 0
DWIDTH 10 0
BBX 8 11 1 0
BITMAP
1BE4
381D
B000
7000
7400
1D00
0780
0280
0280
0280
0280
ENDCHAR
STARTCHAR uni0298
ENCODING 664
SWIDTH 600 0
DWIDTH 10 0
BBX 8 11 1 0
BITMAP
1BE0
3828
A01C
D009
D24A
D38A
D10A
D009
A00D
3468
1BE0
ENDCHAR
STARTCHAR uni0299
ENCODING 665
SWIDTH 600 0
DWIDTH 10 0
BBX 8 8 1 0
BITMAP
7FF8
701D
701D
7FF8
701E
700A
701E
7FF8
ENDCHAR
STARTCHAR uni029C
ENCODING 668
SWIDTH 600 0
DWIDTH 10 0
BBX 7 8 1 0
BITMAP
A01C
A01C
A01C
BFFC
A01C
A01C
A01C
A01C
ENDCHAR
STARTCHAR uni029D
ENCODING 669
SWIDTH 600 0
DWIDTH 10 0
BBX 7 15 1 -4
BITMAP
01D0
01D0
0000
BFD0
00D0
00D0
00D0
00D0
00D0
00D0
00D0
BED0
D2D0
7E74
0024
ENDCHAR
STARTCHAR uni029E
ENCODING 670
SWIDTH 600 0
DWIDTH 10 0
BBX 7 11 1 -3
BITMAP
A01C
741C
282C
0ABC
079C
0A1C
381C
E01C
001C
001C
001C
ENDCHAR
STARTCHAR uni029F
ENCODING 671
SWIDTH 600 0
DWIDTH 10 0
BBX 7 8 2 0
BITMAP
A000
A000
A000
A000
A000
A000
A000
BFF8
ENDCHAR
STARTCHAR uni02A1
ENCODING 673
SWIDTH 600 0
DWIDTH 10 0
BBX 8 11 1 0
BITMAP
2FE0
A468
001C
001C
0038
01E0
BFFD
0700
0700
0700
0700
ENDCHAR
STARTCHAR uni02A2
ENCODING 674
SWIDTH 600 0
DWIDTH 10 0
BBX 8 11 1 0
BITMAP
1BE4
381D
B000
7000
3800
0A00
BFFD
0280
0280
0280
0280
ENDCHAR
STARTCHAR uni02A4
ENCODING 676
SWIDTH 600 0
DWIDTH 10 0
BBX 10 14 0 -3
BITMAP
00D000
00D000
00D000
2EFFE0
71D0C0
A0D280
D0D300
D0DA00
90DF80
71D0A0
2E9070
000060
0010D0
002F80
ENDCHAR
STARTCHAR uni02A6
ENCODING 678
SWIDTH 600 0
DWIDTH 10 0
BBX 9 11 0 0
BITMAP
040000
1C0000
1C0000
BFFF80
1C3440
1C3400
1C1A00
1C0280
1C00C0
0E02C0
06FE40
ENDCHAR
STARTCHAR uni02A7
ENCODING 679
SWIDTH 600 0
DWIDTH 10 0
BBX 10 14 0 -3
BITMAP
0D02D0
0D0700
0D0A00
7FFE00
0D0A00
0D0A00
0D0A00
0D0A00
0D0A00
0E0A00
07DA00
000A00
000A00
007800
ENDCHAR
STARTCHAR h.sups
ENCODING 688
SWIDTH 600 0
DWIDTH 10 0
BBX 6 9 2 5
BITMAP
1000
6000
6000
6B80
74D0
6090
6090
6090
1040
ENDCHAR
STARTCHAR j.sups
ENCODING 690
SWIDTH 600 0
DWIDTH 10 0
BBX 4 10 2 4
BITMAP
07
00
00
7F
03
03
03
03
06
BD
ENDCHAR
STARTCHAR r.sups
ENCODING 691
SWIDTH 600 0
DWIDTH 10 0
BBX 4 6 4 5
BITMAP
9F
E0
C0
C0
C0
40
ENDCHAR
STARTCHAR w.sups
ENCODING 695
SWIDTH 600 0
DWIDTH 10 0
BBX 7 5 1 6
BITMAP
C30C
9658
6994
68A0
38B0
ENDCHAR
STARTCHAR y.sups
ENCODING 696
SWIDTH 600 0
DWIDTH 10 0
BBX 5 7 2 4
BITMAP
9080
3080
2640
0A00
0A00
0C00
7400
ENDCHAR
STARTCHAR uni02B9
ENCODING 697
SWIDTH 600 0
DWIDTH 10 0
BBX 2 4 4 7
BITMAP
A0
A0
90
C0
ENDCHAR
STARTCHAR uni02BB
ENCODING 699
SWIDTH 600 0
DWIDTH 10 0
BBX 3 5 3 6
BITMAP
18
30
A0
B8
78
ENDCHAR
STARTCHAR uni02BC
ENCODING 700
SWIDTH 600 0
DWIDTH 10 0
BBX 3 5 3 6
BITMAP
78
7C
0C
18
60
ENDCHAR
STARTCHAR uni02BE
ENCODING 702
SWIDTH 600 0
DWIDTH 10 0
BBX 4 5 3 8
BITMAP
78
1D
0A
0D
78
ENDCHAR
STARTCHAR uni02BF
ENCODING 703
SWIDTH 600 0
DWIDTH 10 0
BBX 3 5 3 8
BITMAP
2C
A0
C0
A0
2C
ENDCHAR
STARTCHAR uni02C1
ENCODING 705
SWIDTH 600 0
DWIDTH 10 0
BBX 5 7 2 6
BITMAP
1F40
7080
6000
3400
1D00
0600
0500
ENDCHAR
STARTCHAR circumflex
ENCODING 710
SWIDTH 600 0
DWIDTH 10 0
BBX 5 3 2 9
BITMAP
1E00
3680
5080
ENDCHAR
STARTCHAR caron
ENCODING 711
SWIDTH 600 0
DWIDTH 10 0
BBX 5 3 2 9
BITMAP
5080
3680
1E00
ENDCHAR
STARTCHAR uni02C8
ENCODING 712
SWIDTH 600 0
DWIDTH 10 0
BBX 2 5 4 6
BITMAP
E0
E0
D0
90
90
ENDCHAR
STARTCHAR uni02C9
ENCODING 713
SWIDTH 600 0
DWIDTH 10 0
BBX 5 1 2 10
BITMAP
7FC0
ENDCHAR
STARTCHAR uni02CA
ENCODING 714
SWIDTH 600 0
DWIDTH 10 0
BBX 3 3 4 9
BITMAP
18
74
80
ENDCHAR
STARTCHAR uni02CB
ENCODING 715
SWIDTH 600 0
DWIDTH 10 0
BBX 3 3 3 9
BITMAP
80
B0
18
ENDCHAR
STARTCHAR uni02CC
ENCODING 716
SWIDTH 600 0
DWIDTH 10 0
BBX 2 5 4 -4
BITMAP
90
90
90
E0
E0
ENDCHAR
STARTCHAR uni02D0
ENCODING 720
SWIDTH 600 0
DWIDTH 10 0
BBX 3 8 3 0
BITMAP
BC
38
20
00
00
20
38
BC
ENDCHAR
STARTCHAR uni02D1
ENCODING 721
SWIDTH 600 0
DWIDTH 10 0
BBX 3 3 3 5
BITMAP
BC
38
20
ENDCHAR
STARTCHAR breve
ENCODING 728
SWIDTH 600 0
DWIDTH 10 0
BBX 6 3 2 9
BITMAP
9090
61C0
2F40
ENDCHAR
STARTCHAR dotaccent
ENCODING 729
SWIDTH 600 0
DWIDTH 10 0
BBX 2 2 4 9
BITMAP
E0
E0
ENDCHAR
STARTCHAR ring
ENCODING 730
SWIDTH 600 0
DWIDTH 10 0
BBX 4 4 3 9
BITMAP
78
C5
C5
78
ENDCHAR
STARTCHAR ogonek
ENCODING 731
SWIDTH 600 0
DWIDTH 10 0
BBX 4 4 3 -4
BITMAP
24
50
A0
7D
ENDCHAR
STARTCHAR tilde
ENCODING 732
SWIDTH 600 0
DWIDTH 10 0
BBX 6 3 2 9
BITMAP
1000
AD90
8780
ENDCHAR
STARTCHAR hungarumlaut
ENCODING 733
SWIDTH 600 0
DWIDTH 10 0
BBX 5 3 3 9
BITMAP
2580
6240
9600
ENDCHAR
STARTCHAR uni02DE
ENCODING 734
SWIDTH 600 0
DWIDTH 10 0
BBX 4 3 2 4
BITMAP
64
A8
0B
ENDCHAR
STARTCHAR uni02E0
ENCODING 736
SWIDTH 600 0
DWIDTH 10 0
BBX 5 7 2 4
BITMAP
60C0
3180
2640
1A00
0A00
1600
1E00
ENDCHAR
STARTCHAR l.sups
ENCODING 737
SWIDTH 600 0
DWIDTH 10 0
BBX 5 8 3 6
BITMAP
F400
2400
2400
2400
2400
2400
2800
0F40
ENDCHAR
STARTCHAR s.sups
ENCODING 738
SWIDTH 600 0
DWIDTH 10 0
BBX 4 5 3 6
BITMAP
BE
C1
15
43
BE
ENDCHAR
STARTCHAR x.sups
ENCODING 739
SWIDTH 600 0
DWIDTH 10 0
BBX 4 5 3 6
BITMAP
C7
69
38
69
C7
ENDCHAR
STARTCHAR uni02E4
ENCODING 740
SWIDTH 600 0
DWIDTH 10 0
BBX 5 8 2 6
BITMAP
1F40
7080
6000
3400
1900
0600
0600
0500
ENDCHAR
STARTCHAR uni0300
ENCODING 768
SWIDTH 600 0
DWIDTH 10 0
BBX 3 3 3 9
BITMAP
80
B0
18
ENDCHAR
STARTCHAR uni0301
ENCODING 769
SWIDTH 600 0
DWIDTH 10 0
BBX 3 3 4 9
BITMAP
18
74
80
ENDCHAR
STARTCHAR uni0302
ENCODING 770
SWIDTH 600 0
DWIDTH 10 0
BBX 5 3 2 9
BITMAP
1E00
3680
5080
ENDCHAR
STARTCHAR uni0303
ENCODING 771
SWIDTH 600 0
DWIDTH 10 0
BBX 6 3 2 9
BITMAP
1000
AD90
8780
ENDCHAR
STARTCHAR uni0304
ENCODING 772
SWIDTH 600 0
DWIDTH 10 0
BBX 5 1 2 10
BITMAP
7FC0
ENDCHAR
STARTCHAR uni0305
ENCODING 773
SWIDTH 600 0
DWIDTH 10 0
BBX 5 1 2 10
BITMAP
7FC0
ENDCHAR
STARTCHAR uni0306
ENCODING 774
SWIDTH 600 0
DWIDTH 10 0
BBX 6 3 2 9
BITMAP
9090
61C0
2F40
ENDCHAR
STARTCHAR uni0307
ENCODING 775
SWIDTH 600 0
DWIDTH 10 0
BBX 2 2 4 9
BITMAP
E0
E0
ENDCHAR
STARTCHAR uni0308
ENCODING 776
SWIDTH 600 0
DWIDTH 10 0
BBX 5 2 2 9
BITMAP
71C0
71C0
ENDCHAR
STARTCHAR uni0309
ENCODING 777
SWIDTH 600 0
DWIDTH 10 0
BBX 3 4 3 9
BITMAP
74
1C
1C
24
ENDCHAR
STARTCHAR uni030A
ENCODING 778
SWIDTH 600 0
DWIDTH 10 0
BBX 4 4 3 9
BITMAP
78
C5
C5
78
ENDCHAR
STARTCHAR uni030B
ENCODING 779
SWIDTH 600 0
DWIDTH 10 0
BBX 5 3 3 9
BITMAP
2580
6240
9600
ENDCHAR
STARTCHAR uni030C
ENCODING 780
SWIDTH 600 0
DWIDTH 10 0
BBX 5 3 2 9
BITMAP
5080
3680
1E00
ENDCHAR
STARTCHAR uni030F
ENCODING 783
SWIDTH 600 0
DWIDTH 10 0
BBX 5 3 2 9
BITMAP
8900
9600
2240
ENDCHAR
STARTCHAR uni0310
ENCODING 784
SWIDTH 600 0
DWIDTH 10 0
BBX 6 5 2 9
BITMAP
0900
0E00
8490
61C0
2F40
ENDCHAR
STARTCHAR uni0311
ENCODING 785
SWIDTH 600 0
DWIDTH 10 0
BBX 6 3 2 9
BITMAP
2F40
61C0
9090
ENDCHAR
STARTCHAR uni0312
ENCODING 786
SWIDTH 600 0
DWIDTH 10 0
BBX 2 3 4 9
BITMAP
50
80
90
ENDCHAR
STARTCHAR uni0313
ENCODING 787
SWIDTH 600 0
DWIDTH 10 0
BBX 2 3 4 9
BITMAP
90
60
80
ENDCHAR
STARTCHAR uni0318
ENCODING 792
SWIDTH 600 0
DWIDTH 10 0
BBX 4 3 3 -4
BITMAP
09
7D
09
ENDCHAR
STARTCHAR uni0319
ENCODING 793
SWIDTH 600 0
DWIDTH 10 0
BBX 3 3 3 -4
BITMAP
90
BC
90
ENDCHAR
STARTCHAR uni031A
ENCODING 794
SWIDTH 600 0
DWIDTH 10 0
BBX 3 3 3 8
BITMAP
7C
08
04
ENDCHAR
STARTCHAR uni031B
ENCODING 795
SWIDTH 600 0
DWIDTH 10 0
BBX 3 3 4 7
BITMAP
08
0C
64
ENDCHAR
STARTCHAR uni031C
ENCODING 796
SWIDTH 600 0
DWIDTH 10 0
BBX 3 3 3 -4
BITMAP
28
60
28
ENDCHAR
STARTCHAR uni031D
ENCODING 797
SWIDTH 600 0
DWIDTH 10 0
BBX 4 2 3 -3
BITMAP
24
FE
ENDCHAR
STARTCHAR uni031E
ENCODING 798
SWIDTH 600 0
DWIDTH 10 0
BBX 4 2 3 -4
BITMAP
FE
24
ENDCHAR
STARTCHAR uni031F
ENCODING 799
SWIDTH 600 0
DWIDTH 10 0
BBX 4 3 3 -4
BITMAP
24
FE
24
ENDCHAR
STARTCHAR uni0320
ENCODING 800
SWIDTH 600 0
DWIDTH 10 0
BBX 4 1 3 -3
BITMAP
FE
ENDCHAR
STARTCHAR uni0323
ENCODING 803
SWIDTH 600 0
DWIDTH 10 0
BBX 2 2 4 -4
BITMAP
E0
E0
ENDCHAR
STARTCHAR uni0324
ENCODING 804
SWIDTH 600 0
DWIDTH 10 0
BBX 5 2 2 -4
BITMAP
71C0
71C0
ENDCHAR
STARTCHAR uni0325
ENCODING 805
SWIDTH 600 0
DWIDTH 10 0
BBX 4 4 3 -4
BITMAP
78
C5
C5
78
ENDCHAR
STARTCHAR uni0326
ENCODING 806
SWIDTH 600 0
DWIDTH 10 0
BBX 3 3 3 -4
BITMAP
38
1C
A4
ENDCHAR
STARTCHAR uni0327
ENCODING 807
SWIDTH 600 0
DWIDTH 10 0
BBX 3 5 3 -5
BITMAP
20
38
1C
1C
A4
ENDCHAR
STARTCHAR uni0328
ENCODING 808
SWIDTH 600 0
DWIDTH 10 0
BBX 4 4 3 -4
BITMAP
24
50
A0
7D
ENDCHAR
STARTCHAR uni0329
ENCODING 809
SWIDTH 600 0
DWIDTH 10 0
BBX 2 3 4 -4
BITMAP
90
90
90
ENDCHAR
STARTCHAR uni032A
ENCODING 810
SWIDTH 600 0
DWIDTH 10 0
BBX 5 3 2 -4
BITMAP
7F80
6080
1040
ENDCHAR
STARTCHAR uni032C
ENCODING 812
SWIDTH 600 0
DWIDTH 10 0
BBX 5 3 2 -4
BITMAP
5080
3680
1E00
ENDCHAR
STARTCHAR uni032E
ENCODING 814
SWIDTH 600 0
DWIDTH 10 0
BBX 6 3 2 -4
BITMAP
9090
61C0
2F40
ENDCHAR
STARTCHAR uni032F
ENCODING 815
SWIDTH 600 0
DWIDTH 10 0
BBX 6 3 2 -4
BITMAP
2F40
61C0
9090
ENDCHAR
STARTCHAR uni0330
ENCODING 816
SWIDTH 600 0
DWIDTH 10 0
BBX 6 3 2 -4
BITMAP
1000
AD90
8780
ENDCHAR
STARTCHAR uni0331
ENCODING 817
SWIDTH 600 0
DWIDTH 10 0
BBX 5 1 2 -2
BITMAP
7FC0
ENDCHAR
STARTCHAR uni0334
ENCODING 820
SWIDTH 600 0
DWIDTH 10 0
BBX 6 3 2 3
BITMAP
1010
ED60
86D0
ENDCHAR
STARTCHAR uni0339
ENCODING 825
SWIDTH 600 0
DWIDTH 10 0
BBX 3 3 3 -4
BITMAP
74
1C
74
ENDCHAR
STARTCHAR uni033A
ENCODING 826
SWIDTH 600 0
DWIDTH 10 0
BBX 5 3 2 -4
BITMAP
1040
6080
7F80
ENDCHAR
STARTCHAR uni033B
ENCODING 827
SWIDTH 600 0
DWIDTH 10 0
BBX 5 3 2 -4
BITMAP
7F80
6080
7F80
ENDCHAR
STARTCHAR uni033C
ENCODING 828
SWIDTH 600 0
DWIDTH 10 0
BBX 6 2 2 -3
BITMAP
7AC0
8950
ENDCHAR
STARTCHAR uni033D
ENCODING 829
SWIDTH 600 0
DWIDTH 10 0
BBX 3 3 3 9
BITMAP
58
38
58
ENDCHAR
STARTCHAR uni0342
ENCODING 834
SWIDTH 600 0
DWIDTH 10 0
BBX 6 3 2 9
BITMAP
1000
AD90
8780
ENDCHAR
STARTCHAR uni0345
ENCODING 837
SWIDTH 600 0
DWIDTH 10 0
BBX 2 2 4 -3
BITMAP
90
70
ENDCHAR
STARTCHAR uni035F
ENCODING 863
SWIDTH 600 0
DWIDTH 10 0
BBX 16 1 -3 -3
BITMAP
FFFFFFFE
ENDCHAR
STARTCHAR uni0361
ENCODING 865
SWIDTH 600 0
DWIDTH 10 0
BBX 15 3 -3 9
BITMAP
01AFF900
1A5006E0
60000018
ENDCHAR
STARTCHAR uni0374
ENCODING 884
SWIDTH 600 0
DWIDTH 10 0
BBX 2 4 4 7
BITMAP
A0
A0
90
C0
ENDCHAR
STARTCHAR uni0375
ENCODING 885
SWIDTH 600 0
DWIDTH 10 0
BBX 2 4 4 0
BITMAP
50
90
D0
D0
ENDCHAR
STARTCHAR uni037A
ENCODING 890
SWIDTH 600 0
DWIDTH 10 0
BBX 2 2 4 -3
BITMAP
90
70
ENDCHAR
STARTCHAR uni037E
ENCODING 894
SWIDTH 600 0
DWIDTH 10 0
BBX 4 13 3 -4
BITMAP
78
7C
78
00
00
00
00
78
7D
0D
1C
74
40
ENDCHAR
STARTCHAR tonos
ENCODING 900
SWIDTH 600 0
DWIDTH 10 0
BBX 3 4 4 9
BITMAP
34
70
A0
90
ENDCHAR
STARTCHAR dieresistonos
ENCODING 901
SWIDTH 600 0
DWIDTH 10 0
BBX 6 4 2 9
BITMAP
0600
0600
99D0
0800
ENDCHAR
STARTCHAR Alphatonos
ENCODING 902
SWIDTH 600 0
DWIDTH 10 0
BBX 9 11 0 0
BITMAP
340000
30F000
31B400
62A800
635C00
070D00
0A0A00
0FFF00
1C0340
280280
3401C0
ENDCHAR
STARTCHAR anoteleia
ENCODING 903
SWIDTH 600 0
DWIDTH 10 0
BBX 3 3 3 6
BITMAP
78
7C
78
ENDCHAR
STARTCHAR Epsilontonos
ENCODING 904
SWIDTH 600 0
DWIDTH 10 0
BBX 9 11 0 0
BITMAP
300000
72FF40
624000
624000
924000
02FE00
024000
024000
024000
024000
02FF40
ENDCHAR
STARTCHAR Etatonos
ENCODING 905
SWIDTH 600 0
DWIDTH 10 0
BBX 9 11 0 0
BITMAP
300000
734240
634240
634240
934240
03FF40
034240
034240
034240
034240
034240
ENDCHAR
STARTCHAR Iotatonos
ENCODING 906
SWIDTH 600 0
DWIDTH 10 0
BBX 8 11 0 0
BITMAP
3000
73FF
6034
6034
9034
0034
0034
0034
0034
0034
03FF
ENDCHAR
STARTCHAR Omicrontonos
ENCODING 908
SWIDTH 600 0
DWIDTH 10 0
BBX 9 11 0 0
BITMAP
300000
70B900
638700
670240
9A0280
0A0180
0A0180
0A0280
070240
038700
00B900
ENDCHAR
STARTCHAR Upsilontonos
ENCODING 910
SWIDTH 600 0
DWIDTH 10 0
BBX 10 11 0 0
BITMAP
240000
364090
3180C0
70D280
60A300
003600
002D00
001C00
001C00
001C00
001C00
ENDCHAR
STARTCHAR Omegatonos
ENCODING 911
SWIDTH 600 0
DWIDTH 10 0
BBX 9 11 0 0
BITMAP
300000
70B900
638700
670340
9A0280
0A0280
0A0280
060280
030340
028600
0FCBC0
ENDCHAR
STARTCHAR iotadieresistonos
ENCODING 912
SWIDTH 600 0
DWIDTH 10 0
BBX 8 13 1 0
BITMAP
0180
0240
2770
0200
0000
BF40
0340
0340
0340
0340
0340
0280
01FD
ENDCHAR
STARTCHAR Alpha
ENCODING 913
SWIDTH 600 0
DWIDTH 10 0
BBX 9 10 0 0
BITMAP
00E000
01B000
036400
071800
0A0C00
0D0900
1FFF00
280340
340280
7001C0
ENDCHAR
STARTCHAR Beta
ENCODING 914
SWIDTH 600 0
DWIDTH 10 0
BBX 8 10 1 0
BITMAP
7FE4
702C
701C
7028
7FE4
701D
700A
700A
701D
7FE4
ENDCHAR
STARTCHAR Gamma
ENCODING 915
SWIDTH 600 0
DWIDTH 10 0
BBX 7 10 2 0
BITMAP
FFF8
D000
D000
D000
D000
D000
D000
D000
D000
D000
ENDCHAR
STARTCHAR uni0394
ENCODING 916
SWIDTH 600 0
DWIDTH 10 0
BBX 9 10 0 0
BITMAP
00E000
02B000
036400
071800
0A0D00
0D0A00
1C0700
280340
340280
7FFFC0
ENDCHAR
STARTCHAR Epsilon
ENCODING 917
SWIDTH 600 0
DWIDTH 10 0
BBX 8 10 1 0
BITMAP
7FFD
7400
7400
7400
7FF8
7400
7400
7400
7400
7FFD
ENDCHAR
STARTCHAR Zeta
ENCODING 918
SWIDTH 600 0
DWIDTH 10 0
BBX 8 10 1 0
BITMAP
7FFE
001C
0074
00A0
0280
0740
0D00
2800
7000
FFFE
ENDCHAR
STARTCHAR Eta
ENCODING 919
SWIDTH 600 0
DWIDTH 10 0
BBX 8 10 1 0
BITMAP
A00D
A00D
A00D
A00D
BFFD
A00D
A00D
A00D
A00D
A00D
ENDCHAR
STARTCHAR Theta
ENCODING 920
SWIDTH 600 0
DWIDTH 10 0
BBX 9 10 0 0
BITMAP
06F800
1D0A00
280340
340280
76F680
740280
340280
280340
1E0A00
06F800
ENDCHAR
STARTCHAR Iota
ENCODING 921
SWIDTH 600 0
DWIDTH 10 0
BBX 7 10 1 0
BITMAP
7FFC
0340
0340
0340
0340
0340
0340
0340
0340
7FFC
ENDCHAR
STARTCHAR Kappa
ENCODING 922
SWIDTH 600 0
DWIDTH 10 0
BBX 8 10 1 0
BITMAP
700D
7038
70A0
7280
7BC0
7CA0
7474
7028
700D
700B
ENDCHAR
STARTCHAR Lambda
ENCODING 923
SWIDTH 600 0
DWIDTH 10 0
BBX 8 10 1 0
BITMAP
0380
06C0
0990
0CA0
1870
2434
3028
601C
A00D
D00A
ENDCHAR
STARTCHAR Mu
ENCODING 924
SWIDTH 600 0
DWIDTH 10 0
BBX 8 10 1 0
BITMAP
F01D
F42D
E839
DC69
D999
D6C9
D389
D109
D009
D009
ENDCHAR
STARTCHAR Nu
ENCODING 925
SWIDTH 600 0
DWIDTH 10 0
BBX 8 10 1 0
BITMAP
B00D
B80D
AC0D
AA0D
A34D
A28D
A0DD
A0AD
A03D
A01D
ENDCHAR
STARTCHAR Xi
ENCODING 926
SWIDTH 600 0
DWIDTH 10 0
BBX 8 10 1 0
BITMAP
BFFD
0000
0000
0000
2FF4
0000
0000
0000
0000
FFFD
ENDCHAR
STARTCHAR Omicron
ENCODING 927
SWIDTH 600 0
DWIDTH 10 0
BBX 9 10 0 0
BITMAP
06F800
1D0A00
280340
340280
740280
740280
340280
280340
1D0A00
06F800
ENDCHAR
STARTCHAR Pi
ENCODING 928
SWIDTH 600 0
DWIDTH 10 0
BBX 8 10 1 0
BITMAP
BFFD
A00D
A00D
A00D
A00D
A00D
A00D
A00D
A00D
A00D
ENDCHAR
STARTCHAR Rho
ENCODING 929
SWIDTH 600 0
DWIDTH 10 0
BBX 8 10 1 0
BITMAP
7FE4
701D
700A
700A
701D
7FE4
7000
7000
7000
7000
ENDCHAR
STARTCHAR Sigma
ENCODING 931
SWIDTH 600 0
DWIDTH 10 0
BBX 8 10 1 0
BITMAP
BFFC
3400
1D00
0700
0280
0280
0700
1C00
3400
BFFE
ENDCHAR
STARTCHAR Tau
ENCODING 932
SWIDTH 600 0
DWIDTH 10 0
BBX 9 10 0 0
BITMAP
7FFFC0
00D000
00D000
00D000
00D000
00D000
00D000
00D000
00D000
00D000
ENDCHAR
STARTCHAR Upsilon
ENCODING 933
SWIDTH 600 0
DWIDTH 10 0
BBX 8 10 1 0
BITMAP
D00A
A00D
3428
1C70
0DA0
07C0
0380
0340
0340
0340
ENDCHAR
STARTCHAR Phi
ENCODING 934
SWIDTH 600 0
DWIDTH 10 0
BBX 9 10 0 0
BITMAP
009000
0BF900
299740
7091C0
A090C0
A091C0
7091C0
299740
0BF900
009000
ENDCHAR
STARTCHAR Chi
ENCODING 935
SWIDTH 600 0
DWIDTH 10 0
BBX 8 10 1 0
BITMAP
A01D
3428
1C70
0A90
0780
07C0
0DA0
2874
7028
A00D
ENDCHAR
STARTCHAR Psi
ENCODING 936
SWIDTH 600 0
DWIDTH 10 0
BBX 9 10 0 0
BITMAP
70D1C0
70D1C0
70D1C0
30D280
28D740
0BF900
00D000
00D000
00D000
00D000
ENDCHAR
STARTCHAR uni03A9
ENCODING 937
SWIDTH 600 0
DWIDTH 10 0
BBX 9 10 0 0
BITMAP
06F800
1D0A00
280340
340280
740280
340280
340280
280300
090900
7F1FC0
ENDCHAR
STARTCHAR Iotadieresis
ENCODING 938
SWIDTH 600 0
DWIDTH 10 0
BBX 7 13 1 0
BITMAP
1C70
1C70
0000
7FFC
0340
0340
0340
0340
0340
0340
0340
0340
7FFC
ENDCHAR
STARTCHAR Upsilondieresis
ENCODING 939
SWIDTH 600 0
DWIDTH 10 0
BBX 8 13 1 0
BITMAP
1C70
1C70
0000
D00A
A00D
3428
1C70
0DA0
07C0
0380
0340
0340
0340
ENDCHAR
STARTCHAR alphatonos
ENCODING 940
SWIDTH 600 0
DWIDTH 10 0
BBX 8 13 1 0
BITMAP
00A0
00D0
00C0
0180
0000
1F8A
746D
A02D
D01C
D01C
D018
7468
2F8F
ENDCHAR
STARTCHAR epsilontonos
ENCODING 941
SWIDTH 600 0
DWIDTH 10 0
BBX 8 13 1 0
BITMAP
00A0
00A0
00D0
00C0
0000
1BE4
3818
3400
1FD0
7400
6000
7419
1BF8
ENDCHAR
STARTCHAR etatonos
ENCODING 942
SWIDTH 600 0
DWIDTH 10 0
BBX 8 16 1 -3
BITMAP
00A0
00D0
00C0
0180
0000
62F4
791C
700C
700D
700D
700D
700D
700D
000D
000D
000D
ENDCHAR
STARTCHAR iotatonos
ENCODING 943
SWIDTH 600 0
DWIDTH 10 0
BBX 8 13 1 0
BITMAP
0180
0280
0240
0300
0000
BF40
0340
0340
0340
0340
0340
0280
01FD
ENDCHAR
STARTCHAR upsilondieresistonos
ENCODING 944
SWIDTH 600 0
DWIDTH 10 0
BBX 8 13 1 0
BITMAP
0180
0180
2670
0200
0000
A018
A01C
A00D
A00D
A00D
A01C
7468
1BE0
ENDCHAR
STARTCHAR alpha
ENCODING 945
SWIDTH 600 0
DWIDTH 10 0
BBX 8 8 1 0
BITMAP
1F8A
746D
A02D
D01C
D01C
D018
7468
2F8F
ENDCHAR
STARTCHAR beta
ENCODING 946
SWIDTH 600 0
DWIDTH 10 0
BBX 8 14 1 -3
BITMAP
1BE0
3874
7028
6028
A0A0
A2E4
A01D
A00A
A00A
B41D
A7E4
A000
A000
A000
ENDCHAR
STARTCHAR gamma
ENCODING 947
SWIDTH 600 0
DWIDTH 10 0
BBX 8 12 1 -3
BITMAP
4000
E009
740D
281C
1C24
0D30
0A90
0780
0340
0340
0340
0340
ENDCHAR
STARTCHAR delta
ENCODING 948
SWIDTH 600 0
DWIDTH 10 0
BBX 8 11 1 0
BITMAP
1FE8
3418
3800
0A40
07E0
3828
A00D
D00A
E00D
742C
1BE0
ENDCHAR
STARTCHAR epsilon
ENCODING 949
SWIDTH 600 0
DWIDTH 10 0
BBX 8 8 1 0
BITMAP
1BE4
3818
3400
1FD0
7400
6000
7419
1BF8
ENDCHAR
STARTCHAR zeta
ENCODING 950
SWIDTH 600 0
DWIDTH 10 0
BBX 7 14 2 -3
BITMAP
BFF4
00A0
0740
1D00
3400
A000
D000
D000
D000
B400
1FD0
0074
0034
0060
ENDCHAR
STARTCHAR eta
ENCODING 951
SWIDTH 600 0
DWIDTH 10 0
BBX 8 11 1 -3
BITMAP
62F4
791C
700C
700D
700D
700D
700D
700D
000D
000D
000D
ENDCHAR
STARTCHAR theta
ENCODING 952
SWIDTH 600 0
DWIDTH 10 0
BBX 8 11 1 0
BITMAP
0BE0
3878
701C
A00D
900D
FFFD
900D
A00D
701C
3878
0BE0
ENDCHAR
STARTCHAR iota
ENCODING 953
SWIDTH 600 0
DWIDTH 10 0
BBX 8 8 1 0
BITMAP
BF40
0340
0340
0340
0340
0340
0280
01FD
ENDCHAR
STARTCHAR kappa
ENCODING 954
SWIDTH 600 0
DWIDTH 10 0
BBX 8 8 1 0
BITMAP
700A
7078
71D0
77C0
7DE0
7474
702C
700A
ENDCHAR
STARTCHAR lambda
ENCODING 955
SWIDTH 600 0
DWIDTH 10 0
BBX 8 11 1 0
BITMAP
B900
0B00
0340
02C0
03D0
06A0
0D70
1C34
342C
700D
E00A
ENDCHAR
STARTCHAR uni03BC
ENCODING 956
SWIDTH 600 0
DWIDTH 10 0
BBX 8 11 1 -3
BITMAP
A01C
A01C
A01C
A01C
A01C
A01C
B46C
AF8E
A000
A000
A000
ENDCHAR
STARTCHAR nu
ENCODING 957
SWIDTH 600 0
DWIDTH 10 0
BBX 8 9 1 0
BITMAP
4000
E00A
700D
281C
1C28
0D34
0A60
07D0
0380
ENDCHAR
STARTCHAR xi
ENCODING 958
SWIDTH 600 0
DWIDTH 10 0
BBX 8 14 1 -3
BITMAP
BFFD
0A00
1C00
1C00
0A00
07F4
1D00
3400
3400
2D00
0BF8
001D
000D
0018
ENDCHAR
STARTCHAR omicron
ENCODING 959
SWIDTH 600 0
DWIDTH 10 0
BBX 8 8 1 0
BITMAP
1BE0
7428
A00D
D00E
D00E
A00D
7428
1BE0
ENDCHAR
STARTCHAR pi
ENCODING 960
SWIDTH 600 0
DWIDTH 10 0
BBX 10 8 0 0
BITMAP
BFFFD0
0D0A00
0D0A00
0D0A00
0D0A00
0D0A00
0C0A00
1C0780
ENDCHAR
STARTCHAR rho
ENCODING 961
SWIDTH 600 0
DWIDTH 10 0
BBX 8 11 1 -3
BITMAP
0BE4
282C
700D
600A
A00A
A00D
B428
ABE0
A000
A000
A000
ENDCHAR
STARTCHAR uni03C2
ENCODING 962
SWIDTH 600 0
DWIDTH 10 0
BBX 7 11 1 -3
BITMAP
07F8
2D18
7400
B000
B000
7400
2D00
06E4
002C
0018
0024
ENDCHAR
STARTCHAR sigma
ENCODING 963
SWIDTH 600 0
DWIDTH 10 0
BBX 8 8 1 0
BITMAP
1BFF
7474
A01C
D00C
D00D
A01C
7474
1BD0
ENDCHAR
STARTCHAR tau
ENCODING 964
SWIDTH 600 0
DWIDTH 10 0
BBX 8 8 1 0
BITMAP
FFFE
0340
0340
0340
0340
0340
0280
01F4
ENDCHAR
STARTCHAR upsilon
ENCODING 965
SWIDTH 600 0
DWIDTH 10 0
BBX 8 8 1 0
BITMAP
A018
A01C
A00D
A00D
A00D
A01C
7468
1BE0
ENDCHAR
STARTCHAR phi
ENCODING 966
SWIDTH 600 0
DWIDTH 10 0
BBX 9 13 0 -3
BITMAP
00D000
00D000
07F900
1DD700
34D280
70D2C0
70D2C0
34D280
1DD700
07F900
00D000
00D000
00D000
ENDCHAR
STARTCHAR chi
ENCODING 967
SWIDTH 600 0
DWIDTH 10 0
BBX 8 11 1 -3
BITMAP
A01D
7428
2C70
0EE0
07C0
0380
07D0
0DA0
2834
741C
A00A
ENDCHAR
STARTCHAR psi
ENCODING 968
SWIDTH 600 0
DWIDTH 10 0
BBX 8 13 1 -3
BITMAP
0240
0240
D249
D24A
D24A
D246
D246
D24A
A29C
2FE4
0240
0240
0240
ENDCHAR
STARTCHAR omega
ENCODING 969
SWIDTH 600 0
DWIDTH 10 0
BBX 9 8 0 0
BITMAP
180600
280340
700280
70D1C0
7091C0
7091C0
35E280
1F6E00
ENDCHAR
STARTCHAR iotadieresis
ENCODING 970
SWIDTH 600 0
DWIDTH 10 0
BBX 8 11 1 0
BITMAP
28A0
28A0
0000
BF40
0340
0340
0340
0340
0340
0280
01FD
ENDCHAR
STARTCHAR upsilondieresis
ENCODING 971
SWIDTH 600 0
DWIDTH 10 0
BBX 8 11 1 0
BITMAP
1C70
1C70
0000
A018
A01C
A00D
A00D
A00D
A01C
7468
1BE0
ENDCHAR
STARTCHAR omicrontonos
ENCODING 972
SWIDTH 600 0
DWIDTH 10 0
BBX 8 13 1 0
BITMAP
00D0
01C0
0280
0240
0000
1BE0
7428
A00D
D00E
D00E
A00D
7428
1BE0
ENDCHAR
STARTCHAR upsilontonos
ENCODING 973
SWIDTH 600 0
DWIDTH 10 0
BBX 8 13 1 0
BITMAP
00C0
01C0
0280
0240
0000
A018
A01C
A00D
A00D
A00D
A01C
7468
1BE0
ENDCHAR
STARTCHAR omegatonos
ENCODING 974
SWIDTH 600 0
DWIDTH 10 0
BBX 9 13 0 0
BITMAP
003400
007000
00A000
009000
000000
180600
280340
700280
70D1C0
7091C0
7091C0
35E280
1F6E00
ENDCHAR
STARTCHAR uni03D0
ENCODING 976
SWIDTH 600 0
DWIDTH 10 0
BBX 8 11 1 0
BITMAP
1BD0
3874
7028
A028
A0A0
BBE4
B41D
A00A
700A
281D
0BE4
ENDCHAR
STARTCHAR uni03D1
ENCODING 977
SWIDTH 600 0
DWIDTH 10 0
BBX 8 11 1 0
BITMAP
1FD0
7474
A01C
A00D
740D
1BFD
100D
600D
701C
3428
1BE0
ENDCHAR
STARTCHAR uni03D5
ENCODING 981
SWIDTH 600 0
DWIDTH 10 0
BBX 9 13 0 -3
BITMAP
00D000
00D000
07F900
1DD700
34D280
70D2C0
70D2C0
34D280
1DD700
07F900
00D000
00D000
00D000
ENDCHAR
STARTCHAR uni03D7
ENCODING 983
SWIDTH 600 0
DWIDTH 10 0
BBX 8 11 1 -3
BITMAP
700A
7078
71D0
77C0
7DE0
7474
702C
700A
000A
001D
0034
ENDCHAR
STARTCHAR uni03D9
ENCODING 985
SWIDTH 600 0
DWIDTH 10 0
BBX 8 11 1 -3
BITMAP
1BE0
7428
A00D
D00A
D00A
A00D
7428
1BE0
0240
0240
0280
ENDCHAR
STARTCHAR uni03DB
ENCODING 987
SWIDTH 600 0
DWIDTH 10 0
BBX 8 11 1 -3
BITMAP
0AFD
2D00
7400
7000
B000
7400
2D00
06E4
002C
0018
0024
ENDCHAR
STARTCHAR uni03DD
ENCODING 989
SWIDTH 600 0
DWIDTH 10 0
BBX 7 11 2 -3
BITMAP
BFF4
A000
A000
A000
A550
BAA0
A000
A000
A000
A000
A000
ENDCHAR
STARTCHAR uni03E1
ENCODING 993
SWIDTH 600 0
DWIDTH 10 0
BBX 8 14 1 -3
BITMAP
2400
1E00
0740
01D0
00A0
06F4
7D28
501C
01BD
1F4D
140D
000D
000D
000D
ENDCHAR
STARTCHAR uni0400
ENCODING 1024
SWIDTH 600 0
DWIDTH 10 0
BBX 8 14 1 0
BITMAP
0600
0780
0080
0000
7FFD
7400
7400
7400
7FF8
7400
7400
7400
7400
7FFD
ENDCHAR
STARTCHAR uni0401
ENCODING 1025
SWIDTH 600 0
DWIDTH 10 0
BBX 8 13 1 0
BITMAP
0934
0934
0000
7FFD
7400
7400
7400
7FF8
7400
7400
7400
7400
7FFD
ENDCHAR
STARTCHAR uni0402
ENCODING 1026
SWIDTH 600 0
DWIDTH 10 0
BBX 10 10 0 0
BITMAP
FFFD00
070000
070000
070000
07FE00
074280
0701C0
0700D0
0702C0
071E40
ENDCHAR
STARTCHAR uni0403
ENCODING 1027
SWIDTH 600 0
DWIDTH 10 0
BBX 7 14 2 0
BITMAP
0140
0740
0800
0000
FFF8
D000
D000
D000
D000
D000
D000
D000
D000
D000
ENDCHAR
STARTCHAR uni0404
ENCODING 1028
SWIDTH 600 0
DWIDTH 10 0
BBX 8 10 1 0
BITMAP
0BF8
2909
7000
A000
FFE0
D000
A000
7000
290A
0BF8
ENDCHAR
STARTCHAR uni0405
ENCODING 1029
SWIDTH 600 0
DWIDTH 10 0
BBX 8 10 1 0
BITMAP
1BE4
3418
7000
7800
1F90
01B8
001D
000A
B41D
2BE4
ENDCHAR
STARTCHAR uni0406
ENCODING 1030
SWIDTH 600 0
DWIDTH 10 0
BBX 7 10 1 0
BITMAP
7FFC
0340
0340
0340
0340
0340
0340
0340
0340
7FFC
ENDCHAR
STARTCHAR uni0407
ENCODING 1031
SWIDTH 600 0
DWIDTH 10 0
BBX 7 13 1 0
BITMAP
1C70
1C70
0000
7FFC
0340
0340
0340
0340
0340
0340
0340
0340
7FFC
ENDCHAR
STARTCHAR uni0408
ENCODING 1032
SWIDTH 600 0
DWIDTH 10 0
BBX 7 10 1 0
BITMAP
3FFC
001C
001C
001C
001C
001C
001C
0028
6474
2FD0
ENDCHAR
STARTCHAR uni0409
ENCODING 1033
SWIDTH 600 0
DWIDTH 10 0
BBX 9 10 0 0
BITMAP
0FE000
1CA000
1CA000
1CA000
18BE00
18A2C0
28A0C0
24A0C0
34A280
E0BE00
ENDCHAR
STARTCHAR uni040A
ENCODING 1034
SWIDTH 600 0
DWIDTH 10 0
BBX 9 10 0 0
BITMAP
709000
709000
709000
709000
7FFE00
7092C0
7090C0
7090C0
709280
70BE00
ENDCHAR
STARTCHAR uni040B
ENCODING 1035
SWIDTH 600 0
DWIDTH 10 0
BBX 9 10 0 0
BITMAP
FFFD00
070000
070000
070000
07FE00
074280
0701C0
0701C0
0701C0
0701C0
ENDCHAR
STARTCHAR uni040C
ENCODING 1036
SWIDTH 600 0
DWIDTH 10 0
BBX 8 14 1 0
BITMAP
0060
01D0
0240
0000
700B
7028
7070
70D0
7FC0
70D0
7070
7028
700D
700B
ENDCHAR
STARTCHAR uni040D
ENCODING 1037
SWIDTH 600 0
DWIDTH 10 0
BBX 8 14 1 0
BITMAP
0900
0740
0180
0000
A01D
A03D
A0A9
A0DD
A28D
A74D
9A0D
AC0D
B80D
B00D
ENDCHAR
STARTCHAR uni040E
ENCODING 1038
SWIDTH 600 0
DWIDTH 10 0
BBX 8 13 1 0
BITMAP
1870
0BD0
0000
D00A
B00D
3418
2834
0D70
0AA0
03C0
0280
0740
3D00
ENDCHAR
STARTCHAR uni040F
ENCODING 1039
SWIDTH 600 0
DWIDTH 10 0
BBX 8 13 1 -3
BITMAP
A00D
A00D
A00D
A00D
A00D
A00D
A00D
A00D
A00D
BFFD
0240
0240
0240
ENDCHAR
STARTCHAR uni0410
ENCODING 1040
SWIDTH 600 0
DWIDTH 10 0
BBX 9 10 0 0
BITMAP
00E000
01B000
036400
071800
0A0C00
0D0900
1FFF00
280340
340280
7001C0
ENDCHAR
STARTCHAR uni0411
ENCODING 1041
SWIDTH 600 0
DWIDTH 10 0
BBX 8 10 1 0
BITMAP
7FFC
7000
7000
7000
7FE4
701D
700A
700A
701D
7FE4
ENDCHAR
STARTCHAR uni0412
ENCODING 1042
SWIDTH 600 0
DWIDTH 10 0
BBX 8 10 1 0
BITMAP
7FE4
702C
701C
7028
7FE4
701D
700A
700A
701D
7FE4
ENDCHAR
STARTCHAR uni0413
ENCODING 1043
SWIDTH 600 0
DWIDTH 10 0
BBX 7 10 2 0
BITMAP
FFF8
D000
D000
D000
D000
D000
D000
D000
D000
D000
ENDCHAR
STARTCHAR uni0414
ENCODING 1044
SWIDTH 600 0
DWIDTH 10 0
BBX 10 13 0 -3
BITMAP
03FF00
070700
070700
0A0700
0A0700
0D0700
0D0700
1C0700
280700
BFFFD0
A000D0
A000D0
A000C0
ENDCHAR
STARTCHAR uni0415
ENCODING 1045
SWIDTH 600 0
DWIDTH 10 0
BBX 8 10 1 0
BITMAP
7FFD
7400
7400
7400
7FF8
7400
7400
7400
7400
7FFD
ENDCHAR
STARTCHAR uni0416
ENCODING 1046
SWIDTH 600 0
DWIDTH 10 0
BBX 10 10 0 0
BITMAP
E091D0
289340
1C9700
0D9A00
0FFD00
1C9600
289340
349280
7091C0
A090D0
ENDCHAR
STARTCHAR uni0417
ENCODING 1047
SWIDTH 600 0
DWIDTH 10 0
BBX 8 10 1 0
BITMAP
2FE0
642C
001C
0068
0BF4
002D
000A
000A
A42C
2FE4
ENDCHAR
STARTCHAR uni0418
ENCODING 1048
SWIDTH 600 0
DWIDTH 10 0
BBX 8 10 1 0
BITMAP
A01D
A03D
A0A9
A0DD
A28D
A74D
9A0D
AC0D
B80D
B00D
ENDCHAR
STARTCHAR uni0419
ENCODING 1049
SWIDTH 600 0
DWIDTH 10 0
BBX 8 13 1 0
BITMAP
1870
0BD0
0000
A01D
A03D
A0A9
A0DD
A28D
A74D
9A0D
AC0D
B80D
B00D
ENDCHAR
STARTCHAR uni041A
ENCODING 1050
SWIDTH 600 0
DWIDTH 10 0
BBX 8 10 1 0
BITMAP
700B
7028
7070
70D0
7FC0
70D0
7070
7028
700D
700B
ENDCHAR
STARTCHAR uni041B
ENCODING 1051
SWIDTH 600 0
DWIDTH 10 0
BBX 9 10 0 0
BITMAP
02FF40
034340
030340
070340
0A0340
0A0340
0D0340
1C0340
280340
F40340
ENDCHAR
STARTCHAR uni041C
ENCODING 1052
SWIDTH 600 0
DWIDTH 10 0
BBX 8 10 1 0
BITMAP
F01D
F42D
E839
DC69
D999
D6C9
D389
D109
D009
D009
ENDCHAR
STARTCHAR uni041D
ENCODING 1053
SWIDTH 600 0
DWIDTH 10 0
BBX 8 10 1 0
BITMAP
A00D
A00D
A00D
A00D
BFFD
A00D
A00D
A00D
A00D
A00D
ENDCHAR
STARTCHAR uni041E
ENCODING 1054
SWIDTH 600 0
DWIDTH 10 0
BBX 9 10 0 0
BITMAP
06F800
1D0A00
280340
340280
740280
740280
340280
280340
1D0A00
06F800
ENDCHAR
STARTCHAR uni041F
ENCODING 1055
SWIDTH 600 0
DWIDTH 10 0
BBX 8 10 1 0
BITMAP
BFFD
A00D
A00D
A00D
A00D
A00D
A00D
A00D
A00D
A00D
ENDCHAR
STARTCHAR uni0420
ENCODING 1056
SWIDTH 600 0
DWIDTH 10 0
BBX 8 10 1 0
BITMAP
7FE4
701D
700A
700A
701D
7FE4
7000
7000
7000
7000
ENDCHAR
STARTCHAR uni0421
ENCODING 1057
SWIDTH 600 0
DWIDTH 10 0
BBX 8 10 1 0
BITMAP
07F8
2D09
7000
A000
D000
D000
A000
7000
2D0A
0BF8
ENDCHAR
STARTCHAR uni0422
ENCODING 1058
SWIDTH 600 0
DWIDTH 10 0
BBX 9 10 0 0
BITMAP
7FFFC0
00D000
00D000
00D000
00D000
00D000
00D000
00D000
00D000
00D000
ENDCHAR
STARTCHAR uni0423
ENCODING 1059
SWIDTH 600 0
DWIDTH 10 0
BBX 8 10 1 0
BITMAP
D00A
B00D
3418
2834
0D70
0AA0
03C0
0280
0740
3D00
ENDCHAR
STARTCHAR uni0424
ENCODING 1060
SWIDTH 600 0
DWIDTH 10 0
BBX 9 10 0 0
BITMAP
009000
0BF900
389780
7091C0
A090C0
7091C0
389780
0BF900
009000
009000
ENDCHAR
STARTCHAR uni0425
ENCODING 1061
SWIDTH 600 0
DWIDTH 10 0
BBX 8 10 1 0
BITMAP
A01D
3428
1C70
0A90
0780
07C0
0DA0
2874
7028
A00D
ENDCHAR
STARTCHAR uni0426
ENCODING 1062
SWIDTH 600 0
DWIDTH 10 0
BBX 9 13 1 -3
BITMAP
A00D00
A00D00
A00D00
A00D00
A00D00
A00D00
A00D00
A00D00
A00D00
BFFF40
000240
000240
000240
ENDCHAR
STARTCHAR uni0427
ENCODING 1063
SWIDTH 600 0
DWIDTH 10 0
BBX 8 10 1 0
BITMAP
D00D
D00D
D00D
E00D
B41D
1FFD
000D
000D
000D
000D
ENDCHAR
STARTCHAR uni0428
ENCODING 1064
SWIDTH 600 0
DWIDTH 10 0
BBX 9 10 0 0
BITMAP
7091C0
7091C0
7091C0
7091C0
7091C0
7091C0
7091C0
7091C0
7091C0
7FFFC0
ENDCHAR
STARTCHAR uni0429
ENCODING 1065
SWIDTH 600 0
DWIDTH 10 0
BBX 10 13 0 -3
BITMAP
60C240
60C240
60C240
60C240
60C240
60C240
60C240
60C240
60C240
7FFFD0
000090
000090
000090
ENDCHAR
STARTCHAR uni042A
ENCODING 1066
SWIDTH 600 0
DWIDTH 10 0
BBX 9 10 0 0
BITMAP
BF8000
028000
028000
028000
02FE00
028680
0281C0
0281C0
028680
02FE00
ENDCHAR
STARTCHAR uni042B
ENCODING 1067
SWIDTH 600 0
DWIDTH 10 0
BBX 8 10 1 0
BITMAP
C00A
C00A
C00A
C00A
FE0A
C28A
C0CA
C0CA
C28A
FE0A
ENDCHAR
STARTCHAR uni042C
ENCODING 1068
SWIDTH 600 0
DWIDTH 10 0
BBX 8 10 1 0
BITMAP
7000
7000
7000
7000
7FE4
701D
700A
700A
701D
7FE4
ENDCHAR
STARTCHAR uni042D
ENCODING 1069
SWIDTH 600 0
DWIDTH 10 0
BBX 8 10 1 0
BITMAP
6F90
9074
001C
000D
1FFE
000E
000D
001C
D074
6F90
ENDCHAR
STARTCHAR uni042E
ENCODING 1070
SWIDTH 600 0
DWIDTH 10 0
BBX 9 10 0 0
BITMAP
707E00
71D340
728280
7281C0
7F81C0
7281C0
7281C0
718280
70D740
707E00
ENDCHAR
STARTCHAR uni042F
ENCODING 1071
SWIDTH 600 0
DWIDTH 10 0
BBX 8 10 0 0
BITMAP
0BFF
2D07
3407
3407
2D07
07FF
0347
0A07
1C07
7407
ENDCHAR
STARTCHAR uni0430
ENCODING 1072
SWIDTH 600 0
DWIDTH 10 0
BBX 8 8 1 0
BITMAP
1BE0
2428
001C
06FD
790D
A00D
B06D
2F8D
ENDCHAR
STARTCHAR uni0431
ENCODING 1073
SWIDTH 600 0
DWIDTH 10 0
BBX 8 11 1 0
BITMAP
016C
1F94
3800
7000
ABE4
B42C
A00D
A00D
600D
3828
0BE0
ENDCHAR
STARTCHAR uni0432
ENCODING 1074
SWIDTH 600 0
DWIDTH 10 0
BBX 8 8 1 0
BITMAP
7FF4
701D
701C
7FF4
701D
700A
701D
7FF4
ENDCHAR
STARTCHAR uni0433
ENCODING 1075
SWIDTH 600 0
DWIDTH 10 0
BBX 7 8 2 0
BITMAP
BFF4
A000
A000
A000
A000
A000
A000
A000
ENDCHAR
STARTCHAR uni0434
ENCODING 1076
SWIDTH 600 0
DWIDTH 10 0
BBX 9 11 0 -3
BITMAP
07FE00
0A0A00
090A00
0D0A00
0D0A00
1C0A00
280A00
7FFFC0
7001C0
7001C0
700180
ENDCHAR
STARTCHAR uni0435
ENCODING 1077
SWIDTH 600 0
DWIDTH 10 0
BBX 8 8 1 0
BITMAP
0BE4
341C
A009
FFFE
E000
B000
3918
0BE8
ENDCHAR
STARTCHAR uni0436
ENCODING 1078
SWIDTH 600 0
DWIDTH 10 0
BBX 10 8 0 0
BITMAP
A0D1D0
28D340
0CD600
0FFE00
1CD700
28D340
70D280
A0D0D0
ENDCHAR
STARTCHAR uni0437
ENCODING 1079
SWIDTH 600 0
DWIDTH 10 0
BBX 7 8 1 0
BITMAP
2FE0
5028
0028
0FE0
002C
001C
902C
6FE0
ENDCHAR
STARTCHAR uni0438
ENCODING 1080
SWIDTH 600 0
DWIDTH 10 0
BBX 7 8 1 0
BITMAP
702C
707C
70AC
719C
731C
691C
781C
701C
ENDCHAR
STARTCHAR uni0439
ENCODING 1081
SWIDTH 600 0
DWIDTH 10 0
BBX 7 12 1 0
BITMAP
1824
1C70
07D0
0000
702C
707C
70AC
719C
731C
691C
781C
701C
ENDCHAR
STARTCHAR uni043A
ENCODING 1082
SWIDTH 600 0
DWIDTH 10 0
BBX 8 8 1 0
BITMAP
701E
7034
70A0
7FD0
70A0
7034
701C
700A
ENDCHAR
STARTCHAR uni043B
ENCODING 1083
SWIDTH 600 0
DWIDTH 10 0
BBX 8 8 0 0
BITMAP
07FF
0607
0A07
0907
0907
0D07
1C07
7407
ENDCHAR
STARTCHAR uni043C
ENCODING 1084
SWIDTH 600 0
DWIDTH 10 0
BBX 8 8 1 0
BITMAP
E01E
F42E
E83A
DC6A
D99A
D6CA
D38A
D10A
ENDCHAR
STARTCHAR uni043D
ENCODING 1085
SWIDTH 600 0
DWIDTH 10 0
BBX 7 8 1 0
BITMAP
A01C
A01C
A01C
BFFC
A01C
A01C
A01C
A01C
ENDCHAR
STARTCHAR uni043E
ENCODING 1086
SWIDTH 600 0
DWIDTH 10 0
BBX 8 8 1 0
BITMAP
1BE0
7428
A00D
D00A
D00A
A00D
7428
1BE0
ENDCHAR
STARTCHAR uni043F
ENCODING 1087
SWIDTH 600 0
DWIDTH 10 0
BBX 7 8 1 0
BITMAP
BFFC
A01C
A01C
A01C
A01C
A01C
A01C
A01C
ENDCHAR
STARTCHAR uni0440
ENCODING 1088
SWIDTH 600 0
DWIDTH 10 0
BBX 8 11 1 -3
BITMAP
A7E4
B82C
A00D
A00A
A00A
A00D
B428
A7E0
A000
A000
A000
ENDCHAR
STARTCHAR uni0441
ENCODING 1089
SWIDTH 600 0
DWIDTH 10 0
BBX 8 8 1 0
BITMAP
07F8
2918
7000
A000
A000
7000
2909
0BF8
ENDCHAR
STARTCHAR uni0442
ENCODING 1090
SWIDTH 600 0
DWIDTH 10 0
BBX 8 8 1 0
BITMAP
FFFE
0340
0340
0340
0340
0340
0340
0340
ENDCHAR
STARTCHAR uni0443
ENCODING 1091
SWIDTH 600 0
DWIDTH 10 0
BBX 8 11 1 -3
BITMAP
D00A
600D
3418
2824
0C70
0AA0
03C0
0280
0340
0A00
B800
ENDCHAR
STARTCHAR uni0444
ENCODING 1092
SWIDTH 600 0
DWIDTH 10 0
BBX 9 14 0 -3
BITMAP
00D000
00D000
00D000
1EEE00
35E280
7091C0
7091C0
7091C0
7091C0
34E280
1FEE00
00D000
00D000
00D000
ENDCHAR
STARTCHAR uni0445
ENCODING 1093
SWIDTH 600 0
DWIDTH 10 0
BBX 8 8 1 0
BITMAP
701C
2834
0DA0
07C0
07C0
1DA0
3434
A01D
ENDCHAR
STARTCHAR uni0446
ENCODING 1094
SWIDTH 600 0
DWIDTH 10 0
BBX 8 11 1 -3
BITMAP
A01C
A01C
A01C
A01C
A01C
A01C
A01C
BFFF
0007
0007
0007
ENDCHAR
STARTCHAR uni0447
ENCODING 1095
SWIDTH 600 0
DWIDTH 10 0
BBX 7 8 1 0
BITMAP
A01C
A01C
A01C
742C
1FFC
001C
001C
001C
ENDCHAR
STARTCHAR uni0448
ENCODING 1096
SWIDTH 600 0
DWIDTH 10 0
BBX 8 8 1 0
BITMAP
D24A
D24A
D24A
D24A
D24A
D24A
D24A
FFFE
ENDCHAR
STARTCHAR uni0449
ENCODING 1097
SWIDTH 600 0
DWIDTH 10 0
BBX 9 11 1 -3
BITMAP
D34A00
D34A00
D34A00
D34A00
D34A00
D34A00
D34A00
FFFF40
000240
000240
000240
ENDCHAR
STARTCHAR uni044A
ENCODING 1098
SWIDTH 600 0
DWIDTH 10 0
BBX 9 8 0 0
BITMAP
7F8000
028000
028000
02FE00
028280
028280
028380
02FE00
ENDCHAR
STARTCHAR uni044B
ENCODING 1099
SWIDTH 600 0
DWIDTH 10 0
BBX 8 8 1 0
BITMAP
D009
D009
D009
FE49
D1C9
D0D9
D1C9
FE49
ENDCHAR
STARTCHAR uni044C
ENCODING 1100
SWIDTH 600 0
DWIDTH 10 0
BBX 7 8 2 0
BITMAP
D000
D000
D000
FF90
D070
D034
D070
FF90
ENDCHAR
STARTCHAR uni044D
ENCODING 1101
SWIDTH 600 0
DWIDTH 10 0
BBX 8 8 1 0
BITMAP
6F90
5078
001C
0FFD
000D
001C
9074
6F90
ENDCHAR
STARTCHAR uni044E
ENCODING 1102
SWIDTH 600 0
DWIDTH 10 0
BBX 9 8 0 0
BITMAP
707E00
71D340
7281C0
7F81C0
7281C0
7181C0
70D340
707E00
ENDCHAR
STARTCHAR uni044F
ENCODING 1103
SWIDTH 600 0
DWIDTH 10 0
BBX 7 8 1 0
BITMAP
2FFC
B01C
A01C
B41C
2FFC
1D1C
341C
A01C
ENDCHAR
STARTCHAR uni0450
ENCODING 1104
SWIDTH 600 0
DWIDTH 10 0
BBX 8 12 1 0
BITMAP
0900
0740
0180
0000
0BE4
341C
A009
FFFE
E000
B000
3918
0BE8
ENDCHAR
STARTCHAR uni0451
ENCODING 1105
SWIDTH 600 0
DWIDTH 10 0
BBX 8 11 1 0
BITMAP
1D34
1D34
0000
0BE4
341C
A009
FFFE
E000
B000
3918
0BE8
ENDCHAR
STARTCHAR uni0452
ENCODING 1106
SWIDTH 600 0
DWIDTH 10 0
BBX 9 14 0 -3
BITMAP
280000
BFF400
280000
29B900
2E0B00
2C0340
280380
280280
280280
280280
280340
000340
000A00
007800
ENDCHAR
STARTCHAR uni0453
ENCODING 1107
SWIDTH 600 0
DWIDTH 10 0
BBX 7 12 2 0
BITMAP
0090
02C0
0600
0000
BFF4
A000
A000
A000
A000
A000
A000
A000
ENDCHAR
STARTCHAR uni0454
ENCODING 1108
SWIDTH 600 0
DWIDTH 10 0
BBX 8 8 1 0
BITMAP
0BF8
3818
6000
BFE0
A000
7000
3909
0BF8
ENDCHAR
STARTCHAR uni0455
ENCODING 1109
SWIDTH 600 0
DWIDTH 10 0
BBX 8 8 1 0
BITMAP
1BE4
7414
7400
2E90
01B8
000D
A41D
1BE4
ENDCHAR
STARTCHAR uni0456
ENCODING 1110
SWIDTH 600 0
DWIDTH 10 0
BBX 6 11 1 0
BITMAP
01D0
01D0
0000
BFD0
00D0
00D0
00D0
00D0
00D0
00D0
00D0
ENDCHAR
STARTCHAR uni0457
ENCODING 1111
SWIDTH 600 0
DWIDTH 10 0
BBX 7 11 1 0
BITMAP
0A28
0A28
0000
BFD0
00D0
00D0
00D0
00D0
00D0
00D0
00D0
ENDCHAR
STARTCHAR uni0458
ENCODING 1112
SWIDTH 600 0
DWIDTH 10 0
BBX 6 14 1 -3
BITMAP
01D0
01D0
0000
BFD0
00D0
00D0
00D0
00D0
00D0
00D0
00D0
00D0
42C0
BE40
ENDCHAR
STARTCHAR uni0459
ENCODING 1113
SWIDTH 600 0
DWIDTH 10 0
BBX 9 8 0 0
BITMAP
1FE000
1CA000
1CA000
18BE00
28A280
28A1C0
34A280
E0BE00
ENDCHAR
STARTCHAR uni045A
ENCODING 1114
SWIDTH 600 0
DWIDTH 10 0
BBX 8 8 1 0
BITMAP
D280
D280
D280
EBF8
E78A
D286
D28A
D2F8
ENDCHAR
STARTCHAR uni045B
ENCODING 1115
SWIDTH 600 0
DWIDTH 10 0
BBX 9 11 0 0
BITMAP
280000
BFF400
280000
28BD00
2E4B00
2C0340
280340
280340
280340
280340
280340
ENDCHAR
STARTCHAR uni045C
ENCODING 1116
SWIDTH 600 0
DWIDTH 10 0
BBX 8 12 1 0
BITMAP
0060
00D0
0240
0000
701E
7034
70A0
7FD0
70A0
7034
701C
700A
ENDCHAR
STARTCHAR uni045D
ENCODING 1117
SWIDTH 600 0
DWIDTH 10 0
BBX 7 12 1 0
BITMAP
0900
0740
0180
0000
702C
707C
70AC
719C
731C
691C
781C
701C
ENDCHAR
STARTCHAR uni045E
ENCODING 1118
SWIDTH 600 0
DWIDTH 10 0
BBX 8 15 1 -3
BITMAP
2824
1C70
0BD0
0000
D00A
600D
3418
2824
0C70
0AA0
03C0
0280
0340
0A00
B800
ENDCHAR
STARTCHAR uni045F
ENCODING 1119
SWIDTH 600 0
DWIDTH 10 0
BBX 7 11 1 -3
BITMAP
701C
701C
701C
701C
701C
701C
701C
7FFC
0280
0240
0240
ENDCHAR
STARTCHAR uni0462
ENCODING 1122
SWIDTH 600 0
DWIDTH 10 0
BBX 9 11 0 0
BITMAP
070000
070000
BFFD00
070000
070000
07F900
070740
070280
070280
070740
07F900
ENDCHAR
STARTCHAR uni0463
ENCODING 1123
SWIDTH 600 0
DWIDTH 10 0
BBX 9 10 0 0
BITMAP
034000
034000
7FFD00
034000
034000
03FE00
034740
034280
034740
03FE00
ENDCHAR
STARTCHAR uni0472
ENCODING 1138
SWIDTH 600 0
DWIDTH 10 0
BBX 9 10 0 0
BITMAP
06F800
1D0A00
280340
340280
7FFF80
700280
340280
280340
1D0A00
06F800
ENDCHAR
STARTCHAR uni0473
ENCODING 1139
SWIDTH 600 0
DWIDTH 10 0
BBX 8 8 1 0
BITMAP
1BE0
742C
900D
FFFE
D00A
A00D
7428
1BE0
ENDCHAR
STARTCHAR uni0474
ENCODING 1140
SWIDTH 600 0
DWIDTH 10 0
BBX 10 10 0 0
BITMAP
7401D0
380340
280700
1C0A00
0D0D00
0A1C00
072800
037400
02B000
01E000
ENDCHAR
STARTCHAR uni0475
ENCODING 1141
SWIDTH 600 0
DWIDTH 10 0
BBX 8 8 1 0
BITMAP
A00A
7028
3434
2870
1C60
0D90
0AC0
0780
ENDCHAR
STARTCHAR uni0490
ENCODING 1168
SWIDTH 600 0
DWIDTH 10 0
BBX 7 13 2 0
BITMAP
0028
0024
0024
FFF4
D000
D000
D000
D000
D000
D000
D000
D000
D000
ENDCHAR
STARTCHAR uni0491
ENCODING 1169
SWIDTH 600 0
DWIDTH 10 0
BBX 6 11 2 0
BITMAP
0030
0030
0070
7FF0
7000
7000
7000
7000
7000
7000
7000
ENDCHAR
STARTCHAR uni0492
ENCODING 1170
SWIDTH 600 0
DWIDTH 10 0
BBX 8 10 1 0
BITMAP
2FFD
2800
2800
2800
FFD0
2800
2800
2800
2800
2800
ENDCHAR
STARTCHAR uni0493
ENCODING 1171
SWIDTH 600 0
DWIDTH 10 0
BBX 8 8 1 0
BITMAP
2FFD
2800
2800
2800
BFD0
2800
2800
2800
ENDCHAR
STARTCHAR uni0496
ENCODING 1174
SWIDTH 600 0
DWIDTH 10 0
BBX 10 13 0 -3
BITMAP
E091D0
289340
1C9700
0D9A00
0FFD00
1C9600
289300
349280
7091C0
A090F0
000060
000060
000060
ENDCHAR
STARTCHAR uni0497
ENCODING 1175
SWIDTH 600 0
DWIDTH 10 0
BBX 10 11 0 -3
BITMAP
A0D1D0
28D340
0CD600
0FFE00
1CD700
28D340
70D280
A0D0E0
000060
000060
000060
ENDCHAR
STARTCHAR uni0498
ENCODING 1176
SWIDTH 600 0
DWIDTH 10 0
BBX 8 13 1 -3
BITMAP
2FE0
642C
001C
0068
0BF4
002D
000A
000A
A42D
2FE4
0240
0240
0240
ENDCHAR
STARTCHAR uni0499
ENCODING 1177
SWIDTH 600 0
DWIDTH 10 0
BBX 7 11 1 -3
BITMAP
2FE0
5028
0028
0FE0
002C
001C
902C
6FE0
0340
0340
0300
ENDCHAR
STARTCHAR uni049A
ENCODING 1178
SWIDTH 600 0
DWIDTH 10 0
BBX 9 13 1 -3
BITMAP
700B00
702800
707000
70D000
7FC000
70D000
707000
702800
700D00
700B40
000240
000240
000240
ENDCHAR
STARTCHAR uni049B
ENCODING 1179
SWIDTH 600 0
DWIDTH 10 0
BBX 9 11 1 -3
BITMAP
701E00
702400
706000
7AD000
79D000
707400
702800
700B40
000300
000300
000300
ENDCHAR
STARTCHAR uni04A0
ENCODING 1184
SWIDTH 600 0
DWIDTH 10 0
BBX 10 10 0 0
BITMAP
BF81D0
028340
028A00
029C00
02F800
029C00
028A00
028340
028280
0280D0
ENDCHAR
STARTCHAR uni04A1
ENCODING 1185
SWIDTH 600 0
DWIDTH 10 0
BBX 9 8 0 0
BITMAP
7F42C0
024600
024900
02FC00
024900
024700
024240
0241C0
ENDCHAR
STARTCHAR uni04A2
ENCODING 1186
SWIDTH 600 0
DWIDTH 10 0
BBX 9 13 1 -3
BITMAP
A00D00
A00D00
A00D00
A00D00
BFFD00
A00D00
A00D00
A00D00
A00D00
A00F40
000240
000240
000240
ENDCHAR
STARTCHAR uni04A3
ENCODING 1187
SWIDTH 600 0
DWIDTH 10 0
BBX 8 11 1 -3
BITMAP
A01C
A01C
A01C
BFFC
A01C
A01C
A01C
A01F
0007
0007
0007
ENDCHAR
STARTCHAR uni04AA
ENCODING 1194
SWIDTH 600 0
DWIDTH 10 0
BBX 8 13 1 -3
BITMAP
07F8
2D09
7000
A000
D000
D000
A000
7000
2D0A
0BF8
00D0
00D0
00D0
ENDCHAR
STARTCHAR uni04AB
ENCODING 1195
SWIDTH 600 0
DWIDTH 10 0
BBX 8 11 1 -3
BITMAP
0BF8
2918
7000
A000
A000
7000
3909
0BF8
01C0
01C0
00C0
ENDCHAR
STARTCHAR uni04AE
ENCODING 1198
SWIDTH 600 0
DWIDTH 10 0
BBX 8 10 1 0
BITMAP
D00A
A00D
3428
1C70
0DA0
07C0
0380
0340
0340
0340
ENDCHAR
STARTCHAR uni04AF
ENCODING 1199
SWIDTH 600 0
DWIDTH 10 0
BBX 8 11 1 -3
BITMAP
D00A
A00C
3428
2834
1C70
0990
07C0
0380
0280
0280
0280
ENDCHAR
STARTCHAR uni04B0
ENCODING 1200
SWIDTH 600 0
DWIDTH 10 0
BBX 8 10 1 0
BITMAP
D00A
A00D
3428
2C74
0DA0
0BC0
7FFC
0340
0340
0340
ENDCHAR
STARTCHAR uni04B1
ENCODING 1201
SWIDTH 600 0
DWIDTH 10 0
BBX 8 11 1 -3
BITMAP
D00A
A00D
3428
2834
1C70
0DA0
07C0
7FFC
0280
0280
0280
ENDCHAR
STARTCHAR uni04B2
ENCODING 1202
SWIDTH 600 0
DWIDTH 10 0
BBX 8 13 1 -3
BITMAP
A01D
3428
1C70
0A90
0780
07C0
0DA0
2874
7028
A00F
0003
0003
0003
ENDCHAR
STARTCHAR uni04B3
ENCODING 1203
SWIDTH 600 0
DWIDTH 10 0
BBX 8 11 1 -3
BITMAP
701C
2834
0DA0
07C0
07C0
1DA0
3434
A01F
0007
0007
0007
ENDCHAR
STARTCHAR uni04B6
ENCODING 1206
SWIDTH 600 0
DWIDTH 10 0
BBX 9 13 1 -3
BITMAP
D01D00
D01D00
D01D00
E01D00
B41D00
1FFD00
001D00
001D00
001D00
001F40
000340
000340
000340
ENDCHAR
STARTCHAR uni04B7
ENCODING 1207
SWIDTH 600 0
DWIDTH 10 0
BBX 8 11 1 -3
BITMAP
A028
A028
A028
7428
1FF8
0028
0028
002F
0007
0006
0006
ENDCHAR
STARTCHAR uni04BA
ENCODING 1210
SWIDTH 600 0
DWIDTH 10 0
BBX 8 10 1 0
BITMAP
A000
A000
A000
A000
BFE4
A02C
A00D
A00A
A00A
A00A
ENDCHAR
STARTCHAR uni04BB
ENCODING 1211
SWIDTH 600 0
DWIDTH 10 0
BBX 8 11 1 0
BITMAP
A000
A000
A000
A2F4
B92C
B00D
A00D
A00D
A00D
A00D
A00D
ENDCHAR
STARTCHAR uni04C0
ENCODING 1216
SWIDTH 600 0
DWIDTH 10 0
BBX 7 10 1 0
BITMAP
7FFC
0340
0340
0340
0340
0340
0340
0340
0340
7FFC
ENDCHAR
STARTCHAR uni04C1
ENCODING 1217
SWIDTH 600 0
DWIDTH 10 0
BBX 10 13 0 0
BITMAP
0A1C00
02F400
000000
E091D0
289340
1C9700
0D9A00
0FFD00
1C9600
289340
349280
7091C0
A090D0
ENDCHAR
STARTCHAR uni04C2
ENCODING 1218
SWIDTH 600 0
DWIDTH 10 0
BBX 10 12 0 0
BITMAP
090D00
061C00
02F400
000000
A0D1D0
28D340
0CD600
0FFE00
1CD700
28D340
70D280
A0D0D0
ENDCHAR
STARTCHAR uni04CF
ENCODING 1231
SWIDTH 600 0
DWIDTH 10 0
BBX 8 11 1 0
BITMAP
BF40
0340
0340
0340
0340
0340
0340
0340
0340
0280
01BD
ENDCHAR
STARTCHAR uni04D0
ENCODING 1232
SWIDTH 600 0
DWIDTH 10 0
BBX 9 13 0 0
BITMAP
0A1C00
02F400
000000
00E000
01B000
036400
071800
0A0C00
0D0900
1FFF00
280340
340280
7001C0
ENDCHAR
STARTCHAR uni04D1
ENCODING 1233
SWIDTH 600 0
DWIDTH 10 0
BBX 8 12 1 0
BITMAP
1828
0D34
07E0
0000
1BE0
2428
001C
06FD
790D
A00D
B06D
2F8D
ENDCHAR
STARTCHAR uni04D4
ENCODING 1236
SWIDTH 600 0
DWIDTH 10 0
BBX 10 10 0 0
BITMAP
00FFD0
01B400
037400
073400
0A3F80
0C3400
2FF400
343400
703400
A03FD0
ENDCHAR
STARTCHAR uni04D5
ENCODING 1237
SWIDTH 600 0
DWIDTH 10 0
BBX 10 8 0 0
BITMAP
2F5F40
11E0D0
009090
1BFFE0
789000
A0A000
A1B440
2E1F80
ENDCHAR
STARTCHAR uni04D6
ENCODING 1238
SWIDTH 600 0
DWIDTH 10 0
BBX 8 13 1 0
BITMAP
0D28
07E0
0000
7FFD
7400
7400
7400
7FF8
7400
7400
7400
7400
7FFD
ENDCHAR
STARTCHAR uni04D7
ENCODING 1239
SWIDTH 600 0
DWIDTH 10 0
BBX 8 12 1 0
BITMAP
1824
0D34
07D0
0000
0BE4
341C
A009
FFFE
E000
B000
3918
0BE8
ENDCHAR
STARTCHAR uni04D8
ENCODING 1240
SWIDTH 600 0
DWIDTH 10 0
BBX 8 10 1 0
BITMAP
1BE0
2428
000D
000A
000A
FFFE
D00A
A00D
3428
1BE0
ENDCHAR
STARTCHAR uni04D9
ENCODING 1241
SWIDTH 600 0
DWIDTH 10 0
BBX 8 8 1 0
BITMAP
2FE0
2078
000D
000E
FFFE
900D
7428
1BE0
ENDCHAR
STARTCHAR uni04E2
ENCODING 1250
SWIDTH 600 0
DWIDTH 10 0
BBX 8 13 1 0
BITMAP
1FF0
0000
0000
A01D
A03D
A0A9
A0DD
A28D
A74D
9A0D
AC0D
B80D
B00D
ENDCHAR
STARTCHAR uni04E3
ENCODING 1251
SWIDTH 600 0
DWIDTH 10 0
BBX 7 11 1 0
BITMAP
0FF0
0000
0000
702C
707C
70AC
719C
731C
691C
781C
701C
ENDCHAR
STARTCHAR uni04E6
ENCODING 1254
SWIDTH 600 0
DWIDTH 10 0
BBX 9 13 0 0
BITMAP
071C00
071C00
000000
06F800
1D0A00
280340
340280
740280
740280
340280
280340
1D0A00
06F800
ENDCHAR
STARTCHAR uni04E7
ENCODING 1255
SWIDTH 600 0
DWIDTH 10 0
BBX 8 11 1 0
BITMAP
1C70
1C70
0000
1BE0
7428
A00D
D00A
D00A
A00D
7428
1BE0
ENDCHAR
STARTCHAR uni04E8
ENCODING 1256
SWIDTH 600 0
DWIDTH 10 0
BBX 9 10 0 0
BITMAP
06F800
1D0A00
280340
340280
7FFF80
700280
340280
280340
1D0A00
06F800
ENDCHAR
STARTCHAR uni04E9
ENCODING 1257
SWIDTH 600 0
DWIDTH 10 0
BBX 8 8 1 0
BITMAP
1BE0
742C
900D
FFFE
D00A
A00D
7428
1BE0
ENDCHAR
STARTCHAR uni04EE
ENCODING 1262
SWIDTH 600 0
DWIDTH 10 0
BBX 8 13 1 0
BITMAP
1FF0
0000
0000
D00A
B00D
3418
2834
0D70
0AA0
03C0
0280
0740
3D00
ENDCHAR
STARTCHAR uni04EF
ENCODING 1263
SWIDTH 600 0
DWIDTH 10 0
BBX 8 14 1 -3
BITMAP
1FF0
0000
0000
D00A
600D
3418
2824
0C70
0AA0
03C0
0280
0340
0A00
B800
ENDCHAR
STARTCHAR uni04F2
ENCODING 1266
SWIDTH 600 0
DWIDTH 10 0
BBX 8 14 1 0
BITMAP
0218
0624
0860
0000
D00A
B00D
3418
2834
0D70
0AA0
03C0
0280
0740
3D00
ENDCHAR
STARTCHAR uni04F3
ENCODING 1267
SWIDTH 600 0
DWIDTH 10 0
BBX 8 15 1 -3
BITMAP
0258
0724
0920
0000
D00A
600D
3418
2824
0C70
0AA0
03C0
0280
0340
0A00
B800
ENDCHAR
STARTCHAR a.sups
ENCODING 7491
SWIDTH 600 0
DWIDTH 10 0
BBX 5 5 2 6
BITMAP
2F80
2BC0
74C0
61C0
2E80
ENDCHAR
STARTCHAR b.sups
ENCODING 7495
SWIDTH 600 0
DWIDTH 10 0
BBX 6 7 2 6
BITMAP
6000
6000
6B80
7490
60A0
70D0
6B80
ENDCHAR
STARTCHAR d.sups
ENCODING 7496
SWIDTH 600 0
DWIDTH 10 0
BBX 5 8 2 6
BITMAP
0040
00C0
00C0
2EC0
A1C0
90C0
A1C0
2E80
ENDCHAR
STARTCHAR e.sups
ENCODING 7497
SWIDTH 600 0
DWIDTH 10 0
BBX 6 5 2 6
BITMAP
2F40
6080
BFD0
6040
2F80
ENDCHAR
STARTCHAR g.sups
ENCODING 7501
SWIDTH 600 0
DWIDTH 10 0
BBX 6 7 2 4
BITMAP
2FE0
6180
3F40
2000
3FD0
90A0
6F80
ENDCHAR
STARTCHAR k.sups
ENCODING 7503
SWIDTH 600 0
DWIDTH 10 0
BBX 5 8 3 6
BITMAP
4000
C000
C000
C240
C900
EC00
D600
C280
ENDCHAR
STARTCHAR m.sups
ENCODING 7504
SWIDTH 600 0
DWIDTH 10 0
BBX 8 6 1 5
BITMAP
EE78
D389
C249
C249
C249
4105
ENDCHAR
STARTCHAR o.sups
ENCODING 7506
SWIDTH 600 0
DWIDTH 10 0
BBX 6 5 2 6
BITMAP
2F40
61C0
9090
61C0
2F40
ENDCHAR
STARTCHAR p.sups
ENCODING 7510
SWIDTH 600 0
DWIDTH 10 0
BBX 6 7 2 4
BITMAP
6B80
7490
60A0
70D0
7B80
6000
6000
ENDCHAR
STARTCHAR t.sups
ENCODING 7511
SWIDTH 600 0
DWIDTH 10 0
BBX 6 7 2 6
BITMAP
0800
0C00
7FD0
0C00
0C00
0C00
0BD0
ENDCHAR
STARTCHAR u.sups
ENCODING 7512
SWIDTH 600 0
DWIDTH 10 0
BBX 5 5 2 6
BITMAP
60C0
60C0
60C0
61C0
2E80
ENDCHAR
STARTCHAR v.sups
ENCODING 7515
SWIDTH 600 0
DWIDTH 10 0
BBX 5 5 2 6
BITMAP
90C0
7180
2640
1B00
0E00
ENDCHAR
STARTCHAR c.sups
ENCODING 7580
SWIDTH 600 0
DWIDTH 10 0
BBX 4 5 3 6
BITMAP
2E
D1
C0
D1
6E
ENDCHAR
STARTCHAR f.sups
ENCODING 7584
SWIDTH 600 0
DWIDTH 10 0
BBX 5 9 3 5
BITMAP
0B80
1800
2400
BF40
2400
2400
2400
2400
1000
ENDCHAR
STARTCHAR z.sups
ENCODING 7611
SWIDTH 600 0
DWIDTH 10 0
BBX 6 5 2 6
BITMAP
7FC0
0240
0900
2400
BFD0
ENDCHAR
STARTCHAR uni1E06
ENCODING 7686
SWIDTH 600 0
DWIDTH 10 0
BBX 8 12 1 -2
BITMAP
7FE4
702C
701C
7028
7FE4
701D
700A
700A
701D
7FE4
0000
1FF0
ENDCHAR
STARTCHAR uni1E07
ENCODING 7687
SWIDTH 600 0
DWIDTH 10 0
BBX 8 13 1 -2
BITMAP
A000
A000
A000
A7E4
B82C
A00D
A00A
A00A
A00D
B428
A7E0
0000
1FF0
ENDCHAR
STARTCHAR uni1E0C
ENCODING 7692
SWIDTH 600 0
DWIDTH 10 0
BBX 8 14 1 -4
BITMAP
BF90
A078
A01D
A00A
A00A
A00A
A00A
A01D
A078
BF90
0000
0000
0380
0380
ENDCHAR
STARTCHAR uni1E0D
ENCODING 7693
SWIDTH 600 0
DWIDTH 10 0
BBX 7 15 1 -4
BITMAP
001C
001C
001C
1B9C
746C
A01C
D01C
D01C
A01C
746C
1F8C
0000
0000
0380
0380
ENDCHAR
STARTCHAR uni1E0E
ENCODING 7694
SWIDTH 600 0
DWIDTH 10 0
BBX 8 12 1 -2
BITMAP
BF90
A078
A01D
A00A
A00A
A00A
A00A
A01D
A078
BF90
0000
1FF0
ENDCHAR
STARTCHAR uni1E0F
ENCODING 7695
SWIDTH 600 0
DWIDTH 10 0
BBX 7 13 1 -2
BITMAP
001C
001C
001C
1B9C
746C
A01C
D01C
D01C
A01C
746C
1F8C
0000
1FF0
ENDCHAR
STARTCHAR uni1E10
ENCODING 7696
SWIDTH 600 0
DWIDTH 10 0
BBX 8 15 1 -5
BITMAP
BF90
A078
A01D
A00A
A00A
A00A
A00A
A01D
A078
BF90
0200
0740
0180
0280
0A00
ENDCHAR
STARTCHAR uni1E11
ENCODING 7697
SWIDTH 600 0
DWIDTH 10 0
BBX 7 16 1 -5
BITMAP
001C
001C
001C
1B9C
746C
A01C
D01C
D01C
A01C
746C
1F8C
0200
0380
01C0
0180
0A40
ENDCHAR
STARTCHAR uni1E16
ENCODING 7702
SWIDTH 600 0
DWIDTH 10 0
BBX 8 16 1 0
BITMAP
0060
0180
0000
0FF4
0000
0000
7FFD
7400
7400
7400
7FF8
7400
7400
7400
7400
7FFD
ENDCHAR
STARTCHAR uni1E17
ENCODING 7703
SWIDTH 600 0
DWIDTH 10 0
BBX 8 14 1 0
BITMAP
0090
0240
0000
0FF4
0000
0000
0BE4
341C
A009
FFFE
E000
B000
3918
0BE8
ENDCHAR
STARTCHAR uni1E20
ENCODING 7712
SWIDTH 600 0
DWIDTH 10 0
BBX 8 13 1 0
BITMAP
0FF4
0000
0000
0BF8
3918
B000
D000
D000
D0BE
D00A
B00A
381E
0BF8
ENDCHAR
STARTCHAR uni1E21
ENCODING 7713
SWIDTH 600 0
DWIDTH 10 0
BBX 8 14 1 -3
BITMAP
1FF0
0000
0000
1BFF
3474
7028
7434
2EE0
7100
7000
3FFD
A007
A01A
2FE4
ENDCHAR
STARTCHAR uni1E24
ENCODING 7716
SWIDTH 600 0
DWIDTH 10 0
BBX 8 14 1 -4
BITMAP
A00D
A00D
A00D
A00D
BFFD
A00D
A00D
A00D
A00D
A00D
0000
0000
0380
0380
ENDCHAR
STARTCHAR uni1E25
ENCODING 7717
SWIDTH 600 0
DWIDTH 10 0
BBX 8 15 1 -4
BITMAP
A000
A000
A000
A2F4
B92C
B00D
A00D
A00D
A00D
A00D
A00D
0000
0000
0280
0280
ENDCHAR
STARTCHAR uni1E26
ENCODING 7718
SWIDTH 600 0
DWIDTH 10 0
BBX 8 13 1 0
BITMAP
1C70
1C70
0000
A00D
A00D
A00D
A00D
BFFD
A00D
A00D
A00D
A00D
A00D
ENDCHAR
STARTCHAR uni1E27
ENCODING 7719
SWIDTH 600 0
DWIDTH 10 0
BBX 9 14 0 0
BITMAP
D34000
D34000
000000
280000
280000
280000
28BD00
2E4B00
2C0340
280340
280340
280340
280340
280340
ENDCHAR
STARTCHAR uni1E28
ENCODING 7720
SWIDTH 600 0
DWIDTH 10 0
BBX 9 15 0 -5
BITMAP
280340
280340
280340
280340
2FFF40
280340
280340
280340
280340
280340
240000
380000
1D0000
1C0000
640000
ENDCHAR
STARTCHAR uni1E29
ENCODING 7721
SWIDTH 600 0
DWIDTH 10 0
BBX 9 16 0 -5
BITMAP
280000
280000
280000
28BD00
2E4B00
2C0340
280340
280340
280340
280340
280340
140000
2C0000
090000
190000
740000
ENDCHAR
STARTCHAR uni1E2A
ENCODING 7722
SWIDTH 600 0
DWIDTH 10 0
BBX 8 14 1 -4
BITMAP
A00D
A00D
A00D
A00D
BFFD
A00D
A00D
A00D
A00D
A00D
0000
2424
1870
0BD0
ENDCHAR
STARTCHAR uni1E2B
ENCODING 7723
SWIDTH 600 0
DWIDTH 10 0
BBX 8 15 1 -4
BITMAP
A000
A000
A000
A2F4
B92C
B00D
A00D
A00D
A00D
A00D
A00D
0000
1414
0D30
07D0
ENDCHAR
STARTCHAR uni1E32
ENCODING 7730
SWIDTH 600 0
DWIDTH 10 0
BBX 8 14 1 -4
BITMAP
700D
7038
70A0
7280
7BC0
7CA0
7474
7028
700D
700B
0000
0000
01D0
01D0
ENDCHAR
STARTCHAR uni1E33
ENCODING 7731
SWIDTH 600 0
DWIDTH 10 0
BBX 8 15 1 -4
BITMAP
7000
7000
7000
701D
7074
70E0
73C0
7ED0
7874
701C
700A
0000
0000
01D0
01D0
ENDCHAR
STARTCHAR uni1E34
ENCODING 7732
SWIDTH 600 0
DWIDTH 10 0
BBX 8 12 1 -2
BITMAP
700D
7038
70A0
7280
7BC0
7CA0
7474
7028
700D
700B
0000
0BF8
ENDCHAR
STARTCHAR uni1E35
ENCODING 7733
SWIDTH 600 0
DWIDTH 10 0
BBX 8 13 1 -2
BITMAP
7000
7000
7000
701D
7074
70E0
73C0
7ED0
7874
701C
700A
0000
0BF4
ENDCHAR
STARTCHAR uni1E36
ENCODING 7734
SWIDTH 600 0
DWIDTH 10 0
BBX 7 14 2 -4
BITMAP
D000
D000
D000
D000
D000
D000
D000
D000
D000
FFF8
0000
0000
0740
0740
ENDCHAR
STARTCHAR uni1E37
ENCODING 7735
SWIDTH 600 0
DWIDTH 10 0
BBX 8 15 1 -4
BITMAP
BF40
0340
0340
0340
0340
0340
0340
0340
0340
0280
01BD
0000
0000
00B0
00B0
ENDCHAR
STARTCHAR uni1E38
ENCODING 7736
SWIDTH 600 0
DWIDTH 10 0
BBX 8 17 1 -4
BITMAP
FF40
0000
0000
3400
3400
3400
3400
3400
3400
3400
3400
3400
3FFE
0000
0000
01D0
01D0
ENDCHAR
STARTCHAR uni1E39
ENCODING 7737
SWIDTH 600 0
DWIDTH 10 0
BBX 8 18 1 -4
BITMAP
2FE0
0000
0000
BF40
0340
0340
0340
0340
0340
0340
0340
0340
0280
01BD
0000
0000
00B0
00B0
ENDCHAR
STARTCHAR uni1E3A
ENCODING 7738
SWIDTH 600 0
DWIDTH 10 0
BBX 7 12 2 -2
BITMAP
D000
D000
D000
D000
D000
D000
D000
D000
D000
FFF8
0000
2FE0
ENDCHAR
STARTCHAR uni1E3B
ENCODING 7739
SWIDTH 600 0
DWIDTH 10 0
BBX 8 13 1 -2
BITMAP
BF40
0340
0340
0340
0340
0340
0340
0340
0340
0280
01BD
0000
03FD
ENDCHAR
STARTCHAR uni1E3E
ENCODING 7742
SWIDTH 600 0
DWIDTH 10 0
BBX 8 14 1 0
BITMAP
0050
01D0
0200
0000
F01D
F42D
E839
DC69
D999
D6C9
D389
D109
D009
D009
ENDCHAR
STARTCHAR uni1E3F
ENCODING 7743
SWIDTH 600 0
DWIDTH 10 0
BBX 8 12 1 0
BITMAP
0060
01D0
0240
0000
DE6D
E3CA
D287
D287
D287
D287
D287
D287
ENDCHAR
STARTCHAR uni1E40
ENCODING 7744
SWIDTH 600 0
DWIDTH 10 0
BBX 8 13 1 0
BITMAP
0380
0380
0000
F01D
F42D
E839
DC69
D999
D6C9
D389
D109
D009
D009
ENDCHAR
STARTCHAR uni1E41
ENCODING 7745
SWIDTH 600 0
DWIDTH 10 0
BBX 8 11 1 0
BITMAP
02C0
02C0
0000
DE6D
E3CA
D287
D287
D287
D287
D287
D287
ENDCHAR
STARTCHAR uni1E42
ENCODING 7746
SWIDTH 600 0
DWIDTH 10 0
BBX 8 14 1 -4
BITMAP
F01D
F42D
E839
DC69
D999
D6C9
D389
D109
D009
D009
0000
0000
0380
0380
ENDCHAR
STARTCHAR uni1E43
ENCODING 7747
SWIDTH 600 0
DWIDTH 10 0
BBX 8 12 1 -4
BITMAP
DE6D
E3CA
D287
D287
D287
D287
D287
D287
0000
0000
0380
0380
ENDCHAR
STARTCHAR uni1E44
ENCODING 7748
SWIDTH 600 0
DWIDTH 10 0
BBX 8 13 1 0
BITMAP
0280
0280
0000
B00D
B80D
AC0D
AA0D
A34D
A28D
A0DD
A0AD
A03D
A01D
ENDCHAR
STARTCHAR uni1E45
ENCODING 7749
SWIDTH 600 0
DWIDTH 10 0
BBX 8 11 1 0
BITMAP
02C0
02C0
0000
A2F4
B92C
B00D
A00D
A00D
A00D
A00D
A00D
ENDCHAR
STARTCHAR uni1E46
ENCODING 7750
SWIDTH 600 0
DWIDTH 10 0
BBX 8 14 1 -4
BITMAP
B00D
B80D
AC0D
AA0D
A34D
A28D
A0DD
A0AD
A03D
A01D
0000
0000
0380
0380
ENDCHAR
STARTCHAR uni1E47
ENCODING 7751
SWIDTH 600 0
DWIDTH 10 0
BBX 8 12 1 -4
BITMAP
A2F4
B92C
B00D
A00D
A00D
A00D
A00D
A00D
0000
0000
0280
0280
ENDCHAR
STARTCHAR uni1E48
ENCODING 7752
SWIDTH 600 0
DWIDTH 10 0
BBX 8 12 1 -2
BITMAP
B00D
B80D
AC0D
AA0D
A34D
A28D
A0DD
A0AD
A03D
A01D
0000
1FF0
ENDCHAR
STARTCHAR uni1E49
ENCODING 7753
SWIDTH 600 0
DWIDTH 10 0
BBX 8 10 1 -2
BITMAP
A2F4
B92C
B00D
A00D
A00D
A00D
A00D
A00D
0000
0FF0
ENDCHAR
STARTCHAR uni1E52
ENCODING 7762
SWIDTH 600 0
DWIDTH 10 0
BBX 9 16 0 0
BITMAP
002400
009000
000000
07FC00
000000
000000
06F800
1D0A00
280340
340280
740280
740280
340280
280340
1D0A00
06F800
ENDCHAR
STARTCHAR uni1E53
ENCODING 7763
SWIDTH 600 0
DWIDTH 10 0
BBX 8 14 1 0
BITMAP
0090
0240
0000
1FF0
0000
0000
1BE0
7428
A00D
D00A
D00A
A00D
7428
1BE0
ENDCHAR
STARTCHAR uni1E58
ENCODING 7768
SWIDTH 600 0
DWIDTH 10 0
BBX 8 13 1 0
BITMAP
0380
0380
0000
7FE4
701D
700D
700D
702C
7FE4
70E0
7074
702C
700E
ENDCHAR
STARTCHAR uni1E59
ENCODING 7769
SWIDTH 600 0
DWIDTH 10 0
BBX 7 11 2 0
BITMAP
0740
0740
0000
92F4
A900
B000
A000
A000
A000
A000
A000
ENDCHAR
STARTCHAR uni1E5A
ENCODING 7770
SWIDTH 600 0
DWIDTH 10 0
BBX 8 14 1 -4
BITMAP
7FE4
701D
700D
700D
702C
7FE4
70E0
7074
702C
700E
0000
0000
02C0
02C0
ENDCHAR
STARTCHAR uni1E5B
ENCODING 7771
SWIDTH 600 0
DWIDTH 10 0
BBX 7 12 2 -4
BITMAP
92F4
A900
B000
A000
A000
A000
A000
A000
0000
0000
B000
B000
ENDCHAR
STARTCHAR uni1E5C
ENCODING 7772
SWIDTH 600 0
DWIDTH 10 0
BBX 8 17 1 -4
BITMAP
1FF0
0000
0000
7FE4
701D
700D
700D
702C
7FE4
70E0
7074
702C
700E
0000
0000
02C0
02C0
ENDCHAR
STARTCHAR uni1E5D
ENCODING 7773
SWIDTH 600 0
DWIDTH 10 0
BBX 7 15 2 -4
BITMAP
2FE0
0000
0000
92F4
A900
B000
A000
A000
A000
A000
A000
0000
0000
B000
B000
ENDCHAR
STARTCHAR uni1E5E
ENCODING 7774
SWIDTH 600 0
DWIDTH 10 0
BBX 8 12 1 -2
BITMAP
7FE4
701D
700D
700D
702C
7FE4
70E0
7074
702C
700E
0000
0FF4
ENDCHAR
STARTCHAR uni1E5F
ENCODING 7775
SWIDTH 600 0
DWIDTH 10 0
BBX 8 10 1 -2
BITMAP
24BD
2A40
2C00
2800
2800
2800
2800
2800
0000
FF40
ENDCHAR
STARTCHAR uni1E60
ENCODING 7776
SWIDTH 600 0
DWIDTH 10 0
BBX 8 13 1 0
BITMAP
0280
0280
0000
1BE4
3418
7000
7800
1F90
01B8
001D
000A
B41D
2BE4
ENDCHAR
STARTCHAR uni1E61
ENCODING 7777
SWIDTH 600 0
DWIDTH 10 0
BBX 8 11 1 0
BITMAP
0380
0380
0000
1BE4
7414
7400
2E90
01B8
000D
A41D
1BE4
ENDCHAR
STARTCHAR uni1E62
ENCODING 7778
SWIDTH 600 0
DWIDTH 10 0
BBX 8 14 1 -4
BITMAP
1BE4
3418
7000
7800
1F90
01B8
001D
000A
B41D
2BE4
0000
0000
0280
0280
ENDCHAR
STARTCHAR uni1E63
ENCODING 7779
SWIDTH 600 0
DWIDTH 10 0
BBX 8 12 1 -4
BITMAP
1BE4
7414
7400
2E90
01B8
000D
A41D
1BE4
0000
0000
0380
0380
ENDCHAR
STARTCHAR uni1E6C
ENCODING 7788
SWIDTH 600 0
DWIDTH 10 0
BBX 9 14 0 -4
BITMAP
7FFFC0
00D000
00D000
00D000
00D000
00D000
00D000
00D000
00D000
00D000
000000
000000
00E000
00E000
ENDCHAR
STARTCHAR uni1E6D
ENCODING 7789
SWIDTH 600 0
DWIDTH 10 0
BBX 8 15 1 -4
BITMAP
0A00
0A00
0A00
FFFD
0A00
0A00
0A00
0A00
0A00
0740
02FD
0000
0000
00B0
00B0
ENDCHAR
STARTCHAR uni1E6E
ENCODING 7790
SWIDTH 600 0
DWIDTH 10 0
BBX 9 12 0 -2
BITMAP
7FFFC0
00D000
00D000
00D000
00D000
00D000
00D000
00D000
00D000
00D000
000000
07FC00
ENDCHAR
STARTCHAR uni1E6F
ENCODING 7791
SWIDTH 600 0
DWIDTH 10 0
BBX 8 13 1 -2
BITMAP
0A00
0A00
0A00
FFFD
0A00
0A00
0A00
0A00
0A00
0740
02FD
0000
03FD
ENDCHAR
STARTCHAR uni1E7E
ENCODING 7806
SWIDTH 600 0
DWIDTH 10 0
BBX 8 14 1 -4
BITMAP
D00A
A00D
701C
3028
2424
1830
0C60
0990
06C0
0380
0000
0000
0380
0380
ENDCHAR
STARTCHAR uni1E7F
ENCODING 7807
SWIDTH 600 0
DWIDTH 10 0
BBX 8 12 1 -4
BITMAP
D00A
A00D
3018
2834
1C70
0DA0
0AC0
0380
0000
0000
0380
0380
ENDCHAR
STARTCHAR Wgrave
ENCODING 7808
SWIDTH 600 0
DWIDTH 10 0
BBX 10 14 0 0
BITMAP
020000
02C000
006000
000000
A000D0
B001D0
7051C0
70E1C0
35F280
36B680
276A40
2B1B40
1E0F00
1E0F00
ENDCHAR
STARTCHAR wgrave
ENCODING 7809
SWIDTH 600 0
DWIDTH 10 0
BBX 10 12 0 0
BITMAP
020000
02C000
006000
000000
A050D0
A0E0C0
71B1C0
32B580
366680
2B1A40
1B1F00
1E0F00
ENDCHAR
STARTCHAR Wacute
ENCODING 7810
SWIDTH 600 0
DWIDTH 10 0
BBX 10 14 0 0
BITMAP
001400
007400
008000
000000
A000D0
B001D0
7051C0
70E1C0
35F280
36B680
276A40
2B1B40
1E0F00
1E0F00
ENDCHAR
STARTCHAR wacute
ENCODING 7811
SWIDTH 600 0
DWIDTH 10 0
BBX 10 12 0 0
BITMAP
001800
007400
008000
000000
A050D0
A0E0C0
71B1C0
32B580
366680
2B1A40
1B1F00
1E0F00
ENDCHAR
STARTCHAR Wdieresis
ENCODING 7812
SWIDTH 600 0
DWIDTH 10 0
BBX 10 13 0 0
BITMAP
071C00
071C00
000000
A000D0
B001D0
7051C0
70E1C0
35F280
36B680
276A40
2B1B40
1E0F00
1E0F00
ENDCHAR
STARTCHAR wdieresis
ENCODING 7813
SWIDTH 600 0
DWIDTH 10 0
BBX 10 11 0 0
BITMAP
071C00
071C00
000000
A050D0
A0E0C0
71B1C0
32B580
366680
2B1A40
1B1F00
1E0F00
ENDCHAR
STARTCHAR uni1E8E
ENCODING 7822
SWIDTH 600 0
DWIDTH 10 0
BBX 8 13 1 0
BITMAP
0380
0380
0000
D00A
A00D
3428
1C70
0DA0
07C0
0380
0340
0340
0340
ENDCHAR
STARTCHAR uni1E8F
ENCODING 7823
SWIDTH 600 0
DWIDTH 10 0
BBX 8 14 1 -3
BITMAP
0380
0380
0000
D00A
600D
3418
2824
0C70
0AA0
03C0
0280
0340
0A00
B800
ENDCHAR
STARTCHAR uni1E90
ENCODING 7824
SWIDTH 600 0
DWIDTH 10 0
BBX 8 13 1 0
BITMAP
07D0
0820
0000
7FFE
001C
0074
00A0
0280
0740
0D00
2800
7000
FFFE
ENDCHAR
STARTCHAR uni1E91
ENCODING 7825
SWIDTH 600 0
DWIDTH 10 0
BBX 8 12 1 0
BITMAP
03D0
0A70
0814
0000
7FFD
0038
00A0
02C0
0700
1D00
7400
BFFE
ENDCHAR
STARTCHAR uni1E92
ENCODING 7826
SWIDTH 600 0
DWIDTH 10 0
BBX 8 14 1 -4
BITMAP
7FFE
001C
0074
00A0
0280
0740
0D00
2800
7000
FFFE
0000
0000
0380
0380
ENDCHAR
STARTCHAR uni1E93
ENCODING 7827
SWIDTH 600 0
DWIDTH 10 0
BBX 8 12 1 -4
BITMAP
7FFD
0038
00A0
02C0
0700
1D00
7400
BFFE
0000
0000
0280
0280
ENDCHAR
STARTCHAR uni1E94
ENCODING 7828
SWIDTH 600 0
DWIDTH 10 0
BBX 8 12 1 -2
BITMAP
7FFE
001C
0074
00A0
0280
0740
0D00
2800
7000
FFFE
0000
1FF0
ENDCHAR
STARTCHAR uni1E95
ENCODING 7829
SWIDTH 600 0
DWIDTH 10 0
BBX 8 10 1 -2
BITMAP
7FFD
0038
00A0
02C0
0700
1D00
7400
BFFE
0000
0FF0
ENDCHAR
STARTCHAR uni1E96
ENCODING 7830
SWIDTH 600 0
DWIDTH 10 0
BBX 8 13 1 -2
BITMAP
A000
A000
A000
A2F4
B92C
B00D
A00D
A00D
A00D
A00D
A00D
0000
0FF0
ENDCHAR
STARTCHAR uni1E97
ENCODING 7831
SWIDTH 600 0
DWIDTH 10 0
BBX 8 13 1 0
BITMAP
34D0
34D0
0A00
0A00
0A00
FFFD
0A00
0A00
0A00
0A00
0A00
0740
02FD
ENDCHAR
STARTCHAR uni1E9E
ENCODING 7838
SWIDTH 600 0
DWIDTH 10 0
BBX 8 10 1 0
BITMAP
1BE0
382C
A02C
A070
A0E4
A06D
A00B
A007
A20A
A2F8
ENDCHAR
STARTCHAR uni1EA0
ENCODING 7840
SWIDTH 600 0
DWIDTH 10 0
BBX 9 14 0 -4
BITMAP
00E000
01B000
036400
071800
0A0C00
0D0900
1FFF00
280340
340280
7001C0
000000
000000
00E000
00E000
ENDCHAR
STARTCHAR uni1EA1
ENCODING 7841
SWIDTH 600 0
DWIDTH 10 0
BBX 8 12 1 -4
BITMAP
1BE0
2428
001C
06FD
790D
A00D
B06D
2F8D
0000
0000
0380
0380
ENDCHAR
STARTCHAR uni1EA2
ENCODING 7842
SWIDTH 600 0
DWIDTH 10 0
BBX 9 14 0 0
BITMAP
01E000
007000
009000
000000
00E000
01B000
036400
071800
0A0C00
0D0900
1FFF00
280340
340280
7001C0
ENDCHAR
STARTCHAR uni1EA3
ENCODING 7843
SWIDTH 600 0
DWIDTH 10 0
BBX 8 13 1 0
BITMAP
0380
0090
0090
0180
0000
1BE0
2428
001C
06FD
790D
A00D
B06D
2F8D
ENDCHAR
STARTCHAR uni1EA4
ENCODING 7844
SWIDTH 600 0
DWIDTH 10 0
BBX 9 14 0 0
BITMAP
000200
01E900
021800
000000
00E000
01B000
036400
071800
0A0C00
0D0900
1FFF00
280340
340280
7001C0
ENDCHAR
STARTCHAR uni1EA5
ENCODING 7845
SWIDTH 600 0
DWIDTH 10 0
BBX 8 12 1 0
BITMAP
0006
03D8
0920
0000
1BE0
2428
001C
06FD
790D
A00D
B06D
2F8D
ENDCHAR
STARTCHAR uni1EA6
ENCODING 7846
SWIDTH 600 0
DWIDTH 10 0
BBX 9 14 0 0
BITMAP
140000
09E000
021800
000000
00E000
01B000
036400
071800
0A0C00
0D0900
1FFF00
280340
340280
7001C0
ENDCHAR
STARTCHAR uni1EA7
ENCODING 7847
SWIDTH 600 0
DWIDTH 10 0
BBX 8 12 1 0
BITMAP
5000
27D0
0920
0000
1BE0
2428
001C
06FD
790D
A00D
B06D
2F8D
ENDCHAR
STARTCHAR uni1EA8
ENCODING 7848
SWIDTH 600 0
DWIDTH 10 0
BBX 9 15 0 0
BITMAP
000E00
000300
01E600
021800
000000
00E000
01B000
036400
071800
0A0C00
0D0900
1FFF00
280340
340280
7001C0
ENDCHAR
STARTCHAR uni1EA9
ENCODING 7849
SWIDTH 600 0
DWIDTH 10 0
BBX 8 13 1 0
BITMAP
0028
0009
03D8
0920
0000
1BE0
2428
001C
06FD
790D
A00D
B06D
2F8D
ENDCHAR
STARTCHAR uni1EAA
ENCODING 7850
SWIDTH 600 0
DWIDTH 10 0
BBX 9 15 0 0
BITMAP
038800
057800
01E000
021800
000000
00E000
01B000
036400
071800
0A0C00
0D0900
1FFF00
280340
340280
7001C0
ENDCHAR
STARTCHAR uni1EAB
ENCODING 7851
SWIDTH 600 0
DWIDTH 10 0
BBX 8 13 1 0
BITMAP
0A50
09B0
03D0
0920
0000
1BE0
2428
001C
06FD
790D
A00D
B06D
2F8D
ENDCHAR
STARTCHAR uni1EAC
ENCODING 7852
SWIDTH 600 0
DWIDTH 10 0
BBX 9 17 0 -4
BITMAP
01F000
061800
000000
00E000
01B000
036400
071800
0A0C00
0D0900
1FFF00
280340
340280
7001C0
000000
000000
00E000
00E000
ENDCHAR
STARTCHAR uni1EAD
ENCODING 7853
SWIDTH 600 0
DWIDTH 10 0
BBX 8 16 1 -4
BITMAP
03D0
0A70
0814
0000
1BE0
2428
001C
06FD
790D
A00D
B06D
2F8D
0000
0000
0380
0380
ENDCHAR
STARTCHAR uni1EAE
ENCODING 7854
SWIDTH 600 0
DWIDTH 10 0
BBX 9 15 0 0
BITMAP
002400
005000
060C00
02F400
000000
00E000
01B000
036400
071800
0A0C00
0D0900
1FFF00
280340
340280
7001C0
ENDCHAR
STARTCHAR uni1EAF
ENCODING 7855
SWIDTH 600 0
DWIDTH 10 0
BBX 8 13 1 0
BITMAP
0090
1998
0D24
07D0
0000
1BE0
2428
001C
06FD
790D
A00D
B06D
2F8D
ENDCHAR
STARTCHAR uni1EB0
ENCODING 7856
SWIDTH 600 0
DWIDTH 10 0
BBX 9 15 0 0
BITMAP
024000
008000
060C00
02F400
000000
00E000
01B000
036400
071800
0A0C00
0D0900
1FFF00
280340
340280
7001C0
ENDCHAR
STARTCHAR uni1EB1
ENCODING 7857
SWIDTH 600 0
DWIDTH 10 0
BBX 8 13 1 0
BITMAP
0600
1998
0D24
07D0
0000
1BE0
2428
001C
06FD
790D
A00D
B06D
2F8D
ENDCHAR
STARTCHAR uni1EB2
ENCODING 7858
SWIDTH 600 0
DWIDTH 10 0
BBX 9 16 0 0
BITMAP
00D000
007000
009000
060C00
02F400
000000
00E000
01B000
036400
071800
0A0C00
0D0900
1FFF00
280340
340280
7001C0
ENDCHAR
STARTCHAR uni1EB3
ENCODING 7859
SWIDTH 600 0
DWIDTH 10 0
BBX 8 14 1 0
BITMAP
0280
00D0
1998
0D24
07D0
0000
1BE0
2428
001C
06FD
790D
A00D
B06D
2F8D
ENDCHAR
STARTCHAR uni1EB4
ENCODING 7860
SWIDTH 600 0
DWIDTH 10 0
BBX 9 15 0 0
BITMAP
038800
057800
060C00
02F400
000000
00E000
01B000
036400
071800
0A0C00
0D0900
1FFF00
280340
340280
7001C0
ENDCHAR
STARTCHAR uni1EB5
ENCODING 7861
SWIDTH 600 0
DWIDTH 10 0
BBX 8 13 1 0
BITMAP
0A54
09B0
0824
07E0
0000
1BE0
2428
001C
06FD
790D
A00D
B06D
2F8D
ENDCHAR
STARTCHAR uni1EB6
ENCODING 7862
SWIDTH 600 0
DWIDTH 10 0
BBX 9 17 0 -4
BITMAP
060800
02F400
000000
00E000
01B000
036400
071800
0A0C00
0D0900
1FFF00
280340
340280
7001C0
000000
000000
00E000
00E000
ENDCHAR
STARTCHAR uni1EB7
ENCODING 7863
SWIDTH 600 0
DWIDTH 10 0
BBX 8 16 1 -4
BITMAP
1818
0D34
07D0
0000
1BE0
2428
001C
06FD
790D
A00D
B06D
2F8D
0000
0000
0380
0380
ENDCHAR
STARTCHAR uni1EB8
ENCODING 7864
SWIDTH 600 0
DWIDTH 10 0
BBX 8 14 1 -4
BITMAP
7FFD
7400
7400
7400
7FF8
7400
7400
7400
7400
7FFD
0000
0000
01D0
02D0
ENDCHAR
STARTCHAR uni1EB9
ENCODING 7865
SWIDTH 600 0
DWIDTH 10 0
BBX 8 12 1 -4
BITMAP
0BE4
341C
A009
FFFE
E000
B000
3918
0BE8
0000
0000
02C0
02C0
ENDCHAR
STARTCHAR uni1EBA
ENCODING 7866
SWIDTH 600 0
DWIDTH 10 0
BBX 8 14 1 0
BITMAP
0280
00A0
0180
0000
7FFD
7400
7400
7400
7FF8
7400
7400
7400
7400
7FFD
ENDCHAR
STARTCHAR uni1EBB
ENCODING 7867
SWIDTH 600 0
DWIDTH 10 0
BBX 8 13 1 0
BITMAP
0380
00D0
00D0
0280
0000
0BE4
341C
A009
FFFE
E000
B000
3918
0BE8
ENDCHAR
STARTCHAR uni1EBC
ENCODING 7868
SWIDTH 600 0
DWIDTH 10 0
BBX 8 13 1 0
BITMAP
0B48
18B8
0000
7FFD
7400
7400
7400
7FF8
7400
7400
7400
7400
7FFD
ENDCHAR
STARTCHAR uni1EBD
ENCODING 7869
SWIDTH 600 0
DWIDTH 10 0
BBX 8 12 1 0
BITMAP
0504
1B58
24B4
0000
0BE4
341C
A009
FFFE
E000
B000
3918
0BE8
ENDCHAR
STARTCHAR uni1EBE
ENCODING 7870
SWIDTH 600 0
DWIDTH 10 0
BBX 8 14 1 0
BITMAP
0006
02D8
0520
0000
7FFD
7400
7400
7400
7FF8
7400
7400
7400
7400
7FFD
ENDCHAR
STARTCHAR uni1EBF
ENCODING 7871
SWIDTH 600 0
DWIDTH 10 0
BBX 8 12 1 0
BITMAP
0005
03D8
0960
0000
0BE4
341C
A009
FFFE
E000
B000
3918
0BE8
ENDCHAR
STARTCHAR uni1EC0
ENCODING 7872
SWIDTH 600 0
DWIDTH 10 0
BBX 8 14 1 0
BITMAP
2000
1AD0
0520
0000
7FFD
7400
7400
7400
7FF8
7400
7400
7400
7400
7FFD
ENDCHAR
STARTCHAR uni1EC1
ENCODING 7873
SWIDTH 600 0
DWIDTH 10 0
BBX 8 12 1 0
BITMAP
9000
27D0
0960
0000
0BE4
341C
A009
FFFE
E000
B000
3918
0BE8
ENDCHAR
STARTCHAR uni1EC2
ENCODING 7874
SWIDTH 600 0
DWIDTH 10 0
BBX 8 15 1 0
BITMAP
001D
000A
02D9
0520
0000
7FFD
7400
7400
7400
7FF8
7400
7400
7400
7400
7FFD
ENDCHAR
STARTCHAR uni1EC3
ENCODING 7875
SWIDTH 600 0
DWIDTH 10 0
BBX 8 13 1 0
BITMAP
0028
0009
03D8
0960
0000
0BE4
341C
A009
FFFE
E000
B000
3918
0BE8
ENDCHAR
STARTCHAR uni1EC4
ENCODING 7876
SWIDTH 600 0
DWIDTH 10 0
BBX 8 15 1 0
BITMAP
0B58
08B4
02D0
0520
0000
7FFD
7400
7400
7400
7FF8
7400
7400
7400
7400
7FFD
ENDCHAR
STARTCHAR uni1EC5
ENCODING 7877
SWIDTH 600 0
DWIDTH 10 0
BBX 8 13 1 0
BITMAP
0A60
09E0
03D0
0960
0000
0BE4
341C
A009
FFFE
E000
B000
3918
0BE8
ENDCHAR
STARTCHAR uni1EC6
ENCODING 7878
SWIDTH 600 0
DWIDTH 10 0
BBX 8 17 1 -4
BITMAP
02E0
0924
0000
7FFD
7400
7400
7400
7FF8
7400
7400
7400
7400
7FFD
0000
0000
01D0
02D0
ENDCHAR
STARTCHAR uni1EC7
ENCODING 7879
SWIDTH 600 0
DWIDTH 10 0
BBX 8 16 1 -4
BITMAP
03C0
0A60
1824
0000
0BE4
341C
A009
FFFE
E000
B000
3918
0BE8
0000
0000
02C0
02C0
ENDCHAR
STARTCHAR uni1EC8
ENCODING 7880
SWIDTH 600 0
DWIDTH 10 0
BBX 7 14 1 0
BITMAP
0780
01C0
0240
0000
7FFC
0340
0340
0340
0340
0340
0340
0340
0340
7FFC
ENDCHAR
STARTCHAR uni1EC9
ENCODING 7881
SWIDTH 600 0
DWIDTH 10 0
BBX 6 13 1 0
BITMAP
0190
0060
0060
0090
0000
BFD0
00D0
00D0
00D0
00D0
00D0
00D0
00D0
ENDCHAR
STARTCHAR uni1ECA
ENCODING 7882
SWIDTH 600 0
DWIDTH 10 0
BBX 7 14 1 -4
BITMAP
7FFC
0340
0340
0340
0340
0340
0340
0340
0340
7FFC
0000
0000
0380
0380
ENDCHAR
STARTCHAR uni1ECB
ENCODING 7883
SWIDTH 600 0
DWIDTH 10 0
BBX 6 15 1 -4
BITMAP
01D0
01D0
0000
BFD0
00D0
00D0
00D0
00D0
00D0
00D0
00D0
0000
0000
01D0
01D0
ENDCHAR
STARTCHAR uni1ECC
ENCODING 7884
SWIDTH 600 0
DWIDTH 10 0
BBX 9 14 0 -4
BITMAP
06F800
1D0A00
280340
340280
740280
740280
340280
280340
1D0A00
06F800
000000
000000
00E000
00E000
ENDCHAR
STARTCHAR uni1ECD
ENCODING 7885
SWIDTH 600 0
DWIDTH 10 0
BBX 8 12 1 -4
BITMAP
1BE0
7428
A00D
D00A
D00A
A00D
7428
1BE0
0000
0000
0380
0380
ENDCHAR
STARTCHAR uni1ECE
ENCODING 7886
SWIDTH 600 0
DWIDTH 10 0
BBX 9 14 0 0
BITMAP
01E000
007000
009000
000000
06F800
1D0A00
280340
340280
740280
740280
340280
280340
1D0A00
06F800
ENDCHAR
STARTCHAR uni1ECF
ENCODING 7887
SWIDTH 600 0
DWIDTH 10 0
BBX 8 13 1 0
BITMAP
0740
01C0
01C0
0240
0000
1BE0
7428
A00D
D00A
D00A
A00D
7428
1BE0
ENDCHAR
STARTCHAR uni1ED0
ENCODING 7888
SWIDTH 600 0
DWIDTH 10 0
BBX 9 14 0 0
BITMAP
000200
01E900
021800
000000
06F800
1D0A00
280340
340280
740280
740280
340280
280340
1D0A00
06F800
ENDCHAR
STARTCHAR uni1ED1
ENCODING 7889
SWIDTH 600 0
DWIDTH 10 0
BBX 8 12 1 0
BITMAP
0009
0794
0860
0000
1BE0
7428
A00D
D00A
D00A
A00D
7428
1BE0
ENDCHAR
STARTCHAR uni1ED2
ENCODING 7890
SWIDTH 600 0
DWIDTH 10 0
BBX 9 14 0 0
BITMAP
140000
09E000
021800
000000
06F800
1D0A00
280340
340280
740280
740280
340280
280340
1D0A00
06F800
ENDCHAR
STARTCHAR uni1ED3
ENCODING 7891
SWIDTH 600 0
DWIDTH 10 0
BBX 8 12 1 0
BITMAP
9000
2780
0860
0000
1BE0
7428
A00D
D00A
D00A
A00D
7428
1BE0
ENDCHAR
STARTCHAR uni1ED4
ENCODING 7892
SWIDTH 600 0
DWIDTH 10 0
BBX 9 15 0 0
BITMAP
000E00
000300
01E600
021800
000000
06F800
1D0A00
280340
340280
740280
740280
340280
280340
1D0A00
06F800
ENDCHAR
STARTCHAR uni1ED5
ENCODING 7893
SWIDTH 600 0
DWIDTH 10 0
BBX 8 13 1 0
BITMAP
0028
000C
0798
0860
0000
1BE0
7428
A00D
D00A
D00A
A00D
7428
1BE0
ENDCHAR
STARTCHAR uni1ED6
ENCODING 7894
SWIDTH 600 0
DWIDTH 10 0
BBX 9 15 0 0
BITMAP
038800
057800
01E000
021800
000000
06F800
1D0A00
280340
340280
740280
740280
340280
280340
1D0A00
06F800
ENDCHAR
STARTCHAR uni1ED7
ENCODING 7895
SWIDTH 600 0
DWIDTH 10 0
BBX 8 13 1 0
BITMAP
0A20
19E0
0780
0860
0000
1BE0
7428
A00D
D00A
D00A
A00D
7428
1BE0
ENDCHAR
STARTCHAR uni1ED8
ENCODING 7896
SWIDTH 600 0
DWIDTH 10 0
BBX 9 17 0 -4
BITMAP
01F000
061800
000000
06F800
1D0A00
280340
340280
740280
740280
340280
280340
1D0A00
06F800
000000
000000
00E000
00E000
ENDCHAR
STARTCHAR uni1ED9
ENCODING 7897
SWIDTH 600 0
DWIDTH 10 0
BBX 8 16 1 -4
BITMAP
0780
0DA0
1420
0000
1BE0
7428
A00D
D00A
D00A
A00D
7428
1BE0
0000
0000
0380
0380
ENDCHAR
STARTCHAR uni1EDA
ENCODING 7898
SWIDTH 600 0
DWIDTH 10 0
BBX 9 14 0 0
BITMAP
001400
007400
008180
0001C0
06FA40
1D0A00
280340
340280
740280
740280
340280
280340
1D0A00
06F800
ENDCHAR
STARTCHAR uni1EDB
ENCODING 7899
SWIDTH 600 0
DWIDTH 10 0
BBX 8 12 1 0
BITMAP
0060
01D6
0207
0006
1BE8
742C
A00D
D00A
D00A
A00D
7428
1BE0
ENDCHAR
STARTCHAR uni1EDC
ENCODING 7900
SWIDTH 600 0
DWIDTH 10 0
BBX 9 14 0 0
BITMAP
020000
02C000
006180
0001C0
06FA40
1D0A00
280340
340280
740280
740280
340280
280340
1D0A00
06F800
ENDCHAR
STARTCHAR uni1EDD
ENCODING 7901
SWIDTH 600 0
DWIDTH 10 0
BBX 8 12 1 0
BITMAP
0800
0B06
0187
0006
1BE8
742C
A00D
D00A
D00A
A00D
7428
1BE0
ENDCHAR
STARTCHAR uni1EDE
ENCODING 7902
SWIDTH 600 0
DWIDTH 10 0
BBX 9 14 0 0
BITMAP
01E000
007000
009180
0001C0
06FA40
1D0A00
280340
340280
740280
740280
340280
280340
1D0A00
06F800
ENDCHAR
STARTCHAR uni1EDF
ENCODING 7903
SWIDTH 600 0
DWIDTH 10 0
BBX 8 13 1 0
BITMAP
0740
01C0
01C6
0247
0006
1BE8
742C
A00D
D00A
D00A
A00D
7428
1BE0
ENDCHAR
STARTCHAR uni1EE0
ENCODING 7904
SWIDTH 600 0
DWIDTH 10 0
BBX 9 13 0 0
BITMAP
0B8900
18B980
0001C0
06FA40
1D0A00
280340
340280
740280
740280
340280
280340
1D0A00
06F800
ENDCHAR
STARTCHAR uni1EE1
ENCODING 7905
SWIDTH 600 0
DWIDTH 10 0
BBX 8 12 1 0
BITMAP
0410
3A26
61E7
0006
1BE8
742C
A00D
D00A
D00A
A00D
7428
1BE0
ENDCHAR
STARTCHAR uni1EE2
ENCODING 7906
SWIDTH 600 0
DWIDTH 10 0
BBX 9 16 0 -4
BITMAP
000180
0001C0
06FA40
1D0A00
280340
340280
740280
740280
340280
280340
1D0A00
06F800
000000
000000
00E000
00E000
ENDCHAR
STARTCHAR uni1EE3
ENCODING 7907
SWIDTH 600 0
DWIDTH 10 0
BBX 8 15 1 -4
BITMAP
0006
0007
0006
1BE8
742C
A00D
D00A
D00A
A00D
7428
1BE0
0000
0000
0380
0380
ENDCHAR
STARTCHAR uni1EE4
ENCODING 7908
SWIDTH 600 0
DWIDTH 10 0
BBX 8 14 1 -4
BITMAP
A00D
A00D
A00D
A00D
A00D
A00D
A00D
A01D
7428
1BE0
0000
0000
0380
0380
ENDCHAR
STARTCHAR uni1EE5
ENCODING 7909
SWIDTH 600 0
DWIDTH 10 0
BBX 7 12 1 -4
BITMAP
A01C
A01C
A01C
A01C
A01C
A01C
746C
2F8C
0000
0000
0380
0380
ENDCHAR
STARTCHAR uni1EE6
ENCODING 7910
SWIDTH 600 0
DWIDTH 10 0
BBX 8 14 1 0
BITMAP
0780
01C0
0240
0000
A00D
A00D
A00D
A00D
A00D
A00D
A00D
A01D
7428
1BE0
ENDCHAR
STARTCHAR uni1EE7
ENCODING 7911
SWIDTH 600 0
DWIDTH 10 0
BBX 7 13 1 0
BITMAP
0740
01C0
01C0
0240
0000
A01C
A01C
A01C
A01C
A01C
A01C
746C
2F8C
ENDCHAR
STARTCHAR uni1EE8
ENCODING 7912
SWIDTH 600 0
DWIDTH 10 0
BBX 9 14 1 0
BITMAP
005000
01D080
0200C0
0001C0
A00F40
A00D00
A00D00
A00D00
A00D00
A00D00
A00D00
A01D00
742800
1BE000
ENDCHAR
STARTCHAR uni1EE9
ENCODING 7913
SWIDTH 600 0
DWIDTH 10 0
BBX 9 12 1 0
BITMAP
006000
01D240
020280
000340
A01E00
A01C00
A01C00
A01C00
A01C00
A01C00
746C00
2F8C00
ENDCHAR
STARTCHAR uni1EEA
ENCODING 7914
SWIDTH 600 0
DWIDTH 10 0
BBX 9 14 1 0
BITMAP
080000
0B0080
0180C0
0001C0
A00F40
A00D00
A00D00
A00D00
A00D00
A00D00
A00D00
A01D00
742800
1BE000
ENDCHAR
STARTCHAR uni1EEB
ENCODING 7915
SWIDTH 600 0
DWIDTH 10 0
BBX 9 12 1 0
BITMAP
080000
0A0240
014280
000340
A01E00
A01C00
A01C00
A01C00
A01C00
A01C00
746C00
2F8C00
ENDCHAR
STARTCHAR uni1EEC
ENCODING 7916
SWIDTH 600 0
DWIDTH 10 0
BBX 9 14 1 0
BITMAP
078000
01C080
0240C0
0001C0
A00F40
A00D00
A00D00
A00D00
A00D00
A00D00
A00D00
A01D00
742800
1BE000
ENDCHAR
STARTCHAR uni1EED
ENCODING 7917
SWIDTH 600 0
DWIDTH 10 0
BBX 9 13 1 0
BITMAP
074000
01C000
01C240
024280
000340
A01E00
A01C00
A01C00
A01C00
A01C00
A01C00
746C00
2F8C00
ENDCHAR
STARTCHAR uni1EEE
ENCODING 7918
SWIDTH 600 0
DWIDTH 10 0
BBX 9 13 1 0
BITMAP
1E5480
21F0C0
0001C0
A00F40
A00D00
A00D00
A00D00
A00D00
A00D00
A00D00
A01D00
742800
1BE000
ENDCHAR
STARTCHAR uni1EEF
ENCODING 7919
SWIDTH 600 0
DWIDTH 10 0
BBX 9 12 1 0
BITMAP
040000
2A2640
21E280
000340
A01E00
A01C00
A01C00
A01C00
A01C00
A01C00
746C00
2F8C00
ENDCHAR
STARTCHAR uni1EF0
ENCODING 7920
SWIDTH 600 0
DWIDTH 10 0
BBX 9 17 1 -4
BITMAP
000080
0000C0
0001C0
A00F40
A00D00
A00D00
A00D00
A00D00
A00D00
A00D00
A01D00
742800
1BE000
000000
000000
038000
038000
ENDCHAR
STARTCHAR uni1EF1
ENCODING 7921
SWIDTH 600 0
DWIDTH 10 0
BBX 9 15 1 -4
BITMAP
000240
000280
000340
A01E00
A01C00
A01C00
A01C00
A01C00
A01C00
746C00
2F8C00
000000
000000
038000
038000
ENDCHAR
STARTCHAR Ygrave
ENCODING 7922
SWIDTH 600 0
DWIDTH 10 0
BBX 8 14 1 0
BITMAP
0800
0B00
0180
0000
D00A
A00D
3428
1C70
0DA0
07C0
0380
0340
0340
0340
ENDCHAR
STARTCHAR ygrave
ENCODING 7923
SWIDTH 600 0
DWIDTH 10 0
BBX 8 15 1 -3
BITMAP
0800
0B00
0180
0000
D00A
600D
3418
2824
0C70
0AA0
03C0
0280
0340
0A00
B800
ENDCHAR
STARTCHAR uni1EF4
ENCODING 7924
SWIDTH 600 0
DWIDTH 10 0
BBX 8 14 1 -4
BITMAP
D00A
A00D
3428
1C70
0DA0
07C0
0380
0340
0340
0340
0000
0000
0380
0380
ENDCHAR
STARTCHAR uni1EF5
ENCODING 7925
SWIDTH 600 0
DWIDTH 10 0
BBX 8 12 1 -4
BITMAP
D00A
600D
3418
2824
0C70
0AA0
03C0
0280
0340
0A00
B81D
002D
ENDCHAR
STARTCHAR uni1EF6
ENCODING 7926
SWIDTH 600 0
DWIDTH 10 0
BBX 8 14 1 0
BITMAP
0780
01C0
0240
0000
D00A
A00D
3428
1C70
0DA0
07C0
0380
0340
0340
0340
ENDCHAR
STARTCHAR uni1EF7
ENCODING 7927
SWIDTH 600 0
DWIDTH 10 0
BBX 8 16 1 -3
BITMAP
0740
01C0
01C0
0240
0000
D00A
600D
3418
2824
0C70
0AA0
03C0
0280
0340
0A00
B800
ENDCHAR
STARTCHAR uni1EF8
ENCODING 7928
SWIDTH 600 0
DWIDTH 10 0
BBX 8 13 1 0
BITMAP
1E54
21F0
0000
D00A
A00D
3428
1C70
0DA0
07C0
0380
0340
0340
0340
ENDCHAR
STARTCHAR uni1EF9
ENCODING 7929
SWIDTH 600 0
DWIDTH 10 0
BBX 8 15 1 -3
BITMAP
0400
2B58
21B0
0000
D00A
600D
3418
2824
0C70
0AA0
03C0
0280
0340
0A00
B800
ENDCHAR
STARTCHAR uni1FBD
ENCODING 8125
SWIDTH 600 0
DWIDTH 10 0
BBX 3 4 3 9
BITMAP
74
1C
1C
24
ENDCHAR
STARTCHAR uni1FBE
ENCODING 8126
SWIDTH 600 0
DWIDTH 10 0
BBX 3 7 4 0
BITMAP
D0
D0
D0
D0
D0
D0
B4
ENDCHAR
STARTCHAR uni1FBF
ENCODING 8127
SWIDTH 600 0
DWIDTH 10 0
BBX 3 4 3 9
BITMAP
74
1C
1C
24
ENDCHAR
STARTCHAR uni1FC0
ENCODING 8128
SWIDTH 600 0
DWIDTH 10 0
BBX 6 3 2 9
BITMAP
1000
AD90
8780
ENDCHAR
STARTCHAR uni1FC1
ENCODING 8129
SWIDTH 600 0
DWIDTH 10 0
BBX 5 4 2 10
BITMAP
7880
9780
0000
6180
ENDCHAR
STARTCHAR uni1FCD
ENCODING 8141
SWIDTH 600 0
DWIDTH 10 0
BBX 5 3 2 9
BITMAP
A300
2640
6180
ENDCHAR
STARTCHAR uni1FCE
ENCODING 8142
SWIDTH 600 0
DWIDTH 10 0
BBX 5 4 2 8
BITMAP
A180
2640
6300
0100
ENDCHAR
STARTCHAR uni1FCF
ENCODING 8143
SWIDTH 600 0
DWIDTH 10 0
BBX 5 4 2 9
BITMAP
2880
6F80
0600
0900
ENDCHAR
STARTCHAR uni1FDD
ENCODING 8157
SWIDTH 600 0
DWIDTH 10 0
BBX 5 3 2 9
BITMAP
7700
9240
6140
ENDCHAR
STARTCHAR uni1FDE
ENCODING 8158
SWIDTH 600 0
DWIDTH 10 0
BBX 5 3 2 9
BITMAP
6680
A240
6300
ENDCHAR
STARTCHAR uni1FDF
ENCODING 8159
SWIDTH 600 0
DWIDTH 10 0
BBX 5 4 2 9
BITMAP
2880
6F80
1C00
0900
ENDCHAR
STARTCHAR uni1FED
ENCODING 8173
SWIDTH 600 0
DWIDTH 10 0
BBX 5 3 2 9
BITMAP
0C00
5880
0500
ENDCHAR
STARTCHAR uni1FEE
ENCODING 8174
SWIDTH 600 0
DWIDTH 10 0
BBX 6 4 2 9
BITMAP
0600
0600
99D0
0800
ENDCHAR
STARTCHAR uni1FEF
ENCODING 8175
SWIDTH 600 0
DWIDTH 10 0
BBX 3 3 3 9
BITMAP
60
30
24
ENDCHAR
STARTCHAR uni1FFD
ENCODING 8189
SWIDTH 600 0
DWIDTH 10 0
BBX 3 4 4 9
BITMAP
34
70
A0
90
ENDCHAR
STARTCHAR uni1FFE
ENCODING 8190
SWIDTH 600 0
DWIDTH 10 0
BBX 3 4 3 9
BITMAP
28
60
60
24
ENDCHAR
STARTCHAR uni2007
ENCODING 8199
SWIDTH 600 0
DWIDTH 10 0
BBX 1 1 0 0
BITMAP
00
ENDCHAR
STARTCHAR uni2010
ENCODING 8208
SWIDTH 600 0
DWIDTH 10 0
BBX 8 1 1 5
BITMAP
BFFD
ENDCHAR
STARTCHAR figuredash
ENCODING 8210
SWIDTH 600 0
DWIDTH 10 0
BBX 8 1 1 4
BITMAP
BFFD
ENDCHAR
STARTCHAR endash
ENCODING 8211
SWIDTH 600 0
DWIDTH 10 0
BBX 8 1 1 4
BITMAP
BFFD
ENDCHAR
STARTCHAR emdash
ENCODING 8212
SWIDTH 600 0
DWIDTH 10 0
BBX 10 1 0 4
BITMAP
FFFFE0
ENDCHAR
STARTCHAR uni2015
ENCODING 8213
SWIDTH 600 0
DWIDTH 10 0
BBX 10 1 0 4
BITMAP
FFFFE0
ENDCHAR
STARTCHAR uni2016
ENCODING 8214
SWIDTH 600 0
DWIDTH 10 0
BBX 5 16 2 -4
BITMAP
A0C0
A0C0
A0C0
A0C0
A0C0
A0C0
A0C0
A0C0
A0C0
A0C0
A0C0
A0C0
A0C0
A0C0
A0C0
A0C0
ENDCHAR
STARTCHAR underscoredbl
ENCODING 8215
SWIDTH 600 0
DWIDTH 10 0
BBX 8 3 1 -4
BITMAP
FFFE
0000
FFFE
ENDCHAR
STARTCHAR quoteleft
ENCODING 8216
SWIDTH 600 0
DWIDTH 10 0
BBX 3 5 3 6
BITMAP
18
30
A0
B8
78
ENDCHAR
STARTCHAR quoteright
ENCODING 8217
SWIDTH 600 0
DWIDTH 10 0
BBX 3 5 3 6
BITMAP
78
7C
0C
18
60
ENDCHAR
STARTCHAR quotesinglbase
ENCODING 8218
SWIDTH 600 0
DWIDTH 10 0
BBX 3 5 3 -3
BITMAP
78
7C
0C
18
60
ENDCHAR
STARTCHAR quotereversed
ENCODING 8219
SWIDTH 600 0
DWIDTH 10 0
BBX 3 5 3 6
BITMAP
78
B8
60
30
18
ENDCHAR
STARTCHAR quotedblleft
ENCODING 8220
SWIDTH 600 0
DWIDTH 10 0
BBX 7 5 1 6
BITMAP
1C18
3470
6090
7CB8
3C78
ENDCHAR
STARTCHAR quotedblright
ENCODING 8221
SWIDTH 600 0
DWIDTH 10 0
BBX 6 5 2 6
BITMAP
E1E0
F5F0
2430
60A0
C180
ENDCHAR
STARTCHAR quotedblbase
ENCODING 8222
SWIDTH 600 0
DWIDTH 10 0
BBX 6 5 2 -3
BITMAP
E1E0
F5F0
2430
60A0
C180
ENDCHAR
STARTCHAR dagger
ENCODING 8224
SWIDTH 600 0
DWIDTH 10 0
BBX 6 13 2 -1
BITMAP
0900
0900
0900
FFE0
0900
0900
0900
0900
0900
0900
0900
0900
0900
ENDCHAR
STARTCHAR daggerdbl
ENCODING 8225
SWIDTH 600 0
DWIDTH 10 0
BBX 6 14 2 -2
BITMAP
0900
0900
0900
FFE0
0900
0900
0900
0900
0900
0900
FFE0
0900
0900
0900
ENDCHAR
STARTCHAR bullet
ENCODING 8226
SWIDTH 600 0
DWIDTH 10 0
BBX 5 5 2 2
BITMAP
2F40
7FC0
BFC0
7FC0
2F40
ENDCHAR
STARTCHAR ellipsis
ENCODING 8230
SWIDTH 600 0
DWIDTH 10 0
BBX 9 2 0 0
BITMAP
74E380
74E380
ENDCHAR
STARTCHAR uni202F
ENCODING 8239
SWIDTH 600 0
DWIDTH 10 0
BBX 1 1 0 0
BITMAP
00
ENDCHAR
STARTCHAR perthousand
ENCODING 8240
SWIDTH 600 0
DWIDTH 10 0
BBX 8 10 1 0
BITMAP
B800
8900
890B
B9A4
1A40
1000
B87D
8996
8996
B87D
ENDCHAR
STARTCHAR uni2032
ENCODING 8242
SWIDTH 600 0
DWIDTH 10 0
BBX 2 4 4 7
BITMAP
A0
A0
90
C0
ENDCHAR
STARTCHAR uni2033
ENCODING 8243
SWIDTH 600 0
DWIDTH 10 0
BBX 5 4 2 7
BITMAP
35C0
31C0
3180
6140
ENDCHAR
STARTCHAR uni2035
ENCODING 8245
SWIDTH 600 0
DWIDTH 10 0
BBX 2 4 4 7
BITMAP
D0
D0
90
50
ENDCHAR
STARTCHAR guilsinglleft
ENCODING 8249
SWIDTH 600 0
DWIDTH 10 0
BBX 3 6 3 1
BITMAP
08
34
A0
A0
34
08
ENDCHAR
STARTCHAR guilsinglright
ENCODING 8250
SWIDTH 600 0
DWIDTH 10 0
BBX 4 6 3 1
BITMAP
60
28
0D
0D
28
60
ENDCHAR
STARTCHAR exclamdbl
ENCODING 8252
SWIDTH 600 0
DWIDTH 10 0
BBX 7 10 1 0
BITMAP
3434
3434
3434
3424
3424
2024
2024
0000
7878
7878
ENDCHAR
STARTCHAR uni203D
ENCODING 8253
SWIDTH 600 0
DWIDTH 10 0
BBX 7 10 1 0
BITMAP
1BE0
6478
0328
0374
0380
0300
0000
0000
0740
0740
ENDCHAR
STARTCHAR uni203E
ENCODING 8254
SWIDTH 600 0
DWIDTH 10 0
BBX 8 1 1 9
BITMAP
FFFE
ENDCHAR
STARTCHAR uni203F
ENCODING 8255
SWIDTH 600 0
DWIDTH 10 0
BBX 15 3 -3 -4
BITMAP
50000018
1A5005A4
01AFF900
ENDCHAR
STARTCHAR fraction
ENCODING 8260
SWIDTH 600 0
DWIDTH 10 0
BBX 9 9 0 1
BITMAP
000080
000240
000900
000400
000000
010000
090000
240000
600000
ENDCHAR
STARTCHAR uni2047
ENCODING 8263
SWIDTH 600 0
DWIDTH 10 0
BBX 9 10 0 0
BITMAP
6E2F40
5391C0
0281C0
034280
0A0700
1C0A00
180D00
000000
2D1E00
2D1E00
ENDCHAR
STARTCHAR uni2048
ENCODING 8264
SWIDTH 600 0
DWIDTH 10 0
BBX 8 11 0 0
BITMAP
6E0A
534A
028A
034A
0706
0D06
1C06
1805
0000
2D0F
2D0F
ENDCHAR
STARTCHAR uni2049
ENCODING 8265
SWIDTH 600 0
DWIDTH 10 0
BBX 8 10 1 0
BITMAP
34BD
3447
3007
300A
301C
3028
3034
0000
7478
7478
ENDCHAR
STARTCHAR zero.sups
ENCODING 8304
SWIDTH 600 0
DWIDTH 10 0
BBX 6 7 2 6
BITMAP
2F40
61C0
9090
9090
9090
61C0
2F40
ENDCHAR
STARTCHAR i.sups
ENCODING 8305
SWIDTH 600 0
DWIDTH 10 0
BBX 4 9 2 5
BITMAP
03
00
00
7F
03
03
03
03
01
ENDCHAR
STARTCHAR four.sups
ENCODING 8308
SWIDTH 600 0
DWIDTH 10 0
BBX 6 7 2 6
BITMAP
0500
0C00
2540
6140
BFD0
0140
0140
ENDCHAR
STARTCHAR five.sups
ENCODING 8309
SWIDTH 600 0
DWIDTH 10 0
BBX 5 6 2 6
BITMAP
3FC0
3000
3F40
11C0
51C0
2F40
ENDCHAR
STARTCHAR six.sups
ENCODING 8310
SWIDTH 600 0
DWIDTH 10 0
BBX 6 7 2 6
BITMAP
1B80
3440
6500
BA80
6090
60C0
1F40
ENDCHAR
STARTCHAR seven.sups
ENCODING 8311
SWIDTH 600 0
DWIDTH 10 0
BBX 5 6 2 6
BITMAP
BFC0
0180
0200
0500
0900
0C00
ENDCHAR
STARTCHAR eight.sups
ENCODING 8312
SWIDTH 600 0
DWIDTH 10 0
BBX 5 7 2 6
BITMAP
2F40
61C0
3580
2F40
61C0
A0C0
2F40
ENDCHAR
STARTCHAR nine.sups
ENCODING 8313
SWIDTH 600 0
DWIDTH 10 0
BBX 5 7 2 6
BITMAP
2E00
A180
90C0
7AC0
04C0
0280
7E00
ENDCHAR
STARTCHAR parenleft.sups
ENCODING 8317
SWIDTH 600 0
DWIDTH 10 0
BBX 3 9 3 5
BITMAP
08
28
30
30
60
30
30
28
08
ENDCHAR
STARTCHAR parenright.sups
ENCODING 8318
SWIDTH 600 0
DWIDTH 10 0
BBX 3 9 3 5
BITMAP
50
30
18
18
18
18
18
30
50
ENDCHAR
STARTCHAR n.sups
ENCODING 8319
SWIDTH 600 0
DWIDTH 10 0
BBX 6 6 2 5
BITMAP
6B80
74D0
6090
6090
6090
1040
ENDCHAR
STARTCHAR zero.subs
ENCODING 8320
SWIDTH 600 0
DWIDTH 10 0
BBX 6 7 2 -3
BITMAP
2F40
61C0
9090
9090
9090
61C0
2F40
ENDCHAR
STARTCHAR one.subs
ENCODING 8321
SWIDTH 600 0
DWIDTH 10 0
BBX 6 6 2 -3
BITMAP
2A00
0600
0600
0600
0600
7FE0
ENDCHAR
STARTCHAR two.subs
ENCODING 8322
SWIDTH 600 0
DWIDTH 10 0
BBX 5 7 2 -3
BITMAP
2E00
5280
0180
0240
0A00
2800
7FC0
ENDCHAR
STARTCHAR three.subs
ENCODING 8323
SWIDTH 600 0
DWIDTH 10 0
BBX 5 7 2 -3
BITMAP
2F40
5180
0180
0F40
01C0
51C0
2F40
ENDCHAR
STARTCHAR four.subs
ENCODING 8324
SWIDTH 600 0
DWIDTH 10 0
BBX 6 7 2 -3
BITMAP
0500
0C00
2540
6140
BFD0
0140
0140
ENDCHAR
STARTCHAR five.subs
ENCODING 8325
SWIDTH 600 0
DWIDTH 10 0
BBX 5 6 2 -3
BITMAP
3FC0
3000
3F40
11C0
51C0
2F40
ENDCHAR
STARTCHAR six.subs
ENCODING 8326
SWIDTH 600 0
DWIDTH 10 0
BBX 6 7 2 -3
BITMAP
1B80
3440
6500
BA80
6090
60C0
1F40
ENDCHAR
STARTCHAR seven.subs
ENCODING 8327
SWIDTH 600 0
DWIDTH 10 0
BBX 5 6 2 -3
BITMAP
BFC0
0180
0200
0500
0900
0C00
ENDCHAR
STARTCHAR eight.subs
ENCODING 8328
SWIDTH 600 0
DWIDTH 10 0
BBX 5 7 2 -3
BITMAP
2F40
61C0
3580
2F40
61C0
A0C0
2F40
ENDCHAR
STARTCHAR nine.subs
ENCODING 8329
SWIDTH 600 0
DWIDTH 10 0
BBX 5 7 2 -3
BITMAP
2E00
A180
90C0
7AC0
04C0
0280
7E00
ENDCHAR
STARTCHAR parenleft.subs
ENCODING 8333
SWIDTH 600 0
DWIDTH 10 0
BBX 3 9 3 -4
BITMAP
08
28
30
30
60
30
30
28
08
ENDCHAR
STARTCHAR parenright.subs
ENCODING 8334
SWIDTH 600 0
DWIDTH 10 0
BBX 3 9 3 -4
BITMAP
50
30
18
18
18
18
18
30
50
ENDCHAR
STARTCHAR uni0259.sups
ENCODING 8340
SWIDTH 600 0
DWIDTH 10 0
BBX 6 5 2 6
BITMAP
2F40
11C0
BFD0
91C0
2F40
ENDCHAR
STARTCHAR colonmonetary
ENCODING 8353
SWIDTH 600 0
DWIDTH 10 0
BBX 8 14 1 -2
BITMAP
0094
0194
0BFD
2D68
3560
7260
7220
7220
7260
3660
2E55
0BFC
0590
0580
ENDCHAR
STARTCHAR franc
ENCODING 8355
SWIDTH 600 0
DWIDTH 10 0
BBX 8 10 1 0
BITMAP
2FFE
2800
2800
2800
2FF8
2800
2800
FFD0
2800
2800
ENDCHAR
STARTCHAR lira
ENCODING 8356
SWIDTH 600 0
DWIDTH 10 0
BBX 8 10 1 0
BITMAP
07F8
1D18
2800
BFF0
0C00
BFF0
0900
0D00
2800
BFFE
ENDCHAR
STARTCHAR uni20A6
ENCODING 8358
SWIDTH 600 0
DWIDTH 10 0
BBX 9 10 0 0
BITMAP
0E0600
0F0600
098600
7FFF80
0C9600
7FFF80
0C3600
0C2A00
0C1E00
0C0E00
ENDCHAR
STARTCHAR peseta
ENCODING 8359
SWIDTH 600 0
DWIDTH 10 0
BBX 10 10 0 0
BITMAP
0FF800
0D1E00
0D0700
7FFFD0
0D0700
0D1E00
0FF800
0D0000
0D0000
0D0000
ENDCHAR
STARTCHAR uni20A9
ENCODING 8361
SWIDTH 600 0
DWIDTH 10 0
BBX 9 10 0 0
BITMAP
345280
24E240
29B240
29B340
BFFFC0
1A6700
1E6B00
0E6A00
0F1E00
0B1E00
ENDCHAR
STARTCHAR dong
ENCODING 8363
SWIDTH 600 0
DWIDTH 10 0
BBX 8 11 1 0
BITMAP
0024
03FE
0024
0BA4
3874
7024
7024
3874
1BA4
0000
3FFC
ENDCHAR
STARTCHAR Euro
ENCODING 8364
SWIDTH 600 0
DWIDTH 10 0
BBX 8 10 1 0
BITMAP
06F8
1D06
3800
FFFC
3400
FFF4
3400
2800
0E06
02F8
ENDCHAR
STARTCHAR uni20AE
ENCODING 8366
SWIDTH 600 0
DWIDTH 10 0
BBX 8 10 1 0
BITMAP
FFFE
0340
0344
03A4
0B84
67A4
0B80
6740
0340
0340
ENDCHAR
STARTCHAR uni20B1
ENCODING 8369
SWIDTH 600 0
DWIDTH 10 0
BBX 10 10 0 0
BITMAP
0FF800
0D1A00
6FAB90
1E5740
6FAF90
0E5D00
0FA400
0D0000
0D0000
0D0000
ENDCHAR
STARTCHAR uni20B2
ENCODING 8370
SWIDTH 600 0
DWIDTH 10 0
BBX 8 14 1 -2
BITMAP
00C0
00C0
07F4
2D18
3400
7000
A000
A0BD
7009
3409
2D1D
07F8
00C0
00C0
ENDCHAR
STARTCHAR uni20B4
ENCODING 8372
SWIDTH 600 0
DWIDTH 10 0
BBX 8 10 1 0
BITMAP
1BD0
2474
0024
0074
FFFE
0B40
FFFE
3400
381C
1BE4
ENDCHAR
STARTCHAR uni20B5
ENCODING 8373
SWIDTH 600 0
DWIDTH 10 0
BBX 8 14 1 -2
BITMAP
0080
0080
06F8
1D99
3480
7080
7080
7080
7080
3480
1D99
06F8
0080
0080
ENDCHAR
STARTCHAR uni20B8
ENCODING 8376
SWIDTH 600 0
DWIDTH 10 0
BBX 8 10 1 0
BITMAP
FFFE
0000
FFFE
0340
0340
0340
0340
0340
0340
0340
ENDCHAR
STARTCHAR uni20B9
ENCODING 8377
SWIDTH 600 0
DWIDTH 10 0
BBX 8 10 1 0
BITMAP
7FFD
00A0
7FFD
0070
01A0
7F80
0700
0280
00A0
0034
ENDCHAR
STARTCHAR uni20BA
ENCODING 8378
SWIDTH 600 0
DWIDTH 10 0
BBX 8 10 1 0
BITMAP
1C00
1C60
1E40
7C60
5E40
7C05
5C0A
1C0D
1C78
1F90
ENDCHAR
STARTCHAR uni20BD
ENCODING 8381
SWIDTH 600 0
DWIDTH 10 0
BBX 9 10 0 0
BITMAP
07FD00
060780
0601C0
0601C0
060780
7FFD00
060000
7FFF00
060000
060000
ENDCHAR
STARTCHAR uni2105
ENCODING 8453
SWIDTH 600 0
DWIDTH 10 0
BBX 9 10 0 0
BITMAP
2E0080
610240
900900
610400
2E0000
001F40
0631C0
1860C0
7031C0
101F40
ENDCHAR
STARTCHAR uni2113
ENCODING 8467
SWIDTH 600 0
DWIDTH 10 0
BBX 6 11 2 0
BITMAP
0B80
1CA0
28A0
2890
28C0
2A40
2D00
7800
A800
1C10
0BD0
ENDCHAR
STARTCHAR uni2116
ENCODING 8470
SWIDTH 600 0
DWIDTH 10 0
BBX 10 10 0 0
BITMAP
70A780
74D9A0
68DC60
6CD9A0
69D780
669000
6297D0
639000
A2D000
D1D000
ENDCHAR
STARTCHAR uni2117
ENCODING 8471
SWIDTH 600 0
DWIDTH 10 0
BBX 9 10 0 0
BITMAP
06F800
1D0700
314180
53B880
530C80
53F480
530080
310180
1D0700
06F800
ENDCHAR
STARTCHAR uni2120
ENCODING 8480
SWIDTH 600 0
DWIDTH 10 0
BBX 10 5 0 6
BITMAP
7D70D0
606590
186A90
466A90
7D5050
ENDCHAR
STARTCHAR trademark
ENCODING 8482
SWIDTH 600 0
DWIDTH 10 0
BBX 10 5 0 6
BITMAP
FF70D0
246590
246A90
246A90
246090
ENDCHAR
STARTCHAR uni2126
ENCODING 8486
SWIDTH 600 0
DWIDTH 10 0
BBX 9 10 0 0
BITMAP
06F800
1D0A00
280340
340280
740280
340280
340280
280300
090900
7F1FC0
ENDCHAR
STARTCHAR estimated
ENCODING 8494
SWIDTH 600 0
DWIDTH 10 0
BBX 9 10 0 0
BITMAP
06F800
190600
380380
7803C0
BFFFC0
B80000
780000
380100
1D0900
06F400
ENDCHAR
STARTCHAR uni2150
ENCODING 8528
SWIDTH 600 0
DWIDTH 10 0
BBX 9 10 0 0
BITMAP
2D0080
090240
090900
090400
090000
012FC0
090140
240200
600600
000900
ENDCHAR
STARTCHAR uni2151
ENCODING 8529
SWIDTH 600 0
DWIDTH 10 0
BBX 9 10 0 0
BITMAP
2D0080
090240
090900
090400
090000
011F40
0935C0
242EC0
600180
002E40
ENDCHAR
STARTCHAR uni2152
ENCODING 8530
SWIDTH 600 0
DWIDTH 10 0
BBX 8 10 1 0
BITMAP
B800
1800
180B
15A4
1A40
107D
B896
18C2
1896
187D
ENDCHAR
STARTCHAR onethird
ENCODING 8531
SWIDTH 600 0
DWIDTH 10 0
BBX 9 10 0 0
BITMAP
2D0080
090240
090900
090400
090000
011F40
091180
240B40
6011C0
001F40
ENDCHAR
STARTCHAR twothirds
ENCODING 8532
SWIDTH 600 0
DWIDTH 10 0
BBX 9 10 0 0
BITMAP
2E0080
134240
020900
180400
7F8000
011F40
091180
240B40
6011C0
001F40
ENDCHAR
STARTCHAR uni2155
ENCODING 8533
SWIDTH 600 0
DWIDTH 10 0
BBX 9 10 0 0
BITMAP
2D0080
090240
090900
090400
090000
011F80
091400
241F80
6011C0
001F40
ENDCHAR
STARTCHAR uni2156
ENCODING 8534
SWIDTH 600 0
DWIDTH 10 0
BBX 9 10 0 0
BITMAP
2E0080
134240
020900
180400
7F8000
011F80
091400
241F80
6011C0
001F40
ENDCHAR
STARTCHAR uni2157
ENCODING 8535
SWIDTH 600 0
DWIDTH 10 0
BBX 9 10 0 0
BITMAP
2E0080
130240
0E0900
524400
2E0000
011F80
091400
241F80
6011C0
001F40
ENDCHAR
STARTCHAR uni2158
ENCODING 8536
SWIDTH 600 0
DWIDTH 10 0
BBX 9 10 0 0
BITMAP
080080
250240
230900
7F8400
030000
011F80
091400
241F80
6011C0
001F40
ENDCHAR
STARTCHAR uni2159
ENCODING 8537
SWIDTH 600 0
DWIDTH 10 0
BBX 9 10 0 0
BITMAP
2D0080
090240
090900
090400
090000
010B80
092440
243B80
6024C0
001B80
ENDCHAR
STARTCHAR uni215A
ENCODING 8538
SWIDTH 600 0
DWIDTH 10 0
BBX 9 10 0 0
BITMAP
2F4080
300240
3F4900
528400
2E0000
010B80
092440
243B80
6024C0
001B80
ENDCHAR
STARTCHAR oneeighth
ENCODING 8539
SWIDTH 600 0
DWIDTH 10 0
BBX 9 10 0 0
BITMAP
2D0080
090240
090900
090400
090000
011F40
092580
241F40
6030C0
001F80
ENDCHAR
STARTCHAR threeeighths
ENCODING 8540
SWIDTH 600 0
DWIDTH 10 0
BBX 9 10 0 0
BITMAP
2E0080
130240
0E0900
524400
2E0000
011F40
092580
241F40
6030C0
001F80
ENDCHAR
STARTCHAR fiveeighths
ENCODING 8541
SWIDTH 600 0
DWIDTH 10 0
BBX 9 10 0 0
BITMAP
2F4080
300240
3F4900
528400
2E0000
011F40
092580
241F40
6030C0
001F80
ENDCHAR
STARTCHAR seveneighths
ENCODING 8542
SWIDTH 600 0
DWIDTH 10 0
BBX 9 10 0 0
BITMAP
7F8080
020240
090900
0C0400
0C0000
011F40
092580
241F40
6030C0
001F80
ENDCHAR
STARTCHAR uni2189
ENCODING 8585
SWIDTH 600 0
DWIDTH 10 0
BBX 9 10 0 0
BITMAP
2E0080
618240
90C900
618400
2E0000
011F40
091180
240B40
6011C0
001F40
ENDCHAR
STARTCHAR uni2190
ENCODING 8592
SWIDTH 600 0
DWIDTH 10 0
BBX 9 9 0 0
BITMAP
004000
028000
0A0000
280000
BFFFC0
280000
0A0000
028000
004000
ENDCHAR
STARTCHAR arrowup
ENCODING 8593
SWIDTH 600 0
DWIDTH 10 0
BBX 9 9 0 0
BITMAP
009000
02F400
0A9D00
289740
609180
009000
009000
009000
009000
ENDCHAR
STARTCHAR uni2192
ENCODING 8594
SWIDTH 600 0
DWIDTH 10 0
BBX 9 9 0 0
BITMAP
005000
007400
001D00
000340
BFFFC0
000340
001D00
007400
005000
ENDCHAR
STARTCHAR arrowdown
ENCODING 8595
SWIDTH 600 0
DWIDTH 10 0
BBX 9 9 0 0
BITMAP
009000
009000
009000
009000
609180
289740
0A9D00
02F400
009000
ENDCHAR
STARTCHAR arrowboth
ENCODING 8596
SWIDTH 600 0
DWIDTH 10 0
BBX 10 7 0 1
BITMAP
080500
280740
6001C0
FFFFE0
6001C0
280740
080500
ENDCHAR
STARTCHAR arrowupdn
ENCODING 8597
SWIDTH 600 0
DWIDTH 10 0
BBX 7 10 1 -1
BITMAP
0240
0FE0
7668
5244
0240
0240
5244
7668
0FE0
0240
ENDCHAR
STARTCHAR uni2196
ENCODING 8598
SWIDTH 600 0
DWIDTH 10 0
BBX 7 8 1 0
BITMAP
1000
7EF8
7C00
6B00
62C0
60B0
602C
0004
ENDCHAR
STARTCHAR uni2197
ENCODING 8599
SWIDTH 600 0
DWIDTH 10 0
BBX 7 6 1 1
BITMAP
3EBC
007C
01CC
070C
1C0C
7008
ENDCHAR
STARTCHAR uni2198
ENCODING 8600
SWIDTH 600 0
DWIDTH 10 0
BBX 7 7 1 1
BITMAP
1000
740C
1D0C
074C
01DC
007C
3FFC
ENDCHAR
STARTCHAR uni2199
ENCODING 8601
SWIDTH 600 0
DWIDTH 10 0
BBX 7 7 1 1
BITMAP
0004
601C
6070
61C0
6700
7C00
7FF8
ENDCHAR
STARTCHAR arrowupdnbse
ENCODING 8616
SWIDTH 600 0
DWIDTH 10 0
BBX 8 11 1 -2
BITMAP
0240
0BE0
7668
5244
0240
0240
5244
7668
0BE0
0240
FFFE
ENDCHAR
STARTCHAR uni21D0
ENCODING 8656
SWIDTH 600 0
DWIDTH 10 0
BBX 9 8 0 0
BITMAP
01C000
074000
1FFFC0
700000
700000
1FFFC0
074000
01C000
ENDCHAR
STARTCHAR uni21D1
ENCODING 8657
SWIDTH 600 0
DWIDTH 10 0
BBX 9 9 0 0
BITMAP
009000
02B400
0B1D00
2A1F40
621980
021800
021800
021800
021800
ENDCHAR
STARTCHAR uni21D2
ENCODING 8658
SWIDTH 600 0
DWIDTH 10 0
BBX 9 8 0 0
BITMAP
006000
001800
BFFE00
000180
000180
BFFE00
001800
006000
ENDCHAR
STARTCHAR uni21D3
ENCODING 8659
SWIDTH 600 0
DWIDTH 10 0
BBX 9 9 0 0
BITMAP
021800
021800
021800
021800
621980
2A1F40
0B1D00
02B400
009000
ENDCHAR
STARTCHAR uni2200
ENCODING 8704
SWIDTH 600 0
DWIDTH 10 0
BBX 9 10 0 0
BITMAP
7001C0
340280
280340
1FFF00
0D0900
0A0C00
071800
036400
01B000
00E000
ENDCHAR
STARTCHAR partialdiff
ENCODING 8706
SWIDTH 600 0
DWIDTH 10 0
BBX 8 10 1 0
BITMAP
0BE0
1468
001C
000D
1BDD
742D
A01C
A028
7474
2F90
ENDCHAR
STARTCHAR uni2203
ENCODING 8707
SWIDTH 600 0
DWIDTH 10 0
BBX 7 10 1 0
BITMAP
BFF8
0028
0028
0028
3FF8
0028
0028
0028
0028
FFF8
ENDCHAR
STARTCHAR uni2206
ENCODING 8710
SWIDTH 600 0
DWIDTH 10 0
BBX 9 10 0 0
BITMAP
00E000
02B000
036400
071800
0A0D00
0D0A00
1C0700
280340
340280
7FFFC0
ENDCHAR
STARTCHAR product
ENCODING 8719
SWIDTH 600 0
DWIDTH 10 0
BBX 9 12 0 -2
BITMAP
7FFF80
700280
700280
700280
700280
700280
700280
700280
700280
700280
700280
700280
ENDCHAR
STARTCHAR summation
ENCODING 8721
SWIDTH 600 0
DWIDTH 10 0
BBX 8 12 1 -2
BITMAP
BFFD
7400
1C00
0A00
0340
01C0
01C0
0740
0E00
2800
7000
FFFE
ENDCHAR
STARTCHAR minus
ENCODING 8722
SWIDTH 600 0
DWIDTH 10 0
BBX 8 1 1 5
BITMAP
BFFD
ENDCHAR
STARTCHAR uni2215
ENCODING 8725
SWIDTH 600 0
DWIDTH 10 0
BBX 9 9 0 1
BITMAP
000080
000240
000900
000400
000000
010000
090000
240000
600000
ENDCHAR
STARTCHAR uni2219
ENCODING 8729
SWIDTH 600 0
DWIDTH 10 0
BBX 3 3 3 4
BITMAP
78
BC
78
ENDCHAR
STARTCHAR radical
ENCODING 8730
SWIDTH 600 0
DWIDTH 10 0
BBX 8 14 1 -1
BITMAP
0002
0003
0006
0005
0009
000C
1018
B414
1824
0C30
0520
0250
0290
01C0
ENDCHAR
STARTCHAR infinity
ENCODING 8734
SWIDTH 600 0
DWIDTH 10 0
BBX 10 5 0 3
BITMAP
6E1F80
92A090
C1D060
D2B490
7D1F80
ENDCHAR
STARTCHAR orthogonal
ENCODING 8735
SWIDTH 600 0
DWIDTH 10 0
BBX 8 7 1 2
BITMAP
9000
9000
9000
9000
9000
9000
BFFD
ENDCHAR
STARTCHAR intersection
ENCODING 8745
SWIDTH 600 0
DWIDTH 10 0
BBX 7 8 1 1
BITMAP
0BD0
3428
600C
600C
600C
600C
600C
5004
ENDCHAR
STARTCHAR integral
ENCODING 8747
SWIDTH 600 0
DWIDTH 10 0
BBX 4 16 3 -3
BITMAP
0B
28
24
34
34
24
24
28
28
18
1C
1C
1C
1C
28
E0
ENDCHAR
STARTCHAR uni2237
ENCODING 8759
SWIDTH 600 0
DWIDTH 10 0
BBX 8 9 1 1
BITMAP
742C
BC7D
742C
0000
0000
0000
742C
BC7D
742C
ENDCHAR
STARTCHAR approxequal
ENCODING 8776
SWIDTH 600 0
DWIDTH 10 0
BBX 7 6 1 2
BITMAP
2E48
91F4
0000
0000
2E48
91F4
ENDCHAR
STARTCHAR notequal
ENCODING 8800
SWIDTH 600 0
DWIDTH 10 0
BBX 8 8 1 1
BITMAP
0018
0020
BFFD
0180
0200
BFFD
1800
2000
ENDCHAR
STARTCHAR equivalence
ENCODING 8801
SWIDTH 600 0
DWIDTH 10 0
BBX 8 7 1 2
BITMAP
BFFD
0000
0000
BFFD
0000
0000
BFFD
ENDCHAR
STARTCHAR lessequal
ENCODING 8804
SWIDTH 600 0
DWIDTH 10 0
BBX 8 9 1 0
BITMAP
0004
00B8
1B40
B400
1B40
00B8
0004
0000
BFFD
ENDCHAR
STARTCHAR greaterequal
ENCODING 8805
SWIDTH 600 0
DWIDTH 10 0
BBX 8 9 1 0
BITMAP
4000
7900
06E4
002D
06E4
7900
4000
0000
BFFD
ENDCHAR
STARTCHAR house
ENCODING 8962
SWIDTH 600 0
DWIDTH 10 0
BBX 9 10 0 0
BITMAP
01E000
036400
0A0D00
1C0700
340280
700180
700180
700180
700180
7FFF80
ENDCHAR
STARTCHAR revlogicalnot
ENCODING 8976
SWIDTH 600 0
DWIDTH 10 0
BBX 8 4 1 2
BITMAP
BFFD
9000
9000
9000
ENDCHAR
STARTCHAR uni231C
ENCODING 8988
SWIDTH 600 0
DWIDTH 10 0
BBX 5 12 3 -1
BITMAP
7FC0
6000
6000
6000
6000
6000
6000
6000
6000
6000
6000
1000
ENDCHAR
STARTCHAR uni231D
ENCODING 8989
SWIDTH 600 0
DWIDTH 10 0
BBX 5 12 1 -1
BITMAP
7FC0
00C0
00C0
00C0
00C0
00C0
00C0
00C0
00C0
00C0
00C0
0040
ENDCHAR
STARTCHAR uni231E
ENCODING 8990
SWIDTH 600 0
DWIDTH 10 0
BBX 5 12 3 -1
BITMAP
6000
6000
6000
6000
6000
6000
6000
6000
6000
6000
6000
7FC0
ENDCHAR
STARTCHAR uni231F
ENCODING 8991
SWIDTH 600 0
DWIDTH 10 0
BBX 5 12 1 -1
BITMAP
0080
00C0
00C0
00C0
00C0
00C0
00C0
00C0
00C0
00C0
00C0
7FC0
ENDCHAR
STARTCHAR integraltp
ENCODING 8992
SWIDTH 600 0
DWIDTH 10 0
BBX 3 19 4 -6
BITMAP
2C
60
A0
90
90
90
90
90
90
90
90
90
90
90
90
90
90
90
90
ENDCHAR
STARTCHAR integralbt
ENCODING 8993
SWIDTH 600 0
DWIDTH 10 0
BBX 4 19 2 -3
BITMAP
05
09
09
09
09
09
09
09
09
09
09
09
09
09
09
09
09
0C
78
ENDCHAR
STARTCHAR uni2500
ENCODING 9472
SWIDTH 600 0
DWIDTH 10 0
BBX 12 1 -1 4
BITMAP
BFFFFD
ENDCHAR
STARTCHAR uni2501
ENCODING 9473
SWIDTH 600 0
DWIDTH 10 0
BBX 12 3 -1 3
BITMAP
BFFFFD
BFFFFD
BFFFFD
ENDCHAR
STARTCHAR uni2502
ENCODING 9474
SWIDTH 600 0
DWIDTH 10 0
BBX 2 22 4 -6
BITMAP
90
90
90
90
90
90
90
90
90
90
90
90
90
90
90
90
90
90
90
90
90
90
ENDCHAR
STARTCHAR uni2503
ENCODING 9475
SWIDTH 600 0
DWIDTH 10 0
BBX 3 22 3 -6
BITMAP
7C
7C
7C
7C
7C
7C
7C
7C
7C
7C
7C
7C
7C
7C
7C
7C
7C
7C
7C
7C
7C
7C
ENDCHAR
STARTCHAR uni2504
ENCODING 9476
SWIDTH 600 0
DWIDTH 10 0
BBX 9 1 0 4
BITMAP
79F3C0
ENDCHAR
STARTCHAR uni2505
ENCODING 9477
SWIDTH 600 0
DWIDTH 10 0
BBX 9 3 0 3
BITMAP
79F3C0
79F3C0
79F3C0
ENDCHAR
STARTCHAR uni2506
ENCODING 9478
SWIDTH 600 0
DWIDTH 10 0
BBX 2 17 4 -4
BITMAP
90
90
90
90
00
00
90
90
90
90
40
00
50
90
90
90
90
ENDCHAR
STARTCHAR uni2507
ENCODING 9479
SWIDTH 600 0
DWIDTH 10 0
BBX 3 17 3 -4
BITMAP
7C
7C
7C
7C
00
00
7C
7C
7C
7C
00
00
00
7C
7C
7C
7C
ENDCHAR
STARTCHAR uni2508
ENCODING 9480
SWIDTH 600 0
DWIDTH 10 0
BBX 10 1 0 4
BITMAP
B7BED0
ENDCHAR
STARTCHAR uni2509
ENCODING 9481
SWIDTH 600 0
DWIDTH 10 0
BBX 10 3 0 3
BITMAP
B7BED0
B7BED0
B7BED0
ENDCHAR
STARTCHAR uni250A
ENCODING 9482
SWIDTH 600 0
DWIDTH 10 0
BBX 2 18 4 -4
BITMAP
90
90
90
90
00
90
90
90
90
00
90
90
90
90
90
90
90
90
ENDCHAR
STARTCHAR uni250B
ENCODING 9483
SWIDTH 600 0
DWIDTH 10 0
BBX 3 18 3 -4
BITMAP
7C
7C
7C
7C
00
7C
7C
7C
7C
00
7C
7C
7C
7C
7C
7C
7C
7C
ENDCHAR
STARTCHAR uni250C
ENCODING 9484
SWIDTH 600 0
DWIDTH 10 0
BBX 7 12 4 -7
BITMAP
BFF4
9000
9000
9000
9000
9000
9000
9000
9000
9000
9000
5000
ENDCHAR
STARTCHAR uni250D
ENCODING 9485
SWIDTH 600 0
DWIDTH 10 0
BBX 7 13 4 -7
BITMAP
BFF4
BFF4
BFF4
9000
9000
9000
9000
9000
9000
9000
9000
9000
9000
ENDCHAR
STARTCHAR uni250E
ENCODING 9486
SWIDTH 600 0
DWIDTH 10 0
BBX 8 12 3 -7
BITMAP
7FFD
7C00
7C00
7C00
7C00
7C00
7C00
7C00
7C00
7C00
7C00
6800
ENDCHAR
STARTCHAR uni250F
ENCODING 9487
SWIDTH 600 0
DWIDTH 10 0
BBX 8 13 3 -7
BITMAP
7FFD
7FFD
7FFD
7C00
7C00
7C00
7C00
7C00
7C00
7C00
7C00
7C00
7C00
ENDCHAR
STARTCHAR uni2510
ENCODING 9488
SWIDTH 600 0
DWIDTH 10 0
BBX 7 12 -1 -7
BITMAP
BFF4
0024
0024
0024
0024
0024
0024
0024
0024
0024
0024
0014
ENDCHAR
STARTCHAR uni2511
ENCODING 9489
SWIDTH 600 0
DWIDTH 10 0
BBX 7 13 -1 -7
BITMAP
BFF4
BFF4
BFF4
0024
0024
0024
0024
0024
0024
0024
0024
0024
0024
ENDCHAR
STARTCHAR uni2512
ENCODING 9490
SWIDTH 600 0
DWIDTH 10 0
BBX 7 12 -1 -7
BITMAP
BFFC
007C
007C
007C
007C
007C
007C
007C
007C
007C
007C
0068
ENDCHAR
STARTCHAR uni2513
ENCODING 9491
SWIDTH 600 0
DWIDTH 10 0
BBX 7 13 -1 -7
BITMAP
BFFC
BFFC
BFFC
007C
007C
007C
007C
007C
007C
007C
007C
007C
007C
ENDCHAR
STARTCHAR uni2514
ENCODING 9492
SWIDTH 600 0
DWIDTH 10 0
BBX 7 12 4 4
BITMAP
5000
9000
9000
9000
9000
9000
9000
9000
9000
9000
9000
BFF4
ENDCHAR
STARTCHAR uni2515
ENCODING 9493
SWIDTH 600 0
DWIDTH 10 0
BBX 7 13 4 3
BITMAP
9000
9000
9000
9000
9000
9000
9000
9000
9000
9000
BFF4
BFF4
BFF4
ENDCHAR
STARTCHAR uni2516
ENCODING 9494
SWIDTH 600 0
DWIDTH 10 0
BBX 8 12 3 4
BITMAP
6800
7C00
7C00
7C00
7C00
7C00
7C00
7C00
7C00
7C00
7C00
7FFD
ENDCHAR
STARTCHAR uni2517
ENCODING 9495
SWIDTH 600 0
DWIDTH 10 0
BBX 8 13 3 3
BITMAP
7C00
7C00
7C00
7C00
7C00
7C00
7C00
7C00
7C00
7C00
7FFD
7FFD
7FFD
ENDCHAR
STARTCHAR uni2518
ENCODING 9496
SWIDTH 600 0
DWIDTH 10 0
BBX 7 12 -1 4
BITMAP
0014
0024
0024
0024
0024
0024
0024
0024
0024
0024
0024
BFF4
ENDCHAR
STARTCHAR uni2519
ENCODING 9497
SWIDTH 600 0
DWIDTH 10 0
BBX 7 13 -1 3
BITMAP
0024
0024
0024
0024
0024
0024
0024
0024
0024
0024
BFF4
BFF4
BFF4
ENDCHAR
STARTCHAR uni251A
ENCODING 9498
SWIDTH 600 0
DWIDTH 10 0
BBX 7 12 -1 4
BITMAP
0068
007C
007C
007C
007C
007C
007C
007C
007C
007C
007C
BFFC
ENDCHAR
STARTCHAR uni251B
ENCODING 9499
SWIDTH 600 0
DWIDTH 10 0
BBX 7 13 -1 3
BITMAP
007C
007C
007C
007C
007C
007C
007C
007C
007C
007C
BFFC
BFFC
BFFC
ENDCHAR
STARTCHAR uni251C
ENCODING 9500
SWIDTH 600 0
DWIDTH 10 0
BBX 7 23 4 -7
BITMAP
5000
9000
9000
9000
9000
9000
9000
9000
9000
9000
9000
BFF4
9000
9000
9000
9000
9000
9000
9000
9000
9000
9000
5000
ENDCHAR
STARTCHAR uni251D
ENCODING 9501
SWIDTH 600 0
DWIDTH 10 0
BBX 7 23 4 -7
BITMAP
9000
9000
9000
9000
9000
9000
9000
9000
9000
9000
BFF4
BFF4
BFF4
9000
9000
9000
9000
9000
9000
9000
9000
9000
9000
ENDCHAR
STARTCHAR uni251E
ENCODING 9502
SWIDTH 600 0
DWIDTH 10 0
BBX 8 23 3 -7
BITMAP
6800
7C00
7C00
7C00
7C00
7C00
7C00
7C00
7C00
7C00
7C00
7FFD
2400
2400
2400
2400
2400
2400
2400
2400
2400
2400
1400
ENDCHAR
STARTCHAR uni251F
ENCODING 9503
SWIDTH 600 0
DWIDTH 10 0
BBX 8 23 3 -7
BITMAP
1400
2400
2400
2400
2400
2400
2400
2400
2400
2400
2400
7FFD
7C00
7C00
7C00
7C00
7C00
7C00
7C00
7C00
7C00
7C00
6800
ENDCHAR
STARTCHAR uni2520
ENCODING 9504
SWIDTH 600 0
DWIDTH 10 0
BBX 8 23 3 -7
BITMAP
6800
7C00
7C00
7C00
7C00
7C00
7C00
7C00
7C00
7C00
7C00
7FFD
7C00
7C00
7C00
7C00
7C00
7C00
7C00
7C00
7C00
7C00
6800
ENDCHAR
STARTCHAR uni2521
ENCODING 9505
SWIDTH 600 0
DWIDTH 10 0
BBX 8 23 3 -7
BITMAP
7C00
7C00
7C00
7C00
7C00
7C00
7C00
7C00
7C00
7C00
7FFD
7FFD
7FFD
2400
2400
2400
2400
2400
2400
2400
2400
2400
2400
ENDCHAR
STARTCHAR uni2522
ENCODING 9506
SWIDTH 600 0
DWIDTH 10 0
BBX 8 23 3 -7
BITMAP
2400
2400
2400
2400
2400
2400
2400
2400
2400
2400
7FFD
7FFD
7FFD
7C00
7C00
7C00
7C00
7C00
7C00
7C00
7C00
7C00
7C00
ENDCHAR
STARTCHAR uni2523
ENCODING 9507
SWIDTH 600 0
DWIDTH 10 0
BBX 8 23 3 -7
BITMAP
7C00
7C00
7C00
7C00
7C00
7C00
7C00
7C00
7C00
7C00
7FFD
7FFD
7FFD
7C00
7C00
7C00
7C00
7C00
7C00
7C00
7C00
7C00
7C00
ENDCHAR
STARTCHAR uni2524
ENCODING 9508
SWIDTH 600 0
DWIDTH 10 0
BBX 7 23 -1 -7
BITMAP
0014
0024
0024
0024
0024
0024
0024
0024
0024
0024
0024
BFF4
0024
0024
0024
0024
0024
0024
0024
0024
0024
0024
0014
ENDCHAR
STARTCHAR uni2525
ENCODING 9509
SWIDTH 600 0
DWIDTH 10 0
BBX 7 23 -1 -7
BITMAP
0024
0024
0024
0024
0024
0024
0024
0024
0024
0024
BFF4
BFF4
BFF4
0024
0024
0024
0024
0024
0024
0024
0024
0024
0024
ENDCHAR
STARTCHAR uni2526
ENCODING 9510
SWIDTH 600 0
DWIDTH 10 0
BBX 7 23 -1 -7
BITMAP
0068
007C
007C
007C
007C
007C
007C
007C
007C
007C
007C
BFFC
0024
0024
0024
0024
0024
0024
0024
0024
0024
0024
0014
ENDCHAR
STARTCHAR uni2527
ENCODING 9511
SWIDTH 600 0
DWIDTH 10 0
BBX 7 23 -1 -7
BITMAP
0014
0024
0024
0024
0024
0024
0024
0024
0024
0024
0024
BFFC
007C
007C
007C
007C
007C
007C
007C
007C
007C
007C
0068
ENDCHAR
STARTCHAR uni2528
ENCODING 9512
SWIDTH 600 0
DWIDTH 10 0
BBX 7 23 -1 -7
BITMAP
0068
007C
007C
007C
007C
007C
007C
007C
007C
007C
007C
BFFC
007C
007C
007C
007C
007C
007C
007C
007C
007C
007C
0068
ENDCHAR
STARTCHAR uni2529
ENCODING 9513
SWIDTH 600 0
DWIDTH 10 0
BBX 7 23 -1 -7
BITMAP
007C
007C
007C
007C
007C
007C
007C
007C
007C
007C
BFFC
BFFC
BFFC
0024
0024
0024
0024
0024
0024
0024
0024
0024
0024
ENDCHAR
STARTCHAR uni252A
ENCODING 9514
SWIDTH 600 0
DWIDTH 10 0
BBX 7 23 -1 -7
BITMAP
0024
0024
0024
0024
0024
0024
0024
0024
0024
0024
BFFC
BFFC
BFFC
007C
007C
007C
007C
007C
007C
007C
007C
007C
007C
ENDCHAR
STARTCHAR uni252B
ENCODING 9515
SWIDTH 600 0
DWIDTH 10 0
BBX 7 23 -1 -7
BITMAP
007C
007C
007C
007C
007C
007C
007C
007C
007C
007C
BFFC
BFFC
BFFC
007C
007C
007C
007C
007C
007C
007C
007C
007C
007C
ENDCHAR
STARTCHAR uni252C
ENCODING 9516
SWIDTH 600 0
DWIDTH 10 0
BBX 12 12 -1 -7
BITMAP
BFFFFD
002400
002400
002400
002400
002400
002400
002400
002400
002400
002400
001400
ENDCHAR
STARTCHAR uni252D
ENCODING 9517
SWIDTH 600 0
DWIDTH 10 0
BBX 12 13 -1 -7
BITMAP
BFF400
BFFFFD
BFF400
002400
002400
002400
002400
002400
002400
002400
002400
002400
002400
ENDCHAR
STARTCHAR uni252E
ENCODING 9518
SWIDTH 600 0
DWIDTH 10 0
BBX 12 13 -1 -7
BITMAP
002FFD
BFFFFD
002FFD
002400
002400
002400
002400
002400
002400
002400
002400
002400
002400
ENDCHAR
STARTCHAR uni252F
ENCODING 9519
SWIDTH 600 0
DWIDTH 10 0
BBX 12 13 -1 -7
BITMAP
BFFFFD
BFFFFD
BFFFFD
002400
002400
002400
002400
002400
002400
002400
002400
002400
002400
ENDCHAR
STARTCHAR uni2530
ENCODING 9520
SWIDTH 600 0
DWIDTH 10 0
BBX 12 12 -1 -7
BITMAP
BFFFFD
007C00
007C00
007C00
007C00
007C00
007C00
007C00
007C00
007C00
007C00
006800
ENDCHAR
STARTCHAR uni2531
ENCODING 9521
SWIDTH 600 0
DWIDTH 10 0
BBX 12 13 -1 -7
BITMAP
BFFC00
BFFFFD
BFFC00
007C00
007C00
007C00
007C00
007C00
007C00
007C00
007C00
007C00
007C00
ENDCHAR
STARTCHAR uni2532
ENCODING 9522
SWIDTH 600 0
DWIDTH 10 0
BBX 12 13 -1 -7
BITMAP
007FFD
BFFFFD
007FFD
007C00
007C00
007C00
007C00
007C00
007C00
007C00
007C00
007C00
007C00
ENDCHAR
STARTCHAR uni2533
ENCODING 9523
SWIDTH 600 0
DWIDTH 10 0
BBX 12 13 -1 -7
BITMAP
BFFFFD
BFFFFD
BFFFFD
007C00
007C00
007C00
007C00
007C00
007C00
007C00
007C00
007C00
007C00
ENDCHAR
STARTCHAR uni2534
ENCODING 9524
SWIDTH 600 0
DWIDTH 10 0
BBX 12 12 -1 4
BITMAP
001400
002400
002400
002400
002400
002400
002400
002400
002400
002400
002400
BFFFFD
ENDCHAR
STARTCHAR uni2535
ENCODING 9525
SWIDTH 600 0
DWIDTH 10 0
BBX 12 13 -1 3
BITMAP
002400
002400
002400
002400
002400
002400
002400
002400
002400
002400
BFF400
BFFFFD
BFF400
ENDCHAR
STARTCHAR uni2536
ENCODING 9526
SWIDTH 600 0
DWIDTH 10 0
BBX 12 13 -1 3
BITMAP
002400
002400
002400
002400
002400
002400
002400
002400
002400
002400
002FFD
BFFFFD
002FFD
ENDCHAR
STARTCHAR uni2537
ENCODING 9527
SWIDTH 600 0
DWIDTH 10 0
BBX 12 13 -1 3
BITMAP
002400
002400
002400
002400
002400
002400
002400
002400
002400
002400
BFFFFD
BFFFFD
BFFFFD
ENDCHAR
STARTCHAR uni2538
ENCODING 9528
SWIDTH 600 0
DWIDTH 10 0
BBX 12 12 -1 4
BITMAP
006800
007C00
007C00
007C00
007C00
007C00
007C00
007C00
007C00
007C00
007C00
BFFFFD
ENDCHAR
STARTCHAR uni2539
ENCODING 9529
SWIDTH 600 0
DWIDTH 10 0
BBX 12 13 -1 3
BITMAP
007C00
007C00
007C00
007C00
007C00
007C00
007C00
007C00
007C00
007C00
BFFC00
BFFFFD
BFFC00
ENDCHAR
STARTCHAR uni253A
ENCODING 9530
SWIDTH 600 0
DWIDTH 10 0
BBX 12 13 -1 3
BITMAP
007C00
007C00
007C00
007C00
007C00
007C00
007C00
007C00
007C00
007C00
007FFD
BFFFFD
007FFD
ENDCHAR
STARTCHAR uni253B
ENCODING 9531
SWIDTH 600 0
DWIDTH 10 0
BBX 12 13 -1 3
BITMAP
007C00
007C00
007C00
007C00
007C00
007C00
007C00
007C00
007C00
007C00
BFFFFD
BFFFFD
BFFFFD
ENDCHAR
STARTCHAR uni253C
ENCODING 9532
SWIDTH 600 0
DWIDTH 10 0
BBX 12 23 -1 -7
BITMAP
001400
002400
002400
002400
002400
002400
002400
002400
002400
002400
002400
BFFFFD
002400
002400
002400
002400
002400
002400
002400
002400
002400
002400
001400
ENDCHAR
STARTCHAR uni253D
ENCODING 9533
SWIDTH 600 0
DWIDTH 10 0
BBX 12 23 -1 -7
BITMAP
002400
002400
002400
002400
002400
002400
002400
002400
002400
002400
BFF400
BFFFFD
BFF400
002400
002400
002400
002400
002400
002400
002400
002400
002400
002400
ENDCHAR
STARTCHAR uni253E
ENCODING 9534
SWIDTH 600 0
DWIDTH 10 0
BBX 12 23 -1 -7
BITMAP
002400
002400
002400
002400
002400
002400
002400
002400
002400
002400
002FFD
BFFFFD
002FFD
002400
002400
002400
002400
002400
002400
002400
002400
002400
002400
ENDCHAR
STARTCHAR uni253F
ENCODING 9535
SWIDTH 600 0
DWIDTH 10 0
BBX 12 23 -1 -7
BITMAP
002400
002400
002400
002400
002400
002400
002400
002400
002400
002400
BFFFFD
BFFFFD
BFFFFD
002400
002400
002400
002400
002400
002400
002400
002400
002400
002400
ENDCHAR
STARTCHAR uni2540
ENCODING 9536
SWIDTH 600 0
DWIDTH 10 0
BBX 12 23 -1 -7
BITMAP
006800
007C00
007C00
007C00
007C00
007C00
007C00
007C00
007C00
007C00
007C00
BFFFFD
002400
002400
002400
002400
002400
002400
002400
002400
002400
002400
001400
ENDCHAR
STARTCHAR uni2541
ENCODING 9537
SWIDTH 600 0
DWIDTH 10 0
BBX 12 23 -1 -7
BITMAP
001400
002400
002400
002400
002400
002400
002400
002400
002400
002400
002400
BFFFFD
007C00
007C00
007C00
007C00
007C00
007C00
007C00
007C00
007C00
007C00
006800
ENDCHAR
STARTCHAR uni2542
ENCODING 9538
SWIDTH 600 0
DWIDTH 10 0
BBX 12 23 -1 -7
BITMAP
006800
007C00
007C00
007C00
007C00
007C00
007C00
007C00
007C00
007C00
007C00
BFFFFD
007C00
007C00
007C00
007C00
007C00
007C00
007C00
007C00
007C00
007C00
006800
ENDCHAR
STARTCHAR uni2543
ENCODING 9539
SWIDTH 600 0
DWIDTH 10 0
BBX 12 23 -1 -7
BITMAP
007C00
007C00
007C00
007C00
007C00
007C00
007C00
007C00
007C00
007C00
BFFC00
BFFFFD
BFFC00
002400
002400
002400
002400
002400
002400
002400
002400
002400
002400
ENDCHAR
STARTCHAR uni2544
ENCODING 9540
SWIDTH 600 0
DWIDTH 10 0
BBX 12 23 -1 -7
BITMAP
007C00
007C00
007C00
007C00
007C00
007C00
007C00
007C00
007C00
007C00
007FFD
BFFFFD
007FFD
002400
002400
002400
002400
002400
002400
002400
002400
002400
002400
ENDCHAR
STARTCHAR uni2545
ENCODING 9541
SWIDTH 600 0
DWIDTH 10 0
BBX 12 23 -1 -7
BITMAP
002400
002400
002400
002400
002400
002400
002400
002400
002400
002400
BFFC00
BFFFFD
BFFC00
007C00
007C00
007C00
007C00
007C00
007C00
007C00
007C00
007C00
007C00
ENDCHAR
STARTCHAR uni2546
ENCODING 9542
SWIDTH 600 0
DWIDTH 10 0
BBX 12 23 -1 -7
BITMAP
002400
002400
002400
002400
002400
002400
002400
002400
002400
002400
007FFD
BFFFFD
007FFD
007C00
007C00
007C00
007C00
007C00
007C00
007C00
007C00
007C00
007C00
ENDCHAR
STARTCHAR uni2547
ENCODING 9543
SWIDTH 600 0
DWIDTH 10 0
BBX 12 23 -1 -7
BITMAP
007C00
007C00
007C00
007C00
007C00
007C00
007C00
007C00
007C00
007C00
BFFFFD
BFFFFD
BFFFFD
002400
002400
002400
002400
002400
002400
002400
002400
002400
002400
ENDCHAR
STARTCHAR uni2548
ENCODING 9544
SWIDTH 600 0
DWIDTH 10 0
BBX 12 23 -1 -7
BITMAP
002400
002400
002400
002400
002400
002400
002400
002400
002400
002400
BFFFFD
BFFFFD
BFFFFD
007C00
007C00
007C00
007C00
007C00
007C00
007C00
007C00
007C00
007C00
ENDCHAR
STARTCHAR uni2549
ENCODING 9545
SWIDTH 600 0
DWIDTH 10 0
BBX 12 23 -1 -7
BITMAP
007C00
007C00
007C00
007C00
007C00
007C00
007C00
007C00
007C00
007C00
BFFC00
BFFFFD
BFFC00
007C00
007C00
007C00
007C00
007C00
007C00
007C00
007C00
007C00
007C00
ENDCHAR
STARTCHAR uni254A
ENCODING 9546
SWIDTH 600 0
DWIDTH 10 0
BBX 12 23 -1 -7
BITMAP
007C00
007C00
007C00
007C00
007C00
007C00
007C00
007C00
007C00
007C00
007FFD
BFFFFD
007FFD
007C00
007C00
007C00
007C00
007C00
007C00
007C00
007C00
007C00
007C00
ENDCHAR
STARTCHAR uni254B
ENCODING 9547
SWIDTH 600 0
DWIDTH 10 0
BBX 12 23 -1 -7
BITMAP
007C00
007C00
007C00
007C00
007C00
007C00
007C00
007C00
007C00
007C00
BFFFFD
BFFFFD
BFFFFD
007C00
007C00
007C00
007C00
007C00
007C00
007C00
007C00
007C00
007C00
ENDCHAR
STARTCHAR uni254C
ENCODING 9548
SWIDTH 600 0
DWIDTH 10 0
BBX 8 1 1 4
BITMAP
B83D
ENDCHAR
STARTCHAR uni254D
ENCODING 9549
SWIDTH 600 0
DWIDTH 10 0
BBX 8 3 1 3
BITMAP
B83D
B83D
B83D
ENDCHAR
STARTCHAR uni254E
ENCODING 9550
SWIDTH 600 0
DWIDTH 10 0
BBX 2 14 4 -2
BITMAP
90
90
90
90
90
00
00
00
00
90
90
90
90
90
ENDCHAR
STARTCHAR uni254F
ENCODING 9551
SWIDTH 600 0
DWIDTH 10 0
BBX 3 15 3 -3
BITMAP
7C
7C
7C
7C
7C
00
00
00
00
54
7C
7C
7C
7C
54
ENDCHAR
STARTCHAR uni2550
ENCODING 9552
SWIDTH 600 0
DWIDTH 10 0
BBX 12 4 -1 3
BITMAP
BFFFFD
000000
000000
BFFFFD
ENDCHAR
STARTCHAR uni2551
ENCODING 9553
SWIDTH 600 0
DWIDTH 10 0
BBX 4 22 3 -6
BITMAP
DA
DA
DA
DA
DA
DA
DA
DA
DA
DA
DA
DA
DA
DA
DA
DA
DA
DA
DA
DA
DA
DA
ENDCHAR
STARTCHAR uni2552
ENCODING 9554
SWIDTH 600 0
DWIDTH 10 0
BBX 7 14 4 -7
BITMAP
BFF4
9000
9000
BFF4
9000
9000
9000
9000
9000
9000
9000
9000
9000
4000
ENDCHAR
STARTCHAR uni2553
ENCODING 9555
SWIDTH 600 0
DWIDTH 10 0
BBX 8 12 3 -7
BITMAP
FFFD
DA00
DA00
DA00
DA00
DA00
DA00
DA00
DA00
DA00
DA00
8500
ENDCHAR
STARTCHAR uni2554
ENCODING 9556
SWIDTH 600 0
DWIDTH 10 0
BBX 8 14 3 -7
BITMAP
FFFD
D000
D000
DBFD
DA00
DA00
DA00
DA00
DA00
DA00
DA00
DA00
8A00
0500
ENDCHAR
STARTCHAR uni2555
ENCODING 9557
SWIDTH 600 0
DWIDTH 10 0
BBX 7 14 -1 -7
BITMAP
BFF4
0024
0024
BFF4
0024
0024
0024
0024
0024
0024
0024
0024
0024
0010
ENDCHAR
STARTCHAR uni2556
ENCODING 9558
SWIDTH 600 0
DWIDTH 10 0
BBX 8 12 -1 -7
BITMAP
BFFE
00DA
00DA
00DA
00DA
00DA
00DA
00DA
00DA
00DA
00DA
0085
ENDCHAR
STARTCHAR uni2557
ENCODING 9559
SWIDTH 600 0
DWIDTH 10 0
BBX 8 14 -1 -7
BITMAP
BFFE
000A
000A
BFDA
00DA
00DA
00DA
00DA
00DA
00DA
00DA
00DA
00D6
0040
ENDCHAR
STARTCHAR uni2558
ENCODING 9560
SWIDTH 600 0
DWIDTH 10 0
BBX 7 14 4 3
BITMAP
4000
9000
9000
9000
9000
9000
9000
9000
9000
9000
BFF4
9000
9000
BFF4
ENDCHAR
STARTCHAR uni2559
ENCODING 9561
SWIDTH 600 0
DWIDTH 10 0
BBX 8 12 3 4
BITMAP
8500
DA00
DA00
DA00
DA00
DA00
DA00
DA00
DA00
DA00
DA00
FFFD
ENDCHAR
STARTCHAR uni255A
ENCODING 9562
SWIDTH 600 0
DWIDTH 10 0
BBX 8 14 3 3
BITMAP
0500
8A00
DA00
DA00
DA00
DA00
DA00
DA00
DA00
DA00
DBFD
D000
D000
FFFD
ENDCHAR
STARTCHAR uni255B
ENCODING 9563
SWIDTH 600 0
DWIDTH 10 0
BBX 7 14 -1 3
BITMAP
0010
0024
0024
0024
0024
0024
0024
0024
0024
0024
BFF4
0024
0024
BFF4
ENDCHAR
STARTCHAR uni255C
ENCODING 9564
SWIDTH 600 0
DWIDTH 10 0
BBX 8 12 -1 4
BITMAP
0085
00DA
00DA
00DA
00DA
00DA
00DA
00DA
00DA
00DA
00DA
BFFE
ENDCHAR
STARTCHAR uni255D
ENCODING 9565
SWIDTH 600 0
DWIDTH 10 0
BBX 8 14 -1 3
BITMAP
0040
00D6
00DA
00DA
00DA
00DA
00DA
00DA
00DA
00DA
BFDA
000A
000A
BFFE
ENDCHAR
STARTCHAR uni255E
ENCODING 9566
SWIDTH 600 0
DWIDTH 10 0
BBX 7 24 4 -7
BITMAP
4000
9000
9000
9000
9000
9000
9000
9000
9000
9000
BFF4
9000
9000
BFF4
9000
9000
9000
9000
9000
9000
9000
9000
9000
4000
ENDCHAR
STARTCHAR uni255F
ENCODING 9567
SWIDTH 600 0
DWIDTH 10 0
BBX 8 23 3 -7
BITMAP
D500
DA00
DA00
DA00
DA00
DA00
DA00
DA00
DA00
DA00
DA00
DBFD
DA00
DA00
DA00
DA00
DA00
DA00
DA00
DA00
DA00
DA00
4500
ENDCHAR
STARTCHAR uni2560
ENCODING 9568
SWIDTH 600 0
DWIDTH 10 0
BBX 8 24 3 -7
BITMAP
0500
DA00
DA00
DA00
DA00
DA00
DA00
DA00
DA00
DA00
DBFD
D000
D000
DBFD
DA00
DA00
DA00
DA00
DA00
DA00
DA00
DA00
DA00
4500
ENDCHAR
STARTCHAR uni2561
ENCODING 9569
SWIDTH 600 0
DWIDTH 10 0
BBX 7 24 -1 -7
BITMAP
0010
0024
0024
0024
0024
0024
0024
0024
0024
0024
BFF4
0024
0024
BFF4
0024
0024
0024
0024
0024
0024
0024
0024
0024
0010
ENDCHAR
STARTCHAR uni2562
ENCODING 9570
SWIDTH 600 0
DWIDTH 10 0
BBX 8 23 -1 -7
BITMAP
008A
00DA
00DA
00DA
00DA
00DA
00DA
00DA
00DA
00DA
00DA
BFDA
00DA
00DA
00DA
00DA
00DA
00DA
00DA
00DA
00DA
00DA
0085
ENDCHAR
STARTCHAR uni2563
ENCODING 9571
SWIDTH 600 0
DWIDTH 10 0
BBX 8 24 -1 -7
BITMAP
0040
00DA
00DA
00DA
00DA
00DA
00DA
00DA
00DA
00DA
BFDA
000A
000A
BFDA
00DA
00DA
00DA
00DA
00DA
00DA
00DA
00DA
00DA
0045
ENDCHAR
STARTCHAR uni2564
ENCODING 9572
SWIDTH 600 0
DWIDTH 10 0
BBX 12 14 -1 -7
BITMAP
BFFFFD
000000
000000
BFFFFD
002400
002400
002400
002400
002400
002400
002400
002400
002400
001000
ENDCHAR
STARTCHAR uni2565
ENCODING 9573
SWIDTH 600 0
DWIDTH 10 0
BBX 12 12 -1 -7
BITMAP
BFFFFD
00DA00
00DA00
00DA00
00DA00
00DA00
00DA00
00DA00
00DA00
00DA00
00DA00
008500
ENDCHAR
STARTCHAR uni2566
ENCODING 9574
SWIDTH 600 0
DWIDTH 10 0
BBX 12 14 -1 -7
BITMAP
BFFFFD
000000
000000
BFDBFD
00DA00
00DA00
00DA00
00DA00
00DA00
00DA00
00DA00
00DA00
00DA00
004500
ENDCHAR
STARTCHAR uni2567
ENCODING 9575
SWIDTH 600 0
DWIDTH 10 0
BBX 12 14 -1 3
BITMAP
001000
002400
002400
002400
002400
002400
002400
002400
002400
002400
BFFFFD
000000
000000
BFFFFD
ENDCHAR
STARTCHAR uni2568
ENCODING 9576
SWIDTH 600 0
DWIDTH 10 0
BBX 12 12 -1 4
BITMAP
008500
00DA00
00DA00
00DA00
00DA00
00DA00
00DA00
00DA00
00DA00
00DA00
00DA00
BFFFFD
ENDCHAR
STARTCHAR uni2569
ENCODING 9577
SWIDTH 600 0
DWIDTH 10 0
BBX 12 14 -1 3
BITMAP
004500
00DA00
00DA00
00DA00
00DA00
00DA00
00DA00
00DA00
00DA00
00DA00
BFDBFD
000000
000000
BFFFFD
ENDCHAR
STARTCHAR uni256A
ENCODING 9578
SWIDTH 600 0
DWIDTH 10 0
BBX 12 24 -1 -7
BITMAP
001000
002400
002400
002400
002400
002400
002400
002400
002400
002400
BFFFFD
002400
002400
BFFFFD
002400
002400
002400
002400
002400
002400
002400
002400
002400
001000
ENDCHAR
STARTCHAR uni256B
ENCODING 9579
SWIDTH 600 0
DWIDTH 10 0
BBX 12 23 -1 -7
BITMAP
008500
00DA00
00DA00
00DA00
00DA00
00DA00
00DA00
00DA00
00DA00
00DA00
00DA00
BFFFFD
00DA00
00DA00
00DA00
00DA00
00DA00
00DA00
00DA00
00DA00
00DA00
00DA00
008500
ENDCHAR
STARTCHAR uni256C
ENCODING 9580
SWIDTH 600 0
DWIDTH 10 0
BBX 12 24 -1 -7
BITMAP
004500
00DA00
00DA00
00DA00
00DA00
00DA00
00DA00
00DA00
00DA00
00DA00
BFDBFD
000000
000000
BFDBFD
00DA00
00DA00
00DA00
00DA00
00DA00
00DA00
00DA00
00DA00
00DA00
004500
ENDCHAR
STARTCHAR uni256D
ENCODING 9581
SWIDTH 600 0
DWIDTH 10 0
BBX 7 12 4 -7
BITMAP
06F4
1E40
3400
A000
9000
9000
9000
9000
9000
9000
9000
5000
ENDCHAR
STARTCHAR uni256E
ENCODING 9582
SWIDTH 600 0
DWIDTH 10 0
BBX 7 12 -1 -7
BITMAP
B900
07C0
00A0
0070
0034
0024
0024
0024
0024
0024
0024
0014
ENDCHAR
STARTCHAR uni256F
ENCODING 9583
SWIDTH 600 0
DWIDTH 10 0
BBX 7 12 -1 4
BITMAP
0014
0024
0024
0024
0024
0024
0024
0034
0070
00A0
07C0
B900
ENDCHAR
STARTCHAR uni2570
ENCODING 9584
SWIDTH 600 0
DWIDTH 10 0
BBX 7 12 4 4
BITMAP
5000
9000
9000
9000
9000
9000
9000
9000
A000
3400
1E00
06F4
ENDCHAR
STARTCHAR uni2571
ENCODING 9585
SWIDTH 600 0
DWIDTH 10 0
BBX 10 19 0 -5
BITMAP
000060
0000D0
0001C0
000380
000700
000E00
001C00
003400
007000
00D000
01C000
034000
070000
0D0000
1C0000
340000
700000
D00000
C00000
ENDCHAR
STARTCHAR uni2572
ENCODING 9586
SWIDTH 600 0
DWIDTH 10 0
BBX 10 19 0 -5
BITMAP
C00000
D00000
700000
340000
1C0000
0D0000
070000
034000
01C000
00D000
007000
003400
001C00
000E00
000700
000380
0001C0
0000D0
000060
ENDCHAR
STARTCHAR uni2573
ENCODING 9587
SWIDTH 600 0
DWIDTH 10 0
BBX 10 19 0 -5
BITMAP
C00060
D000D0
7001C0
340380
1C0700
0D0E00
071C00
037400
01F000
00E000
01F000
037400
071C00
0D0E00
1C0700
340380
7001C0
D000D0
C00060
ENDCHAR
STARTCHAR uni2574
ENCODING 9588
SWIDTH 600 0
DWIDTH 10 0
BBX 7 1 -1 4
BITMAP
BFF4
ENDCHAR
STARTCHAR uni2575
ENCODING 9589
SWIDTH 600 0
DWIDTH 10 0
BBX 2 12 4 4
BITMAP
90
90
90
90
90
90
90
90
90
90
90
90
ENDCHAR
STARTCHAR uni2576
ENCODING 9590
SWIDTH 600 0
DWIDTH 10 0
BBX 7 1 4 4
BITMAP
BFF4
ENDCHAR
STARTCHAR uni2577
ENCODING 9591
SWIDTH 600 0
DWIDTH 10 0
BBX 2 12 4 -6
BITMAP
90
90
90
90
90
90
90
90
90
90
90
90
ENDCHAR
STARTCHAR uni2578
ENCODING 9592
SWIDTH 600 0
DWIDTH 10 0
BBX 7 3 -1 3
BITMAP
BFF4
BFF4
BFF4
ENDCHAR
STARTCHAR uni2579
ENCODING 9593
SWIDTH 600 0
DWIDTH 10 0
BBX 3 12 3 4
BITMAP
7C
7C
7C
7C
7C
7C
7C
7C
7C
7C
7C
7C
ENDCHAR
STARTCHAR uni257A
ENCODING 9594
SWIDTH 600 0
DWIDTH 10 0
BBX 7 3 4 3
BITMAP
BFF4
BFF4
BFF4
ENDCHAR
STARTCHAR uni257B
ENCODING 9595
SWIDTH 600 0
DWIDTH 10 0
BBX 3 12 3 -6
BITMAP
7C
7C
7C
7C
7C
7C
7C
7C
7C
7C
7C
7C
ENDCHAR
STARTCHAR uni257C
ENCODING 9596
SWIDTH 600 0
DWIDTH 10 0
BBX 12 3 -1 3
BITMAP
002AA8
BFFFFD
002AA8
ENDCHAR
STARTCHAR uni257D
ENCODING 9597
SWIDTH 600 0
DWIDTH 10 0
BBX 3 22 3 -6
BITMAP
24
24
24
24
24
24
24
24
24
24
78
7C
7C
7C
7C
7C
7C
7C
7C
7C
7C
7C
ENDCHAR
STARTCHAR uni257E
ENCODING 9598
SWIDTH 600 0
DWIDTH 10 0
BBX 12 3 -1 3
BITMAP
6AA400
BFFFFD
6AA400
ENDCHAR
STARTCHAR uni257F
ENCODING 9599
SWIDTH 600 0
DWIDTH 10 0
BBX 3 22 3 -6
BITMAP
7C
7C
7C
7C
7C
7C
7C
7C
7C
7C
7C
78
24
24
24
24
24
24
24
24
24
24
ENDCHAR
STARTCHAR uni2580
ENCODING 9600
SWIDTH 600 0
DWIDTH 10 0
BBX 10 11 0 5
BITMAP
FFFFE0
FFFFE0
FFFFE0
FFFFE0
FFFFE0
FFFFE0
FFFFE0
FFFFE0
FFFFE0
FFFFE0
FFFFE0
ENDCHAR
STARTCHAR uni2581
ENCODING 9601
SWIDTH 600 0
DWIDTH 10 0
BBX 10 2 0 -6
BITMAP
FFFFE0
FFFFE0
ENDCHAR
STARTCHAR uni2582
ENCODING 9602
SWIDTH 600 0
DWIDTH 10 0
BBX 10 5 0 -6
BITMAP
FFFFE0
FFFFE0
FFFFE0
FFFFE0
FFFFE0
ENDCHAR
STARTCHAR uni2583
ENCODING 9603
SWIDTH 600 0
DWIDTH 10 0
BBX 10 8 0 -6
BITMAP
FFFFE0
FFFFE0
FFFFE0
FFFFE0
FFFFE0
FFFFE0
FFFFE0
FFFFE0
ENDCHAR
STARTCHAR uni2584
ENCODING 9604
SWIDTH 600 0
DWIDTH 10 0
BBX 10 11 0 -6
BITMAP
FFFFE0
FFFFE0
FFFFE0
FFFFE0
FFFFE0
FFFFE0
FFFFE0
FFFFE0
FFFFE0
FFFFE0
FFFFE0
ENDCHAR
STARTCHAR uni2585
ENCODING 9605
SWIDTH 600 0
DWIDTH 10 0
BBX 10 14 0 -6
BITMAP
FFFFE0
FFFFE0
FFFFE0
FFFFE0
FFFFE0
FFFFE0
FFFFE0
FFFFE0
FFFFE0
FFFFE0
FFFFE0
FFFFE0
FFFFE0
FFFFE0
ENDCHAR
STARTCHAR uni2586
ENCODING 9606
SWIDTH 600 0
DWIDTH 10 0
BBX 10 16 0 -6
BITMAP
FFFFE0
FFFFE0
FFFFE0
FFFFE0
FFFFE0
FFFFE0
FFFFE0
FFFFE0
FFFFE0
FFFFE0
FFFFE0
FFFFE0
FFFFE0
FFFFE0
FFFFE0
FFFFE0
ENDCHAR
STARTCHAR uni2587
ENCODING 9607
SWIDTH 600 0
DWIDTH 10 0
BBX 10 19 0 -6
BITMAP
FFFFE0
FFFFE0
FFFFE0
FFFFE0
FFFFE0
FFFFE0
FFFFE0
FFFFE0
FFFFE0
FFFFE0
FFFFE0
FFFFE0
FFFFE0
FFFFE0
FFFFE0
FFFFE0
FFFFE0
FFFFE0
FFFFE0
ENDCHAR
STARTCHAR uni2588
ENCODING 9608
SWIDTH 600 0
DWIDTH 10 0
BBX 10 22 0 -6
BITMAP
FFFFE0
FFFFE0
FFFFE0
FFFFE0
FFFFE0
FFFFE0
FFFFE0
FFFFE0
FFFFE0
FFFFE0
FFFFE0
FFFFE0
FFFFE0
FFFFE0
FFFFE0
FFFFE0
FFFFE0
FFFFE0
FFFFE0
FFFFE0
FFFFE0
FFFFE0
ENDCHAR
STARTCHAR uni2589
ENCODING 9609
SWIDTH 600 0
DWIDTH 10 0
BBX 9 22 0 -6
BITMAP
FFFF40
FFFF40
FFFF40
FFFF40
FFFF40
FFFF40
FFFF40
FFFF40
FFFF40
FFFF40
FFFF40
FFFF40
FFFF40
FFFF40
FFFF40
FFFF40
FFFF40
FFFF40
FFFF40
FFFF40
FFFF40
FFFF40
ENDCHAR
STARTCHAR uni258A
ENCODING 9610
SWIDTH 600 0
DWIDTH 10 0
BBX 8 22 0 -6
BITMAP
FFFD
FFFD
FFFD
FFFD
FFFD
FFFD
FFFD
FFFD
FFFD
FFFD
FFFD
FFFD
FFFD
FFFD
FFFD
FFFD
FFFD
FFFD
FFFD
FFFD
FFFD
FFFD
ENDCHAR
STARTCHAR uni258B
ENCODING 9611
SWIDTH 600 0
DWIDTH 10 0
BBX 6 22 0 -6
BITMAP
FFF0
FFF0
FFF0
FFF0
FFF0
FFF0
FFF0
FFF0
FFF0
FFF0
FFF0
FFF0
FFF0
FFF0
FFF0
FFF0
FFF0
FFF0
FFF0
FFF0
FFF0
FFF0
ENDCHAR
STARTCHAR uni258C
ENCODING 9612
SWIDTH 600 0
DWIDTH 10 0
BBX 5 22 0 -6
BITMAP
FF80
FF80
FF80
FF80
FF80
FF80
FF80
FF80
FF80
FF80
FF80
FF80
FF80
FF80
FF80
FF80
FF80
FF80
FF80
FF80
FF80
FF80
ENDCHAR
STARTCHAR uni258D
ENCODING 9613
SWIDTH 600 0
DWIDTH 10 0
BBX 4 22 0 -6
BITMAP
FE
FE
FE
FE
FE
FE
FE
FE
FE
FE
FE
FE
FE
FE
FE
FE
FE
FE
FE
FE
FE
FE
ENDCHAR
STARTCHAR uni258E
ENCODING 9614
SWIDTH 600 0
DWIDTH 10 0
BBX 3 22 0 -6
BITMAP
F4
F4
F4
F4
F4
F4
F4
F4
F4
F4
F4
F4
F4
F4
F4
F4
F4
F4
F4
F4
F4
F4
ENDCHAR
STARTCHAR uni258F
ENCODING 9615
SWIDTH 600 0
DWIDTH 10 0
BBX 2 22 0 -6
BITMAP
D0
D0
D0
D0
D0
D0
D0
D0
D0
D0
D0
D0
D0
D0
D0
D0
D0
D0
D0
D0
D0
D0
ENDCHAR
STARTCHAR uni2590
ENCODING 9616
SWIDTH 600 0
DWIDTH 10 0
BBX 6 22 4 -6
BITMAP
7FE0
7FE0
7FE0
7FE0
7FE0
7FE0
7FE0
7FE0
7FE0
7FE0
7FE0
7FE0
7FE0
7FE0
7FE0
7FE0
7FE0
7FE0
7FE0
7FE0
7FE0
7FE0
ENDCHAR
STARTCHAR uni2591
ENCODING 9617
SWIDTH 600 0
DWIDTH 10 0
BBX 10 22 -1 -7
BITMAP
082450
000000
504100
081450
041000
504100
041050
041050
504100
041000
081450
504100
000000
082450
004100
004100
082450
000000
504100
081450
041000
504100
ENDCHAR
STARTCHAR uni2592
ENCODING 9618
SWIDTH 600 0
DWIDTH 10 0
BBX 10 22 -1 -7
BITMAP
0D24A0
196550
514200
0D34A0
081450
518200
0924A0
0924A0
518200
081450
0D34A0
514200
045150
0D38A0
504100
504100
0D38A0
045150
514200
0D34A0
081450
518200
ENDCHAR
STARTCHAR uni2593
ENCODING 9619
SWIDTH 600 0
DWIDTH 10 0
BBX 11 23 -1 -7
BITMAP
1E78F0
2E7DF4
59A650
A6DB50
2E7DF4
6EBDF0
A6D750
2E7DF0
2E7DF0
A6D750
6EBDF0
2E7DF4
A6DB50
6EAAA0
2F7DF4
AAAAA0
AAAAA0
2F7DF4
6EAAA0
A6DB50
2E7DF4
7FBEF0
A18700
ENDCHAR
STARTCHAR uni2594
ENCODING 9620
SWIDTH 600 0
DWIDTH 10 0
BBX 10 3 0 13
BITMAP
FFFFE0
FFFFE0
FFFFE0
ENDCHAR
STARTCHAR uni2595
ENCODING 9621
SWIDTH 600 0
DWIDTH 10 0
BBX 2 22 8 -6
BITMAP
A0
A0
A0
A0
A0
A0
A0
A0
A0
A0
A0
A0
A0
A0
A0
A0
A0
A0
A0
A0
A0
A0
ENDCHAR
STARTCHAR uni2596
ENCODING 9622
SWIDTH 600 0
DWIDTH 10 0
BBX 5 11 0 -6
BITMAP
FF80
FF80
FF80
FF80
FF80
FF80
FF80
FF80
FF80
FF80
FF80
ENDCHAR
STARTCHAR uni2597
ENCODING 9623
SWIDTH 600 0
DWIDTH 10 0
BBX 6 11 4 -6
BITMAP
7FE0
7FE0
7FE0
7FE0
7FE0
7FE0
7FE0
7FE0
7FE0
7FE0
7FE0
ENDCHAR
STARTCHAR uni2598
ENCODING 9624
SWIDTH 600 0
DWIDTH 10 0
BBX 5 11 0 5
BITMAP
FF80
FF80
FF80
FF80
FF80
FF80
FF80
FF80
FF80
FF80
FF80
ENDCHAR
STARTCHAR uni2599
ENCODING 9625
SWIDTH 600 0
DWIDTH 10 0
BBX 10 22 0 -6
BITMAP
FF8000
FF8000
FF8000
FF8000
FF8000
FF8000
FF8000
FF8000
FF8000
FF8000
FF8000
FFFFE0
FFFFE0
FFFFE0
FFFFE0
FFFFE0
FFFFE0
FFFFE0
FFFFE0
FFFFE0
FFFFE0
FFFFE0
ENDCHAR
STARTCHAR uni259A
ENCODING 9626
SWIDTH 600 0
DWIDTH 10 0
BBX 10 22 0 -6
BITMAP
FF8000
FF8000
FF8000
FF8000
FF8000
FF8000
FF8000
FF8000
FF8000
FF8000
FF8000
007FE0
007FE0
007FE0
007FE0
007FE0
007FE0
007FE0
007FE0
007FE0
007FE0
007FE0
ENDCHAR
STARTCHAR uni259B
ENCODING 9627
SWIDTH 600 0
DWIDTH 10 0
BBX 10 22 0 -6
BITMAP
FFFFE0
FFFFE0
FFFFE0
FFFFE0
FFFFE0
FFFFE0
FFFFE0
FFFFE0
FFFFE0
FFFFE0
FFFFE0
FF8000
FF8000
FF8000
FF8000
FF8000
FF8000
FF8000
FF8000
FF8000
FF8000
FF8000
ENDCHAR
STARTCHAR uni259C
ENCODING 9628
SWIDTH 600 0
DWIDTH 10 0
BBX 10 22 0 -6
BITMAP
FFFFE0
FFFFE0
FFFFE0
FFFFE0
FFFFE0
FFFFE0
FFFFE0
FFFFE0
FFFFE0
FFFFE0
FFFFE0
007FE0
007FE0
007FE0
007FE0
007FE0
007FE0
007FE0
007FE0
007FE0
007FE0
007FE0
ENDCHAR
STARTCHAR uni259D
ENCODING 9629
SWIDTH 600 0
DWIDTH 10 0
BBX 6 11 4 5
BITMAP
7FE0
7FE0
7FE0
7FE0
7FE0
7FE0
7FE0
7FE0
7FE0
7FE0
7FE0
ENDCHAR
STARTCHAR uni259E
ENCODING 9630
SWIDTH 600 0
DWIDTH 10 0
BBX 10 22 0 -6
BITMAP
007FE0
007FE0
007FE0
007FE0
007FE0
007FE0
007FE0
007FE0
007FE0
007FE0
007FE0
FF8000
FF8000
FF8000
FF8000
FF8000
FF8000
FF8000
FF8000
FF8000
FF8000
FF8000
ENDCHAR
STARTCHAR uni259F
ENCODING 9631
SWIDTH 600 0
DWIDTH 10 0
BBX 10 22 0 -6
BITMAP
007FE0
007FE0
007FE0
007FE0
007FE0
007FE0
007FE0
007FE0
007FE0
007FE0
007FE0
FFFFE0
FFFFE0
FFFFE0
FFFFE0
FFFFE0
FFFFE0
FFFFE0
FFFFE0
FFFFE0
FFFFE0
FFFFE0
ENDCHAR
STARTCHAR uni25A0
ENCODING 9632
SWIDTH 600 0
DWIDTH 10 0
BBX 8 7 1 2
BITMAP
BFFD
BFFD
BFFD
BFFD
BFFD
BFFD
BFFD
ENDCHAR
STARTCHAR uni25A1
ENCODING 9633
SWIDTH 600 0
DWIDTH 10 0
BBX 8 7 1 2
BITMAP
BFFD
8005
8005
8005
8005
8005
BFFD
ENDCHAR
STARTCHAR uni25AA
ENCODING 9642
SWIDTH 600 0
DWIDTH 10 0
BBX 5 4 2 2
BITMAP
7FC0
7FC0
7FC0
7FC0
ENDCHAR
STARTCHAR uni25AB
ENCODING 9643
SWIDTH 600 0
DWIDTH 10 0
BBX 5 5 2 2
BITMAP
BFC0
9080
9080
9080
BFC0
ENDCHAR
STARTCHAR filledrect
ENCODING 9644
SWIDTH 600 0
DWIDTH 10 0
BBX 10 1 0 4
BITMAP
FFFFE0
ENDCHAR
STARTCHAR triagup
ENCODING 9650
SWIDTH 600 0
DWIDTH 10 0
BBX 8 8 1 2
BITMAP
0100
0380
07C0
0FD0
1FF0
3FF4
7FFC
BFFD
ENDCHAR
STARTCHAR uni25B3
ENCODING 9651
SWIDTH 600 0
DWIDTH 10 0
BBX 8 8 1 2
BITMAP
0100
0240
0580
0850
1420
2014
5008
BFFD
ENDCHAR
STARTCHAR uni25B4
ENCODING 9652
SWIDTH 600 0
DWIDTH 10 0
BBX 5 5 2 2
BITMAP
0400
0E00
2F00
3F80
BFC0
ENDCHAR
STARTCHAR uni25B5
ENCODING 9653
SWIDTH 600 0
DWIDTH 10 0
BBX 6 5 2 2
BITMAP
0900
1600
2140
5080
FFD0
ENDCHAR
STARTCHAR uni25B6
ENCODING 9654
SWIDTH 600 0
DWIDTH 10 0
BBX 8 8 1 1
BITMAP
9000
F900
FFD0
FFFD
FFF8
FF40
F400
4000
ENDCHAR
STARTCHAR uni25B7
ENCODING 9655
SWIDTH 600 0
DWIDTH 10 0
BBX 8 8 1 1
BITMAP
9000
9900
8150
801D
81B8
9B40
F400
4000
ENDCHAR
STARTCHAR uni25B8
ENCODING 9656
SWIDTH 600 0
DWIDTH 10 0
BBX 5 5 2 2
BITMAP
6000
7E00
7FC0
7E00
6000
ENDCHAR
STARTCHAR uni25B9
ENCODING 9657
SWIDTH 600 0
DWIDTH 10 0
BBX 6 6 2 1
BITMAP
5000
A900
8280
8290
A900
5000
ENDCHAR
STARTCHAR triagrt
ENCODING 9658
SWIDTH 600 0
DWIDTH 10 0
BBX 10 8 0 1
BITMAP
A40000
BE4000
BFF900
BFFF90
BFFE40
BFE400
B90000
400000
ENDCHAR
STARTCHAR triagdn
ENCODING 9660
SWIDTH 600 0
DWIDTH 10 0
BBX 8 8 1 1
BITMAP
BFFD
7FFC
2FF4
1FF0
0FD0
07C0
0340
0100
ENDCHAR
STARTCHAR uni25BD
ENCODING 9661
SWIDTH 600 0
DWIDTH 10 0
BBX 8 8 1 1
BITMAP
BFFD
5008
2014
1420
0850
0580
0240
0100
ENDCHAR
STARTCHAR uni25BE
ENCODING 9662
SWIDTH 600 0
DWIDTH 10 0
BBX 5 5 2 1
BITMAP
BFC0
3F80
2F00
0E00
0400
ENDCHAR
STARTCHAR uni25BF
ENCODING 9663
SWIDTH 600 0
DWIDTH 10 0
BBX 6 5 2 2
BITMAP
FFD0
5080
2140
1600
0900
ENDCHAR
STARTCHAR uni25C0
ENCODING 9664
SWIDTH 600 0
DWIDTH 10 0
BBX 8 8 1 1
BITMAP
0006
00BE
0BFE
BFFE
6FFE
06FE
002E
0001
ENDCHAR
STARTCHAR uni25C1
ENCODING 9665
SWIDTH 600 0
DWIDTH 10 0
BBX 8 8 1 1
BITMAP
0006
0056
0502
A002
6E02
06E6
002E
0001
ENDCHAR
STARTCHAR uni25C2
ENCODING 9666
SWIDTH 600 0
DWIDTH 10 0
BBX 5 5 2 2
BITMAP
0180
1BC0
7FC0
1BC0
0180
ENDCHAR
STARTCHAR uni25C3
ENCODING 9667
SWIDTH 600 0
DWIDTH 10 0
BBX 5 6 2 1
BITMAP
0080
0A80
6480
6480
0A80
0080
ENDCHAR
STARTCHAR triaglf
ENCODING 9668
SWIDTH 600 0
DWIDTH 10 0
BBX 10 8 0 1
BITMAP
000190
002FD0
06FFD0
BFFFD0
6FFFD0
01BFD0
000BD0
000040
ENDCHAR
STARTCHAR uni25C6
ENCODING 9670
SWIDTH 600 0
DWIDTH 10 0
BBX 9 9 0 1
BITMAP
009000
02F400
0BFD00
2FFF40
7FFF80
2FFF40
0BFD00
02F400
009000
ENDCHAR
STARTCHAR uni25C9
ENCODING 9673
SWIDTH 600 0
DWIDTH 10 0
BBX 9 9 0 1
BITMAP
06F800
1D0A00
26E640
27FD80
67FC80
23F980
259240
1D0A00
06F800
ENDCHAR
STARTCHAR lozenge
ENCODING 9674
SWIDTH 600 0
DWIDTH 10 0
BBX 7 10 1 0
BITMAP
0380
0AD0
0C60
2434
7018
7018
2434
0C60
0AD0
0380
ENDCHAR
STARTCHAR uni25CB
ENCODING 9675
SWIDTH 600 0
DWIDTH 10 0
BBX 8 8 1 1
BITMAP
1BE0
7428
9009
C006
C006
9009
7428
1BE0
ENDCHAR
STARTCHAR uni25CC
ENCODING 9676
SWIDTH 600 0
DWIDTH 10 0
BBX 8 8 1 0
BITMAP
0240
1820
9009
0000
8006
9009
0000
1A60
ENDCHAR
STARTCHAR uni25CF
ENCODING 9679
SWIDTH 600 0
DWIDTH 10 0
BBX 8 7 1 2
BITMAP
1BE0
3FF8
BFFD
BFFD
BFFD
3FF8
1BE0
ENDCHAR
STARTCHAR invbullet
ENCODING 9688
SWIDTH 600 0
DWIDTH 10 0
BBX 6 6 2 1
BITMAP
BFD0
9090
4010
4010
9090
BFD0
ENDCHAR
STARTCHAR invcircle
ENCODING 9689
SWIDTH 600 0
DWIDTH 10 0
BBX 8 7 1 2
BITMAP
E41E
8BD6
6FF5
3FF4
6FF5
9FF6
E65E
ENDCHAR
STARTCHAR uni25E6
ENCODING 9702
SWIDTH 600 0
DWIDTH 10 0
BBX 6 5 2 2
BITMAP
2F40
A1C0
8090
A0C0
2F40
ENDCHAR
STARTCHAR uni2610
ENCODING 9744
SWIDTH 600 0
DWIDTH 10 0
BBX 11 11 -1 0
BITMAP
3FFFFC
50001C
50001C
50001C
50001C
50001C
50001C
50001C
50001C
50001C
7FFFF8
ENDCHAR
STARTCHAR uni2611
ENCODING 9745
SWIDTH 600 0
DWIDTH 10 0
BBX 12 12 -1 0
BITMAP
000002
00000A
3FFFFC
50007C
5000DC
52025C
52471C
51C91C
50AC1C
50781C
50001C
500018
ENDCHAR
STARTCHAR uni2615
ENCODING 9749
SWIDTH 600 0
DWIDTH 10 0
BBX 12 10 -1 0
BITMAP
0AF900
390680
66F980
AD2A54
5BFD59
500059
20001C
2401E4
1D0700
06F800
ENDCHAR
STARTCHAR smileface
ENCODING 9786
SWIDTH 600 0
DWIDTH 10 0
BBX 10 10 0 0
BITMAP
06F800
290740
632DC0
900090
800050
800050
990890
62F5C0
290740
06F900
ENDCHAR
STARTCHAR invsmileface
ENCODING 9787
SWIDTH 600 0
DWIDTH 10 0
BBX 9 9 0 1
BITMAP
06F800
1FFF00
3CE780
79A7C0
BCE7C0
7FFFC0
36F680
1D0B00
06F800
ENDCHAR
STARTCHAR sun
ENCODING 9788
SWIDTH 600 0
DWIDTH 10 0
BBX 10 10 0 0
BITMAP
009000
349240
0FFE00
0D0A00
F803E0
180200
0D0A00
2AFB40
209140
009000
ENDCHAR
STARTCHAR female
ENCODING 9792
SWIDTH 600 0
DWIDTH 10 0
BBX 8 12 1 -1
BITMAP
1BE0
742C
D009
C00A
D009
742C
1BE0
0240
0240
3FF8
0240
0240
ENDCHAR
STARTCHAR male
ENCODING 9794
SWIDTH 600 0
DWIDTH 10 0
BBX 10 10 0 0
BITMAP
002FE0
0002E0
1BEF60
746C20
D00810
C00900
C00900
D00D00
746800
1BE000
ENDCHAR
STARTCHAR spade
ENCODING 9824
SWIDTH 600 0
DWIDTH 10 0
BBX 10 11 0 0
BITMAP
009000
02F400
0BFD00
2FFF40
7FFFC0
BFFFD0
BFFFD0
7FAFC0
04E100
06F800
1FFF00
ENDCHAR
STARTCHAR club
ENCODING 9827
SWIDTH 600 0
DWIDTH 10 0
BBX 10 11 0 0
BITMAP
02F400
07FC00
07FC00
03F800
6FFF80
BFFFD0
BFFFD0
7FAFC0
04E100
06F800
1FFF00
ENDCHAR
STARTCHAR heart
ENCODING 9829
SWIDTH 600 0
DWIDTH 10 0
BBX 10 11 0 0
BITMAP
2E1F40
BFBFC0
BFFFD0
BFFFD0
BFFFD0
7FFFC0
3FFF40
1FFE00
07FC00
02F400
009000
ENDCHAR
STARTCHAR diamond
ENCODING 9830
SWIDTH 600 0
DWIDTH 10 0
BBX 10 11 0 0
BITMAP
009000
02F400
07FC00
1FFE00
3FFF80
BFFFD0
3FFF80
1FFE00
07FC00
02F400
009000
ENDCHAR
STARTCHAR musicalnote
ENCODING 9834
SWIDTH 600 0
DWIDTH 10 0
BBX 8 11 1 0
BITMAP
0180
01F4
01AC
0189
0185
0189
0180
0180
2F80
BF40
7D00
ENDCHAR
STARTCHAR musicalnotedbl
ENCODING 9835
SWIDTH 600 0
DWIDTH 10 0
BBX 10 12 0 0
BITMAP
005AD0
02FFD0
02EA90
024050
024050
024050
024050
024050
024BD0
6F6FD0
FF1F40
BD0000
ENDCHAR
STARTCHAR uni2713
ENCODING 10003
SWIDTH 600 0
DWIDTH 10 0
BBX 10 11 0 0
BITMAP
000090
0002C0
000700
000D00
002800
003000
D09000
60C000
258000
1B4000
0F0000
ENDCHAR
STARTCHAR uni2752
ENCODING 10066
SWIDTH 600 0
DWIDTH 10 0
BBX 8 8 1 1
BITMAP
7FFD
8009
8009
8009
8009
8009
8009
BFFC
ENDCHAR
STARTCHAR uni2764
ENCODING 10084
SWIDTH 600 0
DWIDTH 10 0
BBX 12 10 -1 0
BITMAP
2F86F4
BFEFFD
FFFFFE
FFFFFE
FFFFFE
7FFFFC
2FFFF4
07FF80
00BD00
002400
ENDCHAR
STARTCHAR uni27E6
ENCODING 10214
SWIDTH 600 0
DWIDTH 10 0
BBX 5 14 3 -3
BITMAP
EFC0
A400
A400
A400
A400
A400
A400
A400
A400
A400
A400
A400
E400
FFC0
ENDCHAR
STARTCHAR uni27E7
ENCODING 10215
SWIDTH 600 0
DWIDTH 10 0
BBX 6 14 1 -3
BITMAP
7FA0
0260
0260
0260
0260
0260
0260
0260
0260
0260
0260
0260
02A0
7FE0
ENDCHAR
STARTCHAR uni2E18
ENCODING 11800
SWIDTH 600 0
DWIDTH 10 0
BBX 6 11 2 -3
BITMAP
0B00
0B00
0000
0000
0600
1E00
7600
D600
C600
E060
2F80
ENDCHAR
STARTCHAR uni2E22
ENCODING 11810
SWIDTH 600 0
DWIDTH 10 0
BBX 5 7 3 4
BITMAP
7FC0
6000
6000
6000
6000
6000
6000
ENDCHAR
STARTCHAR uni2E23
ENCODING 11811
SWIDTH 600 0
DWIDTH 10 0
BBX 5 7 1 4
BITMAP
7FC0
00C0
00C0
00C0
00C0
00C0
00C0
ENDCHAR
STARTCHAR uni2E24
ENCODING 11812
SWIDTH 600 0
DWIDTH 10 0
BBX 5 7 3 -3
BITMAP
6000
6000
6000
6000
6000
6000
7FC0
ENDCHAR
STARTCHAR uni2E25
ENCODING 11813
SWIDTH 600 0
DWIDTH 10 0
BBX 5 7 1 -3
BITMAP
00C0
00C0
00C0
00C0
00C0
00C0
7FC0
ENDCHAR
STARTCHAR uniE0A0
ENCODING 57504
SWIDTH 600 0
DWIDTH 10 0
BBX 9 21 1 -4
BITMAP
700000
700000
700400
702D00
70BF00
706D40
701C00
701C00
701C00
701C00
602800
007400
02D000
1E4000
380000
700000
700000
700000
700000
700000
700000
ENDCHAR
STARTCHAR uniE0A1
ENCODING 57505
SWIDTH 600 0
DWIDTH 10 0
BBX 8 18 1 -3
BITMAP
A000
A000
A000
A000
A000
A000
A000
BFC0
0000
0000
0E0D
0F0D
0E8D
0DCD
0D99
0D79
0D2D
0D1D
ENDCHAR
STARTCHAR uniE0A2
ENCODING 57506
SWIDTH 600 0
DWIDTH 10 0
BBX 9 15 0 -1
BITMAP
02F400
0A1C00
090900
0D0900
0D0A00
0D0A00
3FFF80
7FFFC0
7E1FC0
7E0FC0
7E2FC0
7F6FC0
7F1FC0
7FFFC0
3FFF80
ENDCHAR
STARTCHAR uniE0B0
ENCODING 57520
SWIDTH 600 0
DWIDTH 10 0
BBX 10 21 0 -4
BITMAP
400000
D00000
F40000
FD0000
FF4000
FFC000
FFF000
FFF800
FFFE00
FFFF80
FFFFD0
FFFF80
FFFE00
FFF800
FFF000
FFC000
FF4000
FD0000
F40000
D00000
400000
ENDCHAR
STARTCHAR uniE0B1
ENCODING 57521
SWIDTH 600 0
DWIDTH 10 0
BBX 10 19 0 -3
BITMAP
900000
740000
1C0000
070000
01C000
00B000
002800
000A00
000280
0000E0
000280
000A00
002800
00B000
01C000
070000
1C0000
740000
900000
ENDCHAR
STARTCHAR uniE0B2
ENCODING 57522
SWIDTH 600 0
DWIDTH 10 0
BBX 10 21 0 -4
BITMAP
000010
0000A0
0002E0
0007E0
001FE0
007FE0
01FFE0
07FFE0
1FFFE0
3FFFE0
BFFFE0
3FFFE0
1FFFE0
07FFE0
01FFE0
007FE0
001FE0
0007E0
0002E0
0000A0
000010
ENDCHAR
STARTCHAR uniE0B3
ENCODING 57523
SWIDTH 600 0
DWIDTH 10 0
BBX 10 19 0 -3
BITMAP
000090
0002C0
000700
001C00
007400
01D000
074000
1D0000
740000
D00000
740000
1D0000
074000
01D000
007000
001C00
000700
0002C0
000090
ENDCHAR
STARTCHAR f_i
ENCODING 64257
SWIDTH 600 0
DWIDTH 10 0
BBX 8 12 1 0
BITMAP
002D
1F6D
3400
3400
FF1C
341C
341C
341C
341C
341C
341C
341C
ENDCHAR
STARTCHAR f_l
ENCODING 64258
SWIDTH 600 0
DWIDTH 10 0
BBX 8 11 1 0
BITMAP
1F68
3428
3428
FF28
3428
3428
3428
3428
3428
3428
341D
ENDCHAR
STARTCHAR uniFE0E
ENCODING 65038
SWIDTH 600 0
DWIDTH 10 0
BBX 9 10 0 0
BITMAP
6AAA80
800080
400040
690A80
010400
020C00
010400
010400
010400
02A400
ENDCHAR
STARTCHAR uniFE0F
ENCODING 65039
SWIDTH 600 0
DWIDTH 10 0
BBX 10 10 0 0
BITMAP
06A400
040100
100040
9BBC90
411450
440150
450440
104040
090500
01A000
ENDCHAR
STARTCHAR uniFEFF
ENCODING 65279
SWIDTH 600 0
DWIDTH 10 0
BBX 1 1 0 0
BITMAP
00
ENDCHAR
STARTCHAR u1F3B5
ENCODING 127925
SWIDTH 600 0
DWIDTH 10 0
BBX 8 11 1 0
BITMAP
0180
01F4
01AC
0189
0185
0189
0180
0180
2F80
BF40
7D00
ENDCHAR
STARTCHAR u1F3B6
ENCODING 127926
SWIDTH 600 0
DWIDTH 10 0
BBX 10 12 0 0
BITMAP
005AD0
02FFD0
02EA90
024050
024050
024050
024050
024050
024BD0
6F6FD0
FF1F40
BD0000
ENDCHAR
STARTCHAR u1F4A9
ENCODING 128169
SWIDTH 600 0
DWIDTH 10 0
BBX 10 11 0 0
BITMAP
006400
07FC00
0BFD00
1FFF40
389380
3B9A80
3FFF80
F803D0
F807E0
FE0BD0
2FFE40
ENDCHAR
STARTCHAR u1F512
ENCODING 128274
SWIDTH 600 0
DWIDTH 10 0
BBX 9 15 0 -1
BITMAP
02F400
0A1C00
090900
0D0900
0D0A00
0D0A00
3FFF80
7FFFC0
7E1FC0
7E0FC0
7E2FC0
7F6FC0
7F1FC0
7FFFC0
3FFF80
ENDCHAR
STARTCHAR u1F916
ENCODING 129302
SWIDTH 600 0
DWIDTH 10 0
BBX 11 10 -1 0
BITMAP
01BE40
0A4190
15BE20
362498
75A69C
72FE5C
340028
182420
0A41D0
01BE00
ENDCHAR
STARTCHAR .notdef
ENCODING -1
SWIDTH 600 0
DWIDTH 10 0
BBX 8 10 1 0
BITMAP
FFFE
E42A
C866
C986
C386
C6C6
CC66
E83A
F01E
FFFE
ENDCHAR
STARTCHAR uni00470303
ENCODING -1
SWIDTH 600 0
DWIDTH 10 0
BBX 8 13 1 0
BITMAP
0F48
18B8
0000
0BF8
3918
B000
D000
D000
D0BE
D00A
B00A
381E
0BF8
ENDCHAR
STARTCHAR uni004C00B7004C
ENCODING -1
SWIDTH 600 0
DWIDTH 10 0
BBX 8 10 1 0
BITMAP
D060
D060
D060
DE60
EFA0
DE60
D060
D060
D060
FD7F
ENDCHAR
STARTCHAR uni01320301
ENCODING -1
SWIDTH 600 0
DWIDTH 10 0
BBX 8 17 1 -3
BITMAP
0806
281D
6024
0000
7028
7028
7028
7028
7028
7028
7028
7028
7028
7028
0028
0028
01E0
ENDCHAR
STARTCHAR uni00670303
ENCODING -1
SWIDTH 600 0
DWIDTH 10 0
BBX 8 15 1 -3
BITMAP
0404
2B58
20B0
0000
1BFF
3474
7028
7434
2EE0
7100
7000
3FFD
A007
A01A
2FE4
ENDCHAR
STARTCHAR uni006C00B7006C
ENCODING -1
SWIDTH 600 0
DWIDTH 10 0
BBX 10 11 0 0
BITMAP
F87E00
180600
180600
180600
19E600
1AF600
19E600
180600
180600
1C0700
0B82E0
ENDCHAR
STARTCHAR uni01330301
ENCODING -1
SWIDTH 600 0
DWIDTH 10 0
BBX 8 15 1 -3
BITMAP
0902
280A
6014
0000
701C
701C
701C
701C
701C
701C
701C
701C
001C
001C
00F4
ENDCHAR
STARTCHAR uni014A.a
ENCODING -1
SWIDTH 600 0
DWIDTH 10 0
BBX 8 13 1 -3
BITMAP
B00D
B80D
AC0D
AA0D
A34D
A28D
A0DD
A0AD
A03D
A01D
000D
001C
00B8
ENDCHAR
STARTCHAR a.a
ENCODING -1
SWIDTH 600 0
DWIDTH 10 0
BBX 7 8 1 0
BITMAP
1B9C
746C
A01C
D01C
D01C
A01C
746C
1F8C
ENDCHAR
STARTCHAR agrave.a
ENCODING -1
SWIDTH 600 0
DWIDTH 10 0
BBX 7 12 1 0
BITMAP
0800
0B00
0180
0000
1B9C
746C
A01C
D01C
D01C
A01C
746C
1F8C
ENDCHAR
STARTCHAR aacute.a
ENCODING -1
SWIDTH 600 0
DWIDTH 10 0
BBX 7 12 1 0
BITMAP
0060
01D0
0240
0000
1B9C
746C
A01C
D01C
D01C
A01C
746C
1F8C
ENDCHAR
STARTCHAR acircumflex.a
ENCODING -1
SWIDTH 600 0
DWIDTH 10 0
BBX 7 12 1 0
BITMAP
07C0
0DA0
1420
0000
1B9C
746C
A01C
D01C
D01C
A01C
746C
1F8C
ENDCHAR
STARTCHAR atilde.a
ENCODING -1
SWIDTH 600 0
DWIDTH 10 0
BBX 7 12 1 0
BITMAP
0400
2B58
21B0
0000
1B9C
746C
A01C
D01C
D01C
A01C
746C
1F8C
ENDCHAR
STARTCHAR adieresis.a
ENCODING -1
SWIDTH 600 0
DWIDTH 10 0
BBX 7 11 1 0
BITMAP
1C70
1C70
0000
1B9C
746C
A01C
D01C
D01C
A01C
746C
1F8C
ENDCHAR
STARTCHAR amacron.a
ENCODING -1
SWIDTH 600 0
DWIDTH 10 0
BBX 7 11 1 0
BITMAP
1FF0
0000
0000
1B9C
746C
A01C
D01C
D01C
A01C
746C
1F8C
ENDCHAR
STARTCHAR abreve.a
ENCODING -1
SWIDTH 600 0
DWIDTH 10 0
BBX 7 12 1 0
BITMAP
2424
1870
07D0
0000
1B9C
746C
A01C
D01C
D01C
A01C
746C
1F8C
ENDCHAR
STARTCHAR aring.a
ENCODING -1
SWIDTH 600 0
DWIDTH 10 0
BBX 7 13 1 0
BITMAP
0780
0860
0860
07C0
0000
1B9C
746C
A01C
D01C
D01C
A01C
746C
1F8C
ENDCHAR
STARTCHAR aringacute.a
ENCODING -1
SWIDTH 600 0
DWIDTH 10 0
BBX 7 13 1 0
BITMAP
0190
0550
0860
07D0
0000
1B9C
746C
A01C
D01C
D01C
A01C
746C
1F8C
ENDCHAR
STARTCHAR uni01CE.a
ENCODING -1
SWIDTH 600 0
DWIDTH 10 0
BBX 7 12 1 0
BITMAP
1420
0DA0
07C0
0000
1B9C
746C
A01C
D01C
D01C
A01C
746C
1F8C
ENDCHAR
STARTCHAR uni1EA1.a
ENCODING -1
SWIDTH 600 0
DWIDTH 10 0
BBX 7 12 1 -4
BITMAP
1B9C
746C
A01C
D01C
D01C
A01C
746C
1F8C
0000
0000
0380
0380
ENDCHAR
STARTCHAR uni1EA3.a
ENCODING -1
SWIDTH 600 0
DWIDTH 10 0
BBX 7 13 1 0
BITMAP
0740
01C0
01C0
0240
0000
1B9C
746C
A01C
D01C
D01C
A01C
746C
1F8C
ENDCHAR
STARTCHAR uni1EA5.a
ENCODING -1
SWIDTH 600 0
DWIDTH 10 0
BBX 8 12 1 0
BITMAP
0009
07D8
0860
0000
1B9C
746C
A01C
D01C
D01C
A01C
746C
1F8C
ENDCHAR
STARTCHAR uni1EA7.a
ENCODING -1
SWIDTH 600 0
DWIDTH 10 0
BBX 7 12 1 0
BITMAP
9000
27C0
0860
0000
1B9C
746C
A01C
D01C
D01C
A01C
746C
1F8C
ENDCHAR
STARTCHAR uni1EA9.a
ENCODING -1
SWIDTH 600 0
DWIDTH 10 0
BBX 7 13 1 0
BITMAP
0028
000C
07D8
0860
0000
1B9C
746C
A01C
D01C
D01C
A01C
746C
1F8C
ENDCHAR
STARTCHAR uni1EAB.a
ENCODING -1
SWIDTH 600 0
DWIDTH 10 0
BBX 7 13 1 0
BITMAP
0A20
19E0
07C0
0860
0000
1B9C
746C
A01C
D01C
D01C
A01C
746C
1F8C
ENDCHAR
STARTCHAR uni1EAD.a
ENCODING -1
SWIDTH 600 0
DWIDTH 10 0
BBX 7 16 1 -4
BITMAP
07C0
0DA0
1420
0000
1B9C
746C
A01C
D01C
D01C
A01C
746C
1F8C
0000
0000
0380
0380
ENDCHAR
STARTCHAR uni1EAF.a
ENCODING -1
SWIDTH 600 0
DWIDTH 10 0
BBX 7 13 1 0
BITMAP
0090
2664
1870
07D0
0000
1B9C
746C
A01C
D01C
D01C
A01C
746C
1F8C
ENDCHAR
STARTCHAR uni1EB1.a
ENCODING -1
SWIDTH 600 0
DWIDTH 10 0
BBX 7 13 1 0
BITMAP
0600
2664
1870
07D0
0000
1B9C
746C
A01C
D01C
D01C
A01C
746C
1F8C
ENDCHAR
STARTCHAR uni1EB3.a
ENCODING -1
SWIDTH 600 0
DWIDTH 10 0
BBX 7 14 1 0
BITMAP
0340
01C0
2664
1870
07D0
0000
1B9C
746C
A01C
D01C
D01C
A01C
746C
1F8C
ENDCHAR
STARTCHAR uni1EB5.a
ENCODING -1
SWIDTH 600 0
DWIDTH 10 0
BBX 7 13 1 0
BITMAP
0A20
19E0
1830
0BD0
0000
1B9C
746C
A01C
D01C
D01C
A01C
746C
1F8C
ENDCHAR
STARTCHAR uni1EB7.a
ENCODING -1
SWIDTH 600 0
DWIDTH 10 0
BBX 7 16 1 -4
BITMAP
2424
1870
07D0
0000
1B9C
746C
A01C
D01C
D01C
A01C
746C
1F8C
0000
0000
0380
0380
ENDCHAR
STARTCHAR aogonek.a
ENCODING -1
SWIDTH 600 0
DWIDTH 10 0
BBX 8 12 1 -4
BITMAP
1B9C
746C
A01C
D01C
D01C
A01C
746C
1F8C
0014
0060
0060
002D
ENDCHAR
STARTCHAR g.a
ENCODING -1
SWIDTH 600 0
DWIDTH 10 0
BBX 7 11 1 -3
BITMAP
1B9C
746C
A01C
D01C
D01C
A01C
746C
1F9C
001C
2068
2FE0
ENDCHAR
STARTCHAR uni01F5.a
ENCODING -1
SWIDTH 600 0
DWIDTH 10 0
BBX 7 15 1 -3
BITMAP
0060
01D0
0240
0000
1B9C
746C
A01C
D01C
D01C
A01C
746C
1F9C
001C
2068
2FE0
ENDCHAR
STARTCHAR gcircumflex.a
ENCODING -1
SWIDTH 600 0
DWIDTH 10 0
BBX 7 15 1 -3
BITMAP
03C0
09A0
1824
0000
1B9C
746C
A01C
D01C
D01C
A01C
746C
1F9C
001C
2068
2FE0
ENDCHAR
STARTCHAR gbreve.a
ENCODING -1
SWIDTH 600 0
DWIDTH 10 0
BBX 7 15 1 -3
BITMAP
1424
1C70
07D0
0000
1B9C
746C
A01C
D01C
D01C
A01C
746C
1F9C
001C
2068
2FE0
ENDCHAR
STARTCHAR gdotaccent.a
ENCODING -1
SWIDTH 600 0
DWIDTH 10 0
BBX 7 14 1 -3
BITMAP
0380
0380
0000
1B9C
746C
A01C
D01C
D01C
A01C
746C
1F9C
001C
2068
2FE0
ENDCHAR
STARTCHAR uni0123.a
ENCODING -1
SWIDTH 600 0
DWIDTH 10 0
BBX 7 15 1 -3
BITMAP
02D0
0700
0280
0000
1B9C
746C
A01C
D01C
D01C
A01C
746C
1F9C
001C
2068
2FE0
ENDCHAR
STARTCHAR gcaron.a
ENCODING -1
SWIDTH 600 0
DWIDTH 10 0
BBX 7 15 1 -3
BITMAP
1824
09A0
03C0
0000
1B9C
746C
A01C
D01C
D01C
A01C
746C
1F9C
001C
2068
2FE0
ENDCHAR
STARTCHAR uni1E21.a
ENCODING -1
SWIDTH 600 0
DWIDTH 10 0
BBX 7 14 1 -3
BITMAP
1FF0
0000
0000
1B9C
746C
A01C
D01C
D01C
A01C
746C
1F9C
001C
2068
2FE0
ENDCHAR
STARTCHAR uni00670303.a
ENCODING -1
SWIDTH 600 0
DWIDTH 10 0
BBX 7 15 1 -3
BITMAP
0404
1B58
20B4
0000
1B9C
746C
A01C
D01C
D01C
A01C
746C
1F9C
001C
2068
2FE0
ENDCHAR
STARTCHAR i.a
ENCODING -1
SWIDTH 600 0
DWIDTH 10 0
BBX 8 11 1 0
BITMAP
02C0
02C0
0000
3FC0
01C0
01C0
01C0
01C0
01C0
01C0
7FFF
ENDCHAR
ENDFONT
